G04 #@! TF.GenerationSoftware,KiCad,Pcbnew,8.0.7*
G04 #@! TF.CreationDate,2025-08-10T23:19:55-04:00*
G04 #@! TF.ProjectId,RP2350_60QFN_minimal,52503233-3530-45f3-9630-51464e5f6d69,REV3*
G04 #@! TF.SameCoordinates,Original*
G04 #@! TF.FileFunction,Legend,Bot*
G04 #@! TF.FilePolarity,Positive*
%FSLAX46Y46*%
G04 Gerber Fmt 4.6, Leading zero omitted, Abs format (unit mm)*
G04 Created by KiCad (PCBNEW 8.0.7) date 2025-08-10 23:19:55*
%MOMM*%
%LPD*%
G01*
G04 APERTURE LIST*
%ADD10C,0.900000*%
%ADD11C,0.620000*%
%ADD12C,1.400000*%
G04 APERTURE END LIST*
D10*
G36*
X16540425Y-4972009D02*
G01*
X16540425Y-7171294D01*
X15753475Y-7171294D01*
X15753475Y-4972009D01*
X14655481Y-4972009D01*
X14655481Y-7347149D01*
X13867431Y-7347149D01*
X13867431Y-4026789D01*
X18580341Y-4026789D01*
X18580341Y-7461454D01*
X17793391Y-7461454D01*
X17793391Y-4972009D01*
X16540425Y-4972009D01*
G37*
G36*
X15063244Y-8105523D02*
G01*
X18580341Y-8105523D01*
X18580341Y-8988094D01*
X16470083Y-8988094D01*
X16227179Y-9019815D01*
X16011760Y-9129644D01*
X15871264Y-9311240D01*
X15814656Y-9557596D01*
X15813925Y-9592595D01*
X15853569Y-9814341D01*
X16000255Y-9998423D01*
X16213849Y-10069678D01*
X16264553Y-10071800D01*
X18580341Y-10071800D01*
X18580341Y-10954371D01*
X16496461Y-10954371D01*
X16275525Y-10977758D01*
X16067296Y-11061461D01*
X15901480Y-11225773D01*
X15820633Y-11456596D01*
X15813925Y-11558872D01*
X15853569Y-11779927D01*
X16000255Y-11963659D01*
X16213849Y-12034857D01*
X16264553Y-12036978D01*
X18580341Y-12036978D01*
X18580341Y-12919549D01*
X16122770Y-12919549D01*
X15885383Y-12900888D01*
X15627205Y-12826640D01*
X15414308Y-12698513D01*
X15249309Y-12519399D01*
X15134823Y-12292191D01*
X15081362Y-12077741D01*
X15063244Y-11835844D01*
X15079567Y-11605434D01*
X15141657Y-11367682D01*
X15253063Y-11157068D01*
X15416892Y-10966966D01*
X15567728Y-10840066D01*
X15377320Y-10708328D01*
X15229256Y-10531969D01*
X15126436Y-10316854D01*
X15071758Y-10068853D01*
X15063244Y-9914630D01*
X15053111Y-9676028D01*
X15109214Y-9438069D01*
X15220627Y-9247689D01*
X15393101Y-9062240D01*
X15486395Y-8981500D01*
X15063244Y-8981500D01*
X15063244Y-8105523D01*
G37*
G36*
X18580341Y-14582477D02*
G01*
X18228632Y-14582477D01*
X18386480Y-14735466D01*
X18525026Y-14943187D01*
X18606147Y-15157119D01*
X18646580Y-15404263D01*
X18650683Y-15521102D01*
X18630716Y-15744345D01*
X18545129Y-16022346D01*
X18397820Y-16273352D01*
X18250553Y-16440914D01*
X18074655Y-16588422D01*
X17872732Y-16713790D01*
X17647393Y-16814930D01*
X17401247Y-16889756D01*
X17136901Y-16936182D01*
X16856964Y-16952121D01*
X16600641Y-16937841D01*
X16348578Y-16896305D01*
X16106426Y-16829470D01*
X15879836Y-16739292D01*
X15674460Y-16627726D01*
X15611692Y-16586123D01*
X15437005Y-16437009D01*
X15291328Y-16256582D01*
X15178397Y-16052015D01*
X15101953Y-15830480D01*
X15065733Y-15599149D01*
X15063244Y-15521102D01*
X15077679Y-15326563D01*
X15800736Y-15326563D01*
X15845227Y-15556343D01*
X15972123Y-15752433D01*
X16171556Y-15907575D01*
X16386042Y-16000342D01*
X16638337Y-16055431D01*
X16863558Y-16069549D01*
X17086367Y-16055701D01*
X17335870Y-16001467D01*
X17547904Y-15909705D01*
X17744990Y-15755331D01*
X17870350Y-15558791D01*
X17914291Y-15326563D01*
X17871357Y-15091784D01*
X17747482Y-14894548D01*
X17550056Y-14740638D01*
X17334681Y-14649646D01*
X17077637Y-14596102D01*
X16844874Y-14582477D01*
X16622348Y-14596327D01*
X16373834Y-14650583D01*
X16163210Y-14742413D01*
X15967950Y-14896963D01*
X15844068Y-15093824D01*
X15800736Y-15326563D01*
X15077679Y-15326563D01*
X15080089Y-15294083D01*
X15143154Y-15061544D01*
X15254351Y-14860917D01*
X15415131Y-14689163D01*
X15561133Y-14582477D01*
X13867431Y-14582477D01*
X13867431Y-13701004D01*
X18580341Y-13701004D01*
X18580341Y-14582477D01*
G37*
G36*
X17204883Y-17330233D02*
G01*
X17472081Y-17375752D01*
X17715493Y-17450301D01*
X17933804Y-17552805D01*
X18125701Y-17682188D01*
X18289867Y-17837374D01*
X18424988Y-18017287D01*
X18529749Y-18220852D01*
X18602835Y-18446992D01*
X18642930Y-18694631D01*
X18650683Y-18871137D01*
X18631016Y-19149471D01*
X18573506Y-19411049D01*
X18480397Y-19652611D01*
X18353928Y-19870899D01*
X18196342Y-20062654D01*
X18009878Y-20224618D01*
X17796778Y-20353532D01*
X17559284Y-20446137D01*
X17559284Y-19576755D01*
X17754790Y-19454616D01*
X17892264Y-19275341D01*
X17965837Y-19047000D01*
X17976939Y-18901912D01*
X17947087Y-18681279D01*
X17848871Y-18478059D01*
X17687878Y-18322690D01*
X17484116Y-18237312D01*
X17263299Y-18205792D01*
X17103161Y-18196294D01*
X17103161Y-20476912D01*
X16952585Y-20483506D01*
X16702387Y-20474336D01*
X16466099Y-20448060D01*
X16248565Y-20406535D01*
X16054626Y-20351615D01*
X15834368Y-20251658D01*
X15638671Y-20123828D01*
X15469018Y-19970238D01*
X15326889Y-19793001D01*
X15213766Y-19594228D01*
X15131131Y-19376033D01*
X15080463Y-19140526D01*
X15063244Y-18889822D01*
X15064162Y-18876632D01*
X15738087Y-18876632D01*
X15776814Y-19117499D01*
X15891384Y-19309346D01*
X16079380Y-19450170D01*
X16297130Y-19528750D01*
X16517344Y-19563565D01*
X16517344Y-18209483D01*
X16290895Y-18247850D01*
X16071082Y-18325910D01*
X15885349Y-18461348D01*
X15764981Y-18674980D01*
X15738087Y-18876632D01*
X15064162Y-18876632D01*
X15081658Y-18625192D01*
X15136013Y-18381641D01*
X15224985Y-18160248D01*
X15347248Y-17962095D01*
X15501476Y-17788264D01*
X15686343Y-17639835D01*
X15900523Y-17517891D01*
X16142691Y-17423512D01*
X16411520Y-17357779D01*
X16705685Y-17321775D01*
X16915216Y-17314822D01*
X17204883Y-17330233D01*
G37*
G36*
X17116515Y-20868247D02*
G01*
X17377166Y-20905335D01*
X17628601Y-20967969D01*
X17864908Y-21054150D01*
X18080177Y-21161877D01*
X18178073Y-21223196D01*
X18342121Y-21400523D01*
X18462505Y-21585672D01*
X18557929Y-21793714D01*
X18622439Y-22017348D01*
X18650079Y-22249270D01*
X18650683Y-22288217D01*
X18634542Y-22515079D01*
X18573478Y-22746308D01*
X18464567Y-22945794D01*
X18305325Y-23118023D01*
X18159389Y-23226842D01*
X18580341Y-23226842D01*
X18580341Y-24109413D01*
X13867431Y-24109413D01*
X13867431Y-23226842D01*
X15561133Y-23226842D01*
X15364050Y-23071334D01*
X15217585Y-22891775D01*
X15120287Y-22683678D01*
X15079200Y-22483855D01*
X15800736Y-22483855D01*
X15845618Y-22718533D01*
X15974790Y-22915522D01*
X16180033Y-23069128D01*
X16403253Y-23159884D01*
X16668841Y-23213264D01*
X16908621Y-23226842D01*
X17168265Y-23205329D01*
X17399019Y-23143290D01*
X17629077Y-23020625D01*
X17797929Y-22851476D01*
X17894881Y-22642320D01*
X17914291Y-22483855D01*
X17870350Y-22251117D01*
X17744990Y-22054256D01*
X17547904Y-21899705D01*
X17335870Y-21807876D01*
X17086367Y-21753620D01*
X16863558Y-21739769D01*
X16636759Y-21753620D01*
X16383646Y-21807876D01*
X16169274Y-21899705D01*
X15970674Y-22054256D01*
X15844756Y-22251117D01*
X15800736Y-22483855D01*
X15079200Y-22483855D01*
X15070708Y-22442555D01*
X15063244Y-22288217D01*
X15083454Y-22065255D01*
X15170200Y-21787547D01*
X15319760Y-21536755D01*
X15469528Y-21369308D01*
X15648695Y-21221882D01*
X15854720Y-21096570D01*
X16085059Y-20995464D01*
X16337169Y-20920654D01*
X16608508Y-20874235D01*
X16896531Y-20858297D01*
X17116515Y-20868247D01*
G37*
G36*
X17116515Y-24715072D02*
G01*
X17377166Y-24752160D01*
X17628601Y-24814794D01*
X17864908Y-24900975D01*
X18080177Y-25008702D01*
X18178073Y-25070020D01*
X18342121Y-25247348D01*
X18462505Y-25432496D01*
X18557929Y-25640539D01*
X18622439Y-25864173D01*
X18650079Y-26096095D01*
X18650683Y-26135041D01*
X18634542Y-26361904D01*
X18573478Y-26593133D01*
X18464567Y-26792619D01*
X18305325Y-26964848D01*
X18159389Y-27073667D01*
X18580341Y-27073667D01*
X18580341Y-27956238D01*
X13867431Y-27956238D01*
X13867431Y-27073667D01*
X15561133Y-27073667D01*
X15364050Y-26918159D01*
X15217585Y-26738600D01*
X15120287Y-26530503D01*
X15079200Y-26330680D01*
X15800736Y-26330680D01*
X15845618Y-26565357D01*
X15974790Y-26762346D01*
X16180033Y-26915952D01*
X16403253Y-27006709D01*
X16668841Y-27060089D01*
X16908621Y-27073667D01*
X17168265Y-27052154D01*
X17399019Y-26990114D01*
X17629077Y-26867449D01*
X17797929Y-26698300D01*
X17894881Y-26489145D01*
X17914291Y-26330680D01*
X17870350Y-26097942D01*
X17744990Y-25901081D01*
X17547904Y-25746530D01*
X17335870Y-25654701D01*
X17086367Y-25600444D01*
X16863558Y-25586594D01*
X16636759Y-25600444D01*
X16383646Y-25654701D01*
X16169274Y-25746530D01*
X15970674Y-25901081D01*
X15844756Y-26097942D01*
X15800736Y-26330680D01*
X15079200Y-26330680D01*
X15070708Y-26289380D01*
X15063244Y-26135041D01*
X15083454Y-25912080D01*
X15170200Y-25634372D01*
X15319760Y-25383580D01*
X15469528Y-25216133D01*
X15648695Y-25068707D01*
X15854720Y-24943395D01*
X16085059Y-24842288D01*
X16337169Y-24767479D01*
X16608508Y-24721060D01*
X16896531Y-24705122D01*
X17116515Y-24715072D01*
G37*
G36*
X17204883Y-28523395D02*
G01*
X17472081Y-28568913D01*
X17715493Y-28643462D01*
X17933804Y-28745966D01*
X18125701Y-28875349D01*
X18289867Y-29030535D01*
X18424988Y-29210449D01*
X18529749Y-29414013D01*
X18602835Y-29640153D01*
X18642930Y-29887792D01*
X18650683Y-30064298D01*
X18631016Y-30342633D01*
X18573506Y-30604210D01*
X18480397Y-30845772D01*
X18353928Y-31064060D01*
X18196342Y-31255816D01*
X18009878Y-31417779D01*
X17796778Y-31546693D01*
X17559284Y-31639298D01*
X17559284Y-30769916D01*
X17754790Y-30647777D01*
X17892264Y-30468502D01*
X17965837Y-30240161D01*
X17976939Y-30095073D01*
X17947087Y-29874440D01*
X17848871Y-29671220D01*
X17687878Y-29515851D01*
X17484116Y-29430473D01*
X17263299Y-29398953D01*
X17103161Y-29389455D01*
X17103161Y-31670073D01*
X16952585Y-31676667D01*
X16702387Y-31667497D01*
X16466099Y-31641222D01*
X16248565Y-31599696D01*
X16054626Y-31544776D01*
X15834368Y-31444819D01*
X15638671Y-31316989D01*
X15469018Y-31163400D01*
X15326889Y-30986162D01*
X15213766Y-30787390D01*
X15131131Y-30569194D01*
X15080463Y-30333688D01*
X15063244Y-30082983D01*
X15064162Y-30069794D01*
X15738087Y-30069794D01*
X15776814Y-30310660D01*
X15891384Y-30502507D01*
X16079380Y-30643331D01*
X16297130Y-30721911D01*
X16517344Y-30756727D01*
X16517344Y-29402644D01*
X16290895Y-29441011D01*
X16071082Y-29519071D01*
X15885349Y-29654509D01*
X15764981Y-29868141D01*
X15738087Y-30069794D01*
X15064162Y-30069794D01*
X15081658Y-29818354D01*
X15136013Y-29574802D01*
X15224985Y-29353409D01*
X15347248Y-29155256D01*
X15501476Y-28981425D01*
X15686343Y-28832996D01*
X15900523Y-28711052D01*
X16142691Y-28616673D01*
X16411520Y-28550940D01*
X16705685Y-28514936D01*
X16915216Y-28507983D01*
X17204883Y-28523395D01*
G37*
G36*
X17116515Y-32061408D02*
G01*
X17377166Y-32098496D01*
X17628601Y-32161131D01*
X17864908Y-32247311D01*
X18080177Y-32355038D01*
X18178073Y-32416357D01*
X18342121Y-32593685D01*
X18462505Y-32778833D01*
X18557929Y-32986875D01*
X18622439Y-33210509D01*
X18650079Y-33442431D01*
X18650683Y-33481378D01*
X18634542Y-33708240D01*
X18573478Y-33939469D01*
X18464567Y-34138955D01*
X18305325Y-34311184D01*
X18159389Y-34420003D01*
X18580341Y-34420003D01*
X18580341Y-35302575D01*
X13867431Y-35302575D01*
X13867431Y-34420003D01*
X15561133Y-34420003D01*
X15364050Y-34264496D01*
X15217585Y-34084937D01*
X15120287Y-33876839D01*
X15079200Y-33677016D01*
X15800736Y-33677016D01*
X15845618Y-33911694D01*
X15974790Y-34108683D01*
X16180033Y-34262289D01*
X16403253Y-34353046D01*
X16668841Y-34406425D01*
X16908621Y-34420003D01*
X17168265Y-34398490D01*
X17399019Y-34336451D01*
X17629077Y-34213786D01*
X17797929Y-34044637D01*
X17894881Y-33835481D01*
X17914291Y-33677016D01*
X17870350Y-33444278D01*
X17744990Y-33247417D01*
X17547904Y-33092867D01*
X17335870Y-33001037D01*
X17086367Y-32946781D01*
X16863558Y-32932930D01*
X16636759Y-32946781D01*
X16383646Y-33001037D01*
X16169274Y-33092867D01*
X15970674Y-33247417D01*
X15844756Y-33444278D01*
X15800736Y-33677016D01*
X15079200Y-33677016D01*
X15070708Y-33635717D01*
X15063244Y-33481378D01*
X15083454Y-33258416D01*
X15170200Y-32980708D01*
X15319760Y-32729917D01*
X15469528Y-32562469D01*
X15648695Y-32415044D01*
X15854720Y-32289731D01*
X16085059Y-32188625D01*
X16337169Y-32113816D01*
X16608508Y-32067396D01*
X16896531Y-32051458D01*
X17116515Y-32061408D01*
G37*
G36*
X18580341Y-39746207D02*
G01*
X18572579Y-39996493D01*
X18548949Y-40224123D01*
X18496311Y-40479175D01*
X18417068Y-40704307D01*
X18310214Y-40902561D01*
X18174742Y-41076983D01*
X18045083Y-41201406D01*
X17826320Y-41357688D01*
X17631089Y-41464869D01*
X17419181Y-41555812D01*
X17191795Y-41630168D01*
X16950128Y-41687591D01*
X16695378Y-41727732D01*
X16428743Y-41750243D01*
X16221688Y-41755348D01*
X15948727Y-41746287D01*
X15686224Y-41719336D01*
X15435365Y-41674842D01*
X15197334Y-41613153D01*
X14973316Y-41534618D01*
X14764497Y-41439582D01*
X14572062Y-41328396D01*
X14397194Y-41201406D01*
X14238464Y-41044267D01*
X14087446Y-40827824D01*
X13993003Y-40620123D01*
X13925769Y-40383844D01*
X13884486Y-40115491D01*
X13869300Y-39875366D01*
X13867431Y-39746207D01*
X14655481Y-39746207D01*
X14679786Y-39996089D01*
X14752854Y-40212445D01*
X14874917Y-40395339D01*
X15046209Y-40544835D01*
X15266959Y-40660998D01*
X15537400Y-40743891D01*
X15772980Y-40784267D01*
X16036740Y-40805993D01*
X16228283Y-40810129D01*
X16508916Y-40800821D01*
X16761672Y-40772882D01*
X16986610Y-40726283D01*
X17243361Y-40635078D01*
X17450906Y-40510589D01*
X17609389Y-40352749D01*
X17718950Y-40161496D01*
X17779731Y-39936764D01*
X17793391Y-39746207D01*
X17793391Y-38895509D01*
X14655481Y-38895509D01*
X14655481Y-39746207D01*
X13867431Y-39746207D01*
X13867431Y-37950289D01*
X18580341Y-37950289D01*
X18580341Y-39746207D01*
G37*
G36*
X17204883Y-42231280D02*
G01*
X17472081Y-42276799D01*
X17715493Y-42351348D01*
X17933804Y-42453852D01*
X18125701Y-42583235D01*
X18289867Y-42738421D01*
X18424988Y-42918334D01*
X18529749Y-43121899D01*
X18602835Y-43348038D01*
X18642930Y-43595678D01*
X18650683Y-43772184D01*
X18631016Y-44050518D01*
X18573506Y-44312096D01*
X18480397Y-44553658D01*
X18353928Y-44771946D01*
X18196342Y-44963701D01*
X18009878Y-45125665D01*
X17796778Y-45254579D01*
X17559284Y-45347184D01*
X17559284Y-44477801D01*
X17754790Y-44355662D01*
X17892264Y-44176388D01*
X17965837Y-43948046D01*
X17976939Y-43802958D01*
X17947087Y-43582325D01*
X17848871Y-43379106D01*
X17687878Y-43223736D01*
X17484116Y-43138359D01*
X17263299Y-43106839D01*
X17103161Y-43097341D01*
X17103161Y-45377958D01*
X16952585Y-45384553D01*
X16702387Y-45375382D01*
X16466099Y-45349107D01*
X16248565Y-45307582D01*
X16054626Y-45252662D01*
X15834368Y-45152704D01*
X15638671Y-45024875D01*
X15469018Y-44871285D01*
X15326889Y-44694048D01*
X15213766Y-44495275D01*
X15131131Y-44277079D01*
X15080463Y-44041573D01*
X15063244Y-43790868D01*
X15064162Y-43777679D01*
X15738087Y-43777679D01*
X15776814Y-44018546D01*
X15891384Y-44210393D01*
X16079380Y-44351217D01*
X16297130Y-44429797D01*
X16517344Y-44464612D01*
X16517344Y-43110530D01*
X16290895Y-43148897D01*
X16071082Y-43226957D01*
X15885349Y-43362395D01*
X15764981Y-43576027D01*
X15738087Y-43777679D01*
X15064162Y-43777679D01*
X15081658Y-43526239D01*
X15136013Y-43282687D01*
X15224985Y-43061294D01*
X15347248Y-42863142D01*
X15501476Y-42689310D01*
X15686343Y-42540882D01*
X15900523Y-42418937D01*
X16142691Y-42324558D01*
X16411520Y-42258826D01*
X16705685Y-42222822D01*
X16915216Y-42215868D01*
X17204883Y-42231280D01*
G37*
G36*
X16212896Y-48784047D02*
G01*
X15958383Y-48754423D01*
X15731871Y-48676061D01*
X15535189Y-48551125D01*
X15370166Y-48381779D01*
X15238631Y-48170186D01*
X15142413Y-47918511D01*
X15083342Y-47628918D01*
X15064515Y-47388140D01*
X15063244Y-47303569D01*
X15074577Y-47069717D01*
X15123896Y-46786557D01*
X15210436Y-46538363D01*
X15332147Y-46327570D01*
X15486983Y-46156611D01*
X15672894Y-46027921D01*
X15887835Y-45943934D01*
X16129755Y-45907085D01*
X16194211Y-45905523D01*
X16414062Y-45929310D01*
X16634861Y-46014488D01*
X16744856Y-46094567D01*
X16882145Y-46278455D01*
X16970841Y-46486031D01*
X17026224Y-46648510D01*
X17351556Y-47700341D01*
X17440117Y-47902396D01*
X17626329Y-47997096D01*
X17834942Y-47880801D01*
X17922889Y-47675141D01*
X17954987Y-47452672D01*
X17958255Y-47342037D01*
X17944740Y-47121931D01*
X17886685Y-46902232D01*
X17839553Y-46818869D01*
X17661154Y-46685542D01*
X17520816Y-46648510D01*
X17520816Y-45785722D01*
X17783630Y-45819605D01*
X18012196Y-45902020D01*
X18206270Y-46032554D01*
X18365606Y-46210796D01*
X18489960Y-46436333D01*
X18579088Y-46708754D01*
X18622669Y-46943588D01*
X18646193Y-47204389D01*
X18650683Y-47392595D01*
X18640120Y-47646025D01*
X18608373Y-47875982D01*
X18544443Y-48114828D01*
X18451423Y-48322236D01*
X18348433Y-48475202D01*
X18177867Y-48644874D01*
X17973917Y-48771682D01*
X17745649Y-48851092D01*
X17502131Y-48878569D01*
X17271987Y-48855334D01*
X17045039Y-48769217D01*
X16862446Y-48619091D01*
X16723796Y-48404472D01*
X16651434Y-48211420D01*
X16331598Y-47095840D01*
X16252154Y-46890411D01*
X16068914Y-46786995D01*
X15864360Y-46895114D01*
X15774092Y-47111699D01*
X15756772Y-47298073D01*
X15778311Y-47544404D01*
X15856096Y-47751551D01*
X16034140Y-47900585D01*
X16212896Y-47933349D01*
X16212896Y-48784047D01*
G37*
G36*
X15063244Y-50406308D02*
G01*
X15063244Y-49524836D01*
X18580341Y-49524836D01*
X18580341Y-50406308D01*
X15063244Y-50406308D01*
G37*
G36*
X13867431Y-50406308D02*
G01*
X13867431Y-49524836D01*
X14655481Y-49524836D01*
X14655481Y-50406308D01*
X13867431Y-50406308D01*
G37*
G36*
X17178480Y-51098811D02*
G01*
X17442695Y-51140923D01*
X17686109Y-51209324D01*
X17906756Y-51302552D01*
X18102669Y-51419144D01*
X18322010Y-51608421D01*
X18489220Y-51833172D01*
X18599635Y-52089933D01*
X18648593Y-52375240D01*
X18650683Y-52450621D01*
X18632228Y-52672407D01*
X18558513Y-52893557D01*
X18416522Y-53101067D01*
X18257598Y-53260827D01*
X18159389Y-53345282D01*
X18619909Y-53345282D01*
X18858914Y-53305477D01*
X19053326Y-53192827D01*
X19193897Y-53017480D01*
X19271375Y-52789581D01*
X19283761Y-52639665D01*
X19252829Y-52402779D01*
X19147721Y-52206897D01*
X18949585Y-52074905D01*
X18904574Y-52060443D01*
X18904574Y-51153691D01*
X19122031Y-51186434D01*
X19329126Y-51293510D01*
X19505673Y-51465276D01*
X19523363Y-51486716D01*
X19652012Y-51679311D01*
X19748325Y-51901104D01*
X19805510Y-52114820D01*
X19839598Y-52350647D01*
X19850893Y-52608890D01*
X19838585Y-52874789D01*
X19802279Y-53119112D01*
X19742897Y-53340859D01*
X19629423Y-53599677D01*
X19478758Y-53814214D01*
X19293091Y-53982099D01*
X19074613Y-54100963D01*
X18825513Y-54168436D01*
X18619909Y-54183890D01*
X15063244Y-54183890D01*
X15063244Y-53345282D01*
X15586413Y-53345282D01*
X15412018Y-53204234D01*
X15251617Y-53029456D01*
X15139230Y-52840054D01*
X15081196Y-52634169D01*
X15800736Y-52634169D01*
X15846952Y-52855286D01*
X15978035Y-53045917D01*
X16182641Y-53198062D01*
X16401124Y-53289680D01*
X16656218Y-53344389D01*
X16882243Y-53358471D01*
X17102671Y-53344904D01*
X17348556Y-53291636D01*
X17556707Y-53201217D01*
X17749453Y-53048493D01*
X17871604Y-52853110D01*
X17914291Y-52620980D01*
X17856524Y-52387015D01*
X17692610Y-52195247D01*
X17478303Y-52072045D01*
X17254443Y-52003224D01*
X16994901Y-51969063D01*
X16882243Y-51965921D01*
X16652747Y-51978361D01*
X16395854Y-52027091D01*
X16177620Y-52109566D01*
X15974847Y-52248368D01*
X15832302Y-52457917D01*
X15800736Y-52634169D01*
X15081196Y-52634169D01*
X15071795Y-52600816D01*
X15063244Y-52470404D01*
X15090790Y-52239818D01*
X15169856Y-52009747D01*
X15295084Y-51792659D01*
X15438314Y-51623158D01*
X15461116Y-51601022D01*
X15635849Y-51453427D01*
X15829866Y-51330233D01*
X16042489Y-51231693D01*
X16273039Y-51158057D01*
X16520835Y-51109578D01*
X16785200Y-51086506D01*
X16895432Y-51084448D01*
X17178480Y-51098811D01*
G37*
G36*
X15063244Y-55069759D02*
G01*
X18580341Y-55069759D01*
X18580341Y-55951231D01*
X16470083Y-55951231D01*
X16235103Y-55989749D01*
X16042990Y-56100333D01*
X15903477Y-56275528D01*
X15826296Y-56507879D01*
X15813925Y-56663443D01*
X15844250Y-56884425D01*
X15971507Y-57088792D01*
X16166785Y-57195129D01*
X16400156Y-57230021D01*
X16438210Y-57230575D01*
X18580341Y-57230575D01*
X18580341Y-58112048D01*
X16251364Y-58112048D01*
X15980682Y-58093052D01*
X15742999Y-58036743D01*
X15539268Y-57944138D01*
X15333800Y-57778890D01*
X15184732Y-57560508D01*
X15107337Y-57348881D01*
X15068183Y-57105537D01*
X15063244Y-56972288D01*
X15080987Y-56728620D01*
X15135636Y-56513207D01*
X15248880Y-56292616D01*
X15418639Y-56099459D01*
X15611692Y-55951231D01*
X15063244Y-55951231D01*
X15063244Y-55069759D01*
G37*
D11*
G36*
X48408108Y-6572700D02*
G01*
X48408108Y-5427885D01*
X48898450Y-5427885D01*
X48898450Y-6078939D01*
X49042889Y-6053503D01*
X49169295Y-6000099D01*
X49254752Y-5938060D01*
X49356250Y-5834740D01*
X49435898Y-5713676D01*
X49491678Y-5579505D01*
X49521570Y-5436867D01*
X49526252Y-5353342D01*
X49507448Y-5181067D01*
X49452885Y-5024300D01*
X49365335Y-4885340D01*
X49247571Y-4766488D01*
X49102367Y-4670043D01*
X48977124Y-4613799D01*
X48839175Y-4572423D01*
X48689690Y-4546886D01*
X48529839Y-4538157D01*
X48365107Y-4545942D01*
X48213699Y-4568983D01*
X48076243Y-4606815D01*
X47915759Y-4679460D01*
X47782687Y-4776463D01*
X47678519Y-4896720D01*
X47604745Y-5039124D01*
X47562855Y-5202570D01*
X47553258Y-5338297D01*
X47564094Y-5485064D01*
X47596343Y-5618944D01*
X47657741Y-5752799D01*
X47723545Y-5843684D01*
X47827738Y-5938254D01*
X47954497Y-6001184D01*
X48005987Y-6020125D01*
X48005987Y-6572700D01*
X47847009Y-6542303D01*
X47700247Y-6491379D01*
X47566448Y-6420895D01*
X47446358Y-6331817D01*
X47340726Y-6225113D01*
X47250298Y-6101750D01*
X47175821Y-5962694D01*
X47118044Y-5808913D01*
X47077712Y-5641374D01*
X47055573Y-5461043D01*
X47051290Y-5334194D01*
X47058318Y-5182958D01*
X47079074Y-5038314D01*
X47113073Y-4900699D01*
X47159824Y-4770548D01*
X47252798Y-4590276D01*
X47371723Y-4429257D01*
X47514953Y-4288966D01*
X47680841Y-4170877D01*
X47803208Y-4105213D01*
X47934425Y-4050508D01*
X48074006Y-4007200D01*
X48221461Y-3975725D01*
X48376304Y-3956520D01*
X48538046Y-3950021D01*
X48696550Y-3956553D01*
X48849053Y-3975801D01*
X48994973Y-4007241D01*
X49133726Y-4050348D01*
X49264730Y-4104599D01*
X49387400Y-4169470D01*
X49554507Y-4285543D01*
X49699585Y-4422563D01*
X49820667Y-4578762D01*
X49915786Y-4752372D01*
X49982973Y-4941625D01*
X50011275Y-5075611D01*
X50025705Y-5215240D01*
X50027536Y-5287006D01*
X50021031Y-5425405D01*
X49994014Y-5583365D01*
X49944988Y-5726470D01*
X49872859Y-5856709D01*
X49776531Y-5976069D01*
X49654908Y-6086538D01*
X49569337Y-6149379D01*
X49945471Y-6219818D01*
X49945471Y-6572700D01*
X48408108Y-6572700D01*
G37*
G36*
X47795352Y-7644340D02*
G01*
X47795352Y-7095869D01*
X49983768Y-7095869D01*
X49983768Y-7644340D01*
X47795352Y-7644340D01*
G37*
G36*
X47051290Y-7644340D02*
G01*
X47051290Y-7095869D01*
X47541632Y-7095869D01*
X47541632Y-7644340D01*
X47051290Y-7644340D01*
G37*
G36*
X47868527Y-9101689D02*
G01*
X47868527Y-8795994D01*
X47300223Y-8795994D01*
X47300223Y-8246839D01*
X47868527Y-8246839D01*
X47868527Y-7976706D01*
X48233035Y-7976706D01*
X48233035Y-8246839D01*
X49530355Y-8246839D01*
X49674119Y-8259793D01*
X49814127Y-8309719D01*
X49932888Y-8415780D01*
X49996687Y-8548045D01*
X50023205Y-8687674D01*
X50027536Y-8784368D01*
X50021230Y-8922744D01*
X49995335Y-9063931D01*
X49984452Y-9101689D01*
X49600795Y-9101689D01*
X49612421Y-8976538D01*
X49579205Y-8842611D01*
X49445656Y-8797777D01*
X49381953Y-8795994D01*
X48233035Y-8795994D01*
X48233035Y-9101689D01*
X47868527Y-9101689D01*
G37*
G36*
X48635840Y-11214194D02*
G01*
X49983768Y-11214194D01*
X49983768Y-11802331D01*
X47051290Y-11802331D01*
X47051290Y-11210090D01*
X48145498Y-11210090D01*
X48145498Y-10081005D01*
X47051290Y-10081005D01*
X47051290Y-9492868D01*
X49983768Y-9492868D01*
X49983768Y-10081005D01*
X48635840Y-10081005D01*
X48635840Y-11214194D01*
G37*
G36*
X49983768Y-14176078D02*
G01*
X47795352Y-14176078D01*
X47795352Y-13626922D01*
X49166531Y-13626922D01*
X49306133Y-13602956D01*
X49435740Y-13520928D01*
X49515478Y-13406553D01*
X49556818Y-13257278D01*
X49561130Y-13183768D01*
X49542827Y-13046352D01*
X49465216Y-12919448D01*
X49344746Y-12853518D01*
X49199272Y-12831913D01*
X49175422Y-12831570D01*
X47795352Y-12831570D01*
X47795352Y-12282414D01*
X49290997Y-12282414D01*
X49458715Y-12294263D01*
X49606020Y-12329378D01*
X49732312Y-12387108D01*
X49859712Y-12490086D01*
X49952165Y-12626120D01*
X50000177Y-12757894D01*
X50024471Y-12909364D01*
X50027536Y-12992282D01*
X50016559Y-13143581D01*
X49982709Y-13277416D01*
X49912466Y-13414551D01*
X49807022Y-13534696D01*
X49686964Y-13626922D01*
X49983768Y-13626922D01*
X49983768Y-14176078D01*
G37*
G36*
X49983768Y-15228569D02*
G01*
X49764926Y-15228569D01*
X49863143Y-15323762D01*
X49949349Y-15453011D01*
X49999824Y-15586124D01*
X50024983Y-15739903D01*
X50027536Y-15812603D01*
X50015112Y-15951509D01*
X49961858Y-16124488D01*
X49870199Y-16280669D01*
X49778566Y-16384930D01*
X49669118Y-16476713D01*
X49543477Y-16554719D01*
X49403267Y-16617651D01*
X49250109Y-16664210D01*
X49085627Y-16693097D01*
X48911444Y-16703014D01*
X48751954Y-16694129D01*
X48595115Y-16668285D01*
X48444442Y-16626699D01*
X48303453Y-16570587D01*
X48175664Y-16501169D01*
X48136608Y-16475282D01*
X48027914Y-16382500D01*
X47937270Y-16270235D01*
X47867003Y-16142948D01*
X47819437Y-16005104D01*
X47796900Y-15861165D01*
X47795352Y-15812603D01*
X47804333Y-15691556D01*
X48254235Y-15691556D01*
X48281919Y-15834530D01*
X48360877Y-15956542D01*
X48484968Y-16053075D01*
X48618426Y-16110797D01*
X48775409Y-16145074D01*
X48915547Y-16153859D01*
X49054184Y-16145242D01*
X49209430Y-16111497D01*
X49341363Y-16054400D01*
X49463994Y-15958345D01*
X49541996Y-15836054D01*
X49569337Y-15691556D01*
X49542622Y-15545471D01*
X49465544Y-15422747D01*
X49342701Y-15326981D01*
X49208690Y-15270363D01*
X49048752Y-15237047D01*
X48903921Y-15228569D01*
X48765461Y-15237187D01*
X48610830Y-15270947D01*
X48479775Y-15328085D01*
X48358280Y-15424250D01*
X48281198Y-15546741D01*
X48254235Y-15691556D01*
X47804333Y-15691556D01*
X47805833Y-15671346D01*
X47845073Y-15526655D01*
X47914263Y-15401821D01*
X48014304Y-15294952D01*
X48105150Y-15228569D01*
X47051290Y-15228569D01*
X47051290Y-14680097D01*
X49983768Y-14680097D01*
X49983768Y-15228569D01*
G37*
G36*
X49412044Y-17653608D02*
G01*
X49412044Y-17065471D01*
X49983768Y-17065471D01*
X49983768Y-17653608D01*
X49412044Y-17653608D01*
G37*
G36*
X48620111Y-19950077D02*
G01*
X48480774Y-19931234D01*
X48312715Y-19882255D01*
X48166036Y-19807195D01*
X48041963Y-19707346D01*
X47941723Y-19583997D01*
X47866541Y-19438439D01*
X47817643Y-19271962D01*
X47798957Y-19134151D01*
X47795352Y-19036413D01*
X47806220Y-18865104D01*
X47838444Y-18708477D01*
X47891452Y-18567006D01*
X47964672Y-18441165D01*
X48057534Y-18331426D01*
X48169466Y-18238263D01*
X48299897Y-18162149D01*
X48448254Y-18103558D01*
X48613968Y-18062963D01*
X48796466Y-18040837D01*
X48927173Y-18036580D01*
X49114395Y-18046124D01*
X49285972Y-18074416D01*
X49441301Y-18120945D01*
X49579775Y-18185200D01*
X49700790Y-18266671D01*
X49803740Y-18364848D01*
X49888020Y-18479220D01*
X49953025Y-18609276D01*
X49998150Y-18754507D01*
X50022790Y-18914400D01*
X50027536Y-19028890D01*
X50019278Y-19169069D01*
X49983365Y-19341810D01*
X49920410Y-19496775D01*
X49831959Y-19632233D01*
X49719561Y-19746454D01*
X49584760Y-19837706D01*
X49429104Y-19904258D01*
X49254141Y-19944379D01*
X49207564Y-19950077D01*
X49207564Y-19424857D01*
X49343474Y-19382240D01*
X49474142Y-19306876D01*
X49558704Y-19189493D01*
X49584755Y-19049150D01*
X49585066Y-19028890D01*
X49559690Y-18884636D01*
X49485637Y-18766356D01*
X49366018Y-18676081D01*
X49233771Y-18623706D01*
X49073840Y-18593362D01*
X48927173Y-18585736D01*
X48779669Y-18592874D01*
X48643192Y-18613604D01*
X48507308Y-18651895D01*
X48417683Y-18691737D01*
X48309599Y-18785552D01*
X48250057Y-18921777D01*
X48238506Y-19032310D01*
X48259279Y-19179141D01*
X48337520Y-19300302D01*
X48462654Y-19376602D01*
X48594708Y-19418830D01*
X48620111Y-19424857D01*
X48620111Y-19950077D01*
G37*
G36*
X49099054Y-20228482D02*
G01*
X49271695Y-20258991D01*
X49428604Y-20308988D01*
X49569023Y-20377777D01*
X49692189Y-20464660D01*
X49797342Y-20568943D01*
X49883722Y-20689927D01*
X49950568Y-20826918D01*
X49997118Y-20979217D01*
X50022613Y-21146129D01*
X50027536Y-21265178D01*
X50016514Y-21440480D01*
X49984007Y-21601976D01*
X49930853Y-21748916D01*
X49857891Y-21880549D01*
X49765960Y-21996125D01*
X49655897Y-22094893D01*
X49528541Y-22176102D01*
X49384732Y-22239001D01*
X49225306Y-22282841D01*
X49051104Y-22306871D01*
X48927173Y-22311514D01*
X48734751Y-22301383D01*
X48558360Y-22271361D01*
X48398634Y-22222007D01*
X48256203Y-22153878D01*
X48131700Y-22067533D01*
X48025759Y-21963528D01*
X47939009Y-21842423D01*
X47872085Y-21704774D01*
X47825619Y-21551139D01*
X47800241Y-21382078D01*
X47795518Y-21265178D01*
X48238506Y-21265178D01*
X48266027Y-21423115D01*
X48345292Y-21555240D01*
X48471349Y-21657955D01*
X48608570Y-21718489D01*
X48771985Y-21754020D01*
X48919651Y-21763042D01*
X49060947Y-21753711D01*
X49219054Y-21717206D01*
X49353319Y-21655525D01*
X49478028Y-21551934D01*
X49557297Y-21420322D01*
X49585066Y-21265178D01*
X49557594Y-21108510D01*
X49478677Y-20976618D01*
X49353562Y-20873505D01*
X49217795Y-20812449D01*
X49056627Y-20776476D01*
X48911444Y-20767313D01*
X48766487Y-20776476D01*
X48605523Y-20812449D01*
X48469888Y-20873505D01*
X48344859Y-20976618D01*
X48265973Y-21108510D01*
X48238506Y-21265178D01*
X47795518Y-21265178D01*
X47795352Y-21261074D01*
X47806485Y-21085857D01*
X47839336Y-20924591D01*
X47893085Y-20777995D01*
X47966908Y-20646785D01*
X48059985Y-20531677D01*
X48171495Y-20433388D01*
X48300615Y-20352635D01*
X48446523Y-20290136D01*
X48608399Y-20246606D01*
X48785421Y-20222762D01*
X48911444Y-20218157D01*
X49099054Y-20228482D01*
G37*
G36*
X47795352Y-22709532D02*
G01*
X49983768Y-22709532D01*
X49983768Y-23258688D01*
X48670718Y-23258688D01*
X48519578Y-23278425D01*
X48385540Y-23346763D01*
X48298120Y-23459756D01*
X48262897Y-23613045D01*
X48262442Y-23634822D01*
X48287110Y-23772797D01*
X48378381Y-23887336D01*
X48511283Y-23931673D01*
X48542833Y-23932993D01*
X49983768Y-23932993D01*
X49983768Y-24482149D01*
X48687131Y-24482149D01*
X48549660Y-24496701D01*
X48420095Y-24548783D01*
X48316921Y-24651021D01*
X48266616Y-24794644D01*
X48262442Y-24858283D01*
X48287110Y-24995828D01*
X48378381Y-25110150D01*
X48511283Y-25154451D01*
X48542833Y-25155771D01*
X49983768Y-25155771D01*
X49983768Y-25704926D01*
X48454612Y-25704926D01*
X48306905Y-25693315D01*
X48146261Y-25647116D01*
X48013791Y-25567393D01*
X47911125Y-25455944D01*
X47839890Y-25314570D01*
X47806625Y-25181135D01*
X47795352Y-25030621D01*
X47805508Y-24887254D01*
X47844142Y-24739320D01*
X47913461Y-24608272D01*
X48015399Y-24489986D01*
X48109253Y-24411026D01*
X47990777Y-24329056D01*
X47898648Y-24219321D01*
X47834671Y-24085472D01*
X47800649Y-23931160D01*
X47795352Y-23835199D01*
X47789047Y-23686736D01*
X47823955Y-23538672D01*
X47893279Y-23420213D01*
X48000596Y-23304823D01*
X48058646Y-23254585D01*
X47795352Y-23254585D01*
X47795352Y-22709532D01*
G37*
G36*
X47129937Y-26775199D02*
G01*
X49983768Y-25967536D01*
X49983768Y-26230146D01*
X47129937Y-27037809D01*
X47129937Y-26775199D01*
G37*
G36*
X49983768Y-29232379D02*
G01*
X49983768Y-29820516D01*
X47051290Y-29820516D01*
X47051290Y-29232379D01*
X49047536Y-29232379D01*
X47051290Y-28099190D01*
X47051290Y-27495324D01*
X49983768Y-27495324D01*
X49983768Y-28083461D01*
X47956064Y-28083461D01*
X49983768Y-29232379D01*
G37*
G36*
X47795352Y-30868904D02*
G01*
X47795352Y-30320432D01*
X49983768Y-30320432D01*
X49983768Y-30868904D01*
X47795352Y-30868904D01*
G37*
G36*
X47051290Y-30868904D02*
G01*
X47051290Y-30320432D01*
X47541632Y-30320432D01*
X47541632Y-30868904D01*
X47051290Y-30868904D01*
G37*
G36*
X48620111Y-33192728D02*
G01*
X48480774Y-33173885D01*
X48312715Y-33124906D01*
X48166036Y-33049847D01*
X48041963Y-32949998D01*
X47941723Y-32826649D01*
X47866541Y-32681091D01*
X47817643Y-32514613D01*
X47798957Y-32376803D01*
X47795352Y-32279065D01*
X47806220Y-32107755D01*
X47838444Y-31951129D01*
X47891452Y-31809658D01*
X47964672Y-31683817D01*
X48057534Y-31574078D01*
X48169466Y-31480915D01*
X48299897Y-31404801D01*
X48448254Y-31346210D01*
X48613968Y-31305614D01*
X48796466Y-31283488D01*
X48927173Y-31279232D01*
X49114395Y-31288776D01*
X49285972Y-31317068D01*
X49441301Y-31363597D01*
X49579775Y-31427852D01*
X49700790Y-31509323D01*
X49803740Y-31607500D01*
X49888020Y-31721872D01*
X49953025Y-31851928D01*
X49998150Y-31997158D01*
X50022790Y-32157052D01*
X50027536Y-32271542D01*
X50019278Y-32411721D01*
X49983365Y-32584462D01*
X49920410Y-32739427D01*
X49831959Y-32874885D01*
X49719561Y-32989106D01*
X49584760Y-33080357D01*
X49429104Y-33146910D01*
X49254141Y-33187031D01*
X49207564Y-33192728D01*
X49207564Y-32667508D01*
X49343474Y-32624891D01*
X49474142Y-32549528D01*
X49558704Y-32432144D01*
X49584755Y-32291802D01*
X49585066Y-32271542D01*
X49559690Y-32127288D01*
X49485637Y-32009008D01*
X49366018Y-31918733D01*
X49233771Y-31866358D01*
X49073840Y-31836013D01*
X48927173Y-31828388D01*
X48779669Y-31835526D01*
X48643192Y-31856256D01*
X48507308Y-31894547D01*
X48417683Y-31934389D01*
X48309599Y-32028204D01*
X48250057Y-32164429D01*
X48238506Y-32274961D01*
X48259279Y-32421793D01*
X48337520Y-32542953D01*
X48462654Y-32619254D01*
X48594708Y-32661482D01*
X48620111Y-32667508D01*
X48620111Y-33192728D01*
G37*
G36*
X47051290Y-33575701D02*
G01*
X49983768Y-33575701D01*
X49983768Y-34124173D01*
X48687131Y-34124173D01*
X48535622Y-34148392D01*
X48411301Y-34216612D01*
X48320739Y-34322175D01*
X48270508Y-34458423D01*
X48262442Y-34547495D01*
X48287632Y-34689488D01*
X48370790Y-34803485D01*
X48394431Y-34821730D01*
X48520776Y-34875624D01*
X48663196Y-34884647D01*
X49983768Y-34884647D01*
X49983768Y-35433803D01*
X48534626Y-35433803D01*
X48392121Y-35426342D01*
X48246401Y-35398606D01*
X48106050Y-35341443D01*
X47992587Y-35256686D01*
X47956748Y-35217697D01*
X47880915Y-35103651D01*
X47827864Y-34970708D01*
X47799602Y-34826263D01*
X47795352Y-34743768D01*
X47806685Y-34599152D01*
X47849394Y-34448756D01*
X47925249Y-34316129D01*
X48017756Y-34215030D01*
X48136608Y-34124173D01*
X47051290Y-34124173D01*
X47051290Y-33575701D01*
G37*
G36*
X49099054Y-35853772D02*
G01*
X49271695Y-35884281D01*
X49428604Y-35934278D01*
X49569023Y-36003066D01*
X49692189Y-36089950D01*
X49797342Y-36194232D01*
X49883722Y-36315217D01*
X49950568Y-36452207D01*
X49997118Y-36604506D01*
X50022613Y-36771418D01*
X50027536Y-36890467D01*
X50016514Y-37065769D01*
X49984007Y-37227266D01*
X49930853Y-37374206D01*
X49857891Y-37505839D01*
X49765960Y-37621415D01*
X49655897Y-37720182D01*
X49528541Y-37801391D01*
X49384732Y-37864291D01*
X49225306Y-37908131D01*
X49051104Y-37932160D01*
X48927173Y-37936804D01*
X48734751Y-37926673D01*
X48558360Y-37896651D01*
X48398634Y-37847297D01*
X48256203Y-37779168D01*
X48131700Y-37692822D01*
X48025759Y-37588818D01*
X47939009Y-37467712D01*
X47872085Y-37330063D01*
X47825619Y-37176429D01*
X47800241Y-37007367D01*
X47795518Y-36890467D01*
X48238506Y-36890467D01*
X48266027Y-37048405D01*
X48345292Y-37180530D01*
X48471349Y-37283245D01*
X48608570Y-37343779D01*
X48771985Y-37379309D01*
X48919651Y-37388332D01*
X49060947Y-37379001D01*
X49219054Y-37342496D01*
X49353319Y-37280815D01*
X49478028Y-37177224D01*
X49557297Y-37045612D01*
X49585066Y-36890467D01*
X49557594Y-36733799D01*
X49478677Y-36601907D01*
X49353562Y-36498794D01*
X49217795Y-36437739D01*
X49056627Y-36401766D01*
X48911444Y-36392603D01*
X48766487Y-36401766D01*
X48605523Y-36437739D01*
X48469888Y-36498794D01*
X48344859Y-36601907D01*
X48265973Y-36733799D01*
X48238506Y-36890467D01*
X47795518Y-36890467D01*
X47795352Y-36886364D01*
X47806485Y-36711146D01*
X47839336Y-36549881D01*
X47893085Y-36403285D01*
X47966908Y-36272074D01*
X48059985Y-36156966D01*
X48171495Y-36058678D01*
X48300615Y-35977925D01*
X48446523Y-35915425D01*
X48608399Y-35871895D01*
X48785421Y-35848052D01*
X48911444Y-35843447D01*
X49099054Y-35853772D01*
G37*
G36*
X47051290Y-38911333D02*
G01*
X47051290Y-38362861D01*
X49983768Y-38362861D01*
X49983768Y-38911333D01*
X47051290Y-38911333D01*
G37*
G36*
X49562247Y-39316625D02*
G01*
X49709023Y-39369405D01*
X49831620Y-39453949D01*
X49927062Y-39567453D01*
X49992375Y-39707116D01*
X50024587Y-39870136D01*
X50027536Y-39941256D01*
X50013411Y-40092375D01*
X49970693Y-40237249D01*
X49898867Y-40376305D01*
X49813742Y-40491192D01*
X49725945Y-40584103D01*
X49867724Y-40591739D01*
X49983768Y-40647020D01*
X49983768Y-41242679D01*
X49870928Y-41242679D01*
X49762533Y-41152868D01*
X49622233Y-41117623D01*
X49612421Y-41117529D01*
X48445038Y-41117529D01*
X48293815Y-41103776D01*
X48162339Y-41062637D01*
X48025959Y-40972986D01*
X47920884Y-40841194D01*
X47859532Y-40705661D01*
X47818505Y-40543573D01*
X47801149Y-40404691D01*
X47795352Y-40251053D01*
X47801772Y-40097286D01*
X47821034Y-39957925D01*
X47866699Y-39794430D01*
X47935209Y-39656324D01*
X48026572Y-39543478D01*
X48140795Y-39455765D01*
X48277886Y-39393057D01*
X48437854Y-39355224D01*
X48526420Y-39345596D01*
X48526420Y-39874920D01*
X48389686Y-39909060D01*
X48285368Y-40001617D01*
X48243957Y-40148782D01*
X48238506Y-40262679D01*
X48251692Y-40401806D01*
X48312718Y-40528201D01*
X48448457Y-40580684D01*
X48938115Y-40580684D01*
X49087201Y-40580684D01*
X49225760Y-40569301D01*
X49364174Y-40526397D01*
X49485059Y-40437830D01*
X49559606Y-40309956D01*
X49584538Y-40170791D01*
X49585066Y-40145052D01*
X49562594Y-40007507D01*
X49479512Y-39893185D01*
X49344489Y-39847896D01*
X49329979Y-39847564D01*
X49188524Y-39880333D01*
X49094979Y-39987527D01*
X49049235Y-40119847D01*
X49040013Y-40160781D01*
X49004452Y-40348848D01*
X48976271Y-40483031D01*
X48938115Y-40580684D01*
X48448457Y-40580684D01*
X48577202Y-40530141D01*
X48611905Y-40486308D01*
X48659349Y-40349579D01*
X48682921Y-40210260D01*
X48693970Y-40140949D01*
X48732951Y-39921423D01*
X48765911Y-39774292D01*
X48826477Y-39618570D01*
X48908968Y-39493925D01*
X49013825Y-39400091D01*
X49141484Y-39336802D01*
X49292385Y-39303792D01*
X49394263Y-39298409D01*
X49562247Y-39316625D01*
G37*
G36*
X48510690Y-43340139D02*
G01*
X48352327Y-43321707D01*
X48211386Y-43272948D01*
X48089006Y-43195210D01*
X47986325Y-43089839D01*
X47904482Y-42958182D01*
X47844613Y-42801584D01*
X47807857Y-42621392D01*
X47796142Y-42471575D01*
X47795352Y-42418953D01*
X47802403Y-42273445D01*
X47833091Y-42097257D01*
X47886937Y-41942825D01*
X47962669Y-41811665D01*
X48059011Y-41705290D01*
X48174690Y-41625216D01*
X48308430Y-41572958D01*
X48458959Y-41550029D01*
X48499064Y-41549058D01*
X48635860Y-41563859D01*
X48773247Y-41616858D01*
X48841688Y-41666685D01*
X48927112Y-41781105D01*
X48982301Y-41910263D01*
X49016762Y-42011361D01*
X49219190Y-42665834D01*
X49274295Y-42791556D01*
X49390160Y-42850481D01*
X49519963Y-42778119D01*
X49574686Y-42650153D01*
X49594659Y-42511728D01*
X49596692Y-42442889D01*
X49588282Y-42305934D01*
X49552160Y-42169232D01*
X49522833Y-42117362D01*
X49411829Y-42034403D01*
X49324508Y-42011361D01*
X49324508Y-41474515D01*
X49488036Y-41495597D01*
X49630255Y-41546878D01*
X49751012Y-41628099D01*
X49850155Y-41739005D01*
X49927531Y-41879340D01*
X49982988Y-42048846D01*
X50010105Y-42194965D01*
X50024742Y-42357241D01*
X50027536Y-42474347D01*
X50020963Y-42632037D01*
X50001209Y-42775121D01*
X49961431Y-42923736D01*
X49903552Y-43052790D01*
X49839469Y-43147969D01*
X49733340Y-43253543D01*
X49606437Y-43332446D01*
X49464404Y-43381856D01*
X49312882Y-43398953D01*
X49169681Y-43384496D01*
X49028468Y-43330912D01*
X48914855Y-43237500D01*
X48828584Y-43103959D01*
X48783558Y-42983838D01*
X48584549Y-42289700D01*
X48535118Y-42161877D01*
X48421102Y-42097529D01*
X48293824Y-42164803D01*
X48237657Y-42299568D01*
X48226880Y-42415534D01*
X48240282Y-42568806D01*
X48288682Y-42697698D01*
X48399465Y-42790429D01*
X48510690Y-42810816D01*
X48510690Y-43340139D01*
G37*
G36*
X48583182Y-44766713D02*
G01*
X48583182Y-43700544D01*
X49112505Y-43700544D01*
X49112505Y-44766713D01*
X48583182Y-44766713D01*
G37*
G36*
X47051290Y-45804843D02*
G01*
X47051290Y-45216706D01*
X49983768Y-45216706D01*
X49983768Y-47173287D01*
X49494110Y-47173287D01*
X49494110Y-45804843D01*
X47051290Y-45804843D01*
G37*
G36*
X48583182Y-48413161D02*
G01*
X48583182Y-47346992D01*
X49112505Y-47346992D01*
X49112505Y-48413161D01*
X48583182Y-48413161D01*
G37*
G36*
X47051290Y-50006601D02*
G01*
X49189099Y-50006601D01*
X49333815Y-49985572D01*
X49459584Y-49902575D01*
X49517612Y-49777471D01*
X49526252Y-49688597D01*
X49504689Y-49544961D01*
X49412894Y-49428332D01*
X49282742Y-49381456D01*
X49149434Y-49371277D01*
X48871779Y-49371277D01*
X48871779Y-48783140D01*
X49156957Y-48783140D01*
X49314917Y-48790754D01*
X49451816Y-48814335D01*
X49589531Y-48863507D01*
X49708789Y-48937683D01*
X49800488Y-49022498D01*
X49888044Y-49138469D01*
X49954750Y-49269890D01*
X50000177Y-49416503D01*
X50021852Y-49554069D01*
X50027536Y-49676971D01*
X50019639Y-49834545D01*
X49996165Y-49978478D01*
X49941204Y-50148468D01*
X49859912Y-50292523D01*
X49753067Y-50409683D01*
X49621446Y-50498986D01*
X49465826Y-50559469D01*
X49286985Y-50590171D01*
X49189099Y-50594054D01*
X47051290Y-50594054D01*
X47051290Y-50006601D01*
G37*
G36*
X49099054Y-51014023D02*
G01*
X49271695Y-51044532D01*
X49428604Y-51094529D01*
X49569023Y-51163317D01*
X49692189Y-51250201D01*
X49797342Y-51354484D01*
X49883722Y-51475468D01*
X49950568Y-51612458D01*
X49997118Y-51764758D01*
X50022613Y-51931670D01*
X50027536Y-52050719D01*
X50016514Y-52226021D01*
X49984007Y-52387517D01*
X49930853Y-52534457D01*
X49857891Y-52666090D01*
X49765960Y-52781666D01*
X49655897Y-52880434D01*
X49528541Y-52961643D01*
X49384732Y-53024542D01*
X49225306Y-53068382D01*
X49051104Y-53092412D01*
X48927173Y-53097055D01*
X48734751Y-53086924D01*
X48558360Y-53056902D01*
X48398634Y-53007548D01*
X48256203Y-52939419D01*
X48131700Y-52853074D01*
X48025759Y-52749069D01*
X47939009Y-52627963D01*
X47872085Y-52490314D01*
X47825619Y-52336680D01*
X47800241Y-52167618D01*
X47795518Y-52050719D01*
X48238506Y-52050719D01*
X48266027Y-52208656D01*
X48345292Y-52340781D01*
X48471349Y-52443496D01*
X48608570Y-52504030D01*
X48771985Y-52539560D01*
X48919651Y-52548583D01*
X49060947Y-52539252D01*
X49219054Y-52502747D01*
X49353319Y-52441066D01*
X49478028Y-52337475D01*
X49557297Y-52205863D01*
X49585066Y-52050719D01*
X49557594Y-51894051D01*
X49478677Y-51762159D01*
X49353562Y-51659046D01*
X49217795Y-51597990D01*
X49056627Y-51562017D01*
X48911444Y-51552854D01*
X48766487Y-51562017D01*
X48605523Y-51597990D01*
X48469888Y-51659046D01*
X48344859Y-51762159D01*
X48265973Y-51894051D01*
X48238506Y-52050719D01*
X47795518Y-52050719D01*
X47795352Y-52046615D01*
X47806485Y-51871398D01*
X47839336Y-51710132D01*
X47893085Y-51563536D01*
X47966908Y-51432325D01*
X48059985Y-51317217D01*
X48171495Y-51218929D01*
X48300615Y-51138176D01*
X48446523Y-51075677D01*
X48608399Y-51032147D01*
X48785421Y-51008303D01*
X48911444Y-51003698D01*
X49099054Y-51014023D01*
G37*
G36*
X47051290Y-53523112D02*
G01*
X49983768Y-53523112D01*
X49983768Y-54071584D01*
X48687131Y-54071584D01*
X48535622Y-54095803D01*
X48411301Y-54164023D01*
X48320739Y-54269586D01*
X48270508Y-54405834D01*
X48262442Y-54494906D01*
X48287632Y-54636899D01*
X48370790Y-54750896D01*
X48394431Y-54769141D01*
X48520776Y-54823035D01*
X48663196Y-54832058D01*
X49983768Y-54832058D01*
X49983768Y-55381214D01*
X48534626Y-55381214D01*
X48392121Y-55373753D01*
X48246401Y-55346017D01*
X48106050Y-55288854D01*
X47992587Y-55204097D01*
X47956748Y-55165108D01*
X47880915Y-55051062D01*
X47827864Y-54918119D01*
X47799602Y-54773675D01*
X47795352Y-54691179D01*
X47806685Y-54546563D01*
X47849394Y-54396167D01*
X47925249Y-54263540D01*
X48017756Y-54162441D01*
X48136608Y-54071584D01*
X47051290Y-54071584D01*
X47051290Y-53523112D01*
G37*
G36*
X47795352Y-55900963D02*
G01*
X49983768Y-55900963D01*
X49983768Y-56449435D01*
X48670718Y-56449435D01*
X48524508Y-56473401D01*
X48404971Y-56542209D01*
X48318163Y-56651219D01*
X48270140Y-56795793D01*
X48262442Y-56892589D01*
X48281311Y-57030089D01*
X48360493Y-57157250D01*
X48481999Y-57223416D01*
X48627208Y-57245126D01*
X48650886Y-57245471D01*
X49983768Y-57245471D01*
X49983768Y-57793943D01*
X48534626Y-57793943D01*
X48366202Y-57782123D01*
X48218310Y-57747086D01*
X48091544Y-57689465D01*
X47963697Y-57586645D01*
X47870944Y-57450763D01*
X47822788Y-57319083D01*
X47798425Y-57167669D01*
X47795352Y-57084759D01*
X47806392Y-56933143D01*
X47840396Y-56799108D01*
X47910859Y-56661852D01*
X48016486Y-56541665D01*
X48136608Y-56449435D01*
X47795352Y-56449435D01*
X47795352Y-55900963D01*
G37*
G36*
X48510690Y-60026811D02*
G01*
X48352327Y-60008378D01*
X48211386Y-59959619D01*
X48089006Y-59881882D01*
X47986325Y-59776511D01*
X47904482Y-59644853D01*
X47844613Y-59488255D01*
X47807857Y-59308063D01*
X47796142Y-59158246D01*
X47795352Y-59105624D01*
X47802403Y-58960116D01*
X47833091Y-58783928D01*
X47886937Y-58629496D01*
X47962669Y-58498336D01*
X48059011Y-58391961D01*
X48174690Y-58311888D01*
X48308430Y-58259629D01*
X48458959Y-58236701D01*
X48499064Y-58235729D01*
X48635860Y-58250530D01*
X48773247Y-58303529D01*
X48841688Y-58353356D01*
X48927112Y-58467776D01*
X48982301Y-58596934D01*
X49016762Y-58698032D01*
X49219190Y-59352505D01*
X49274295Y-59478228D01*
X49390160Y-59537153D01*
X49519963Y-59464791D01*
X49574686Y-59336825D01*
X49594659Y-59198400D01*
X49596692Y-59129560D01*
X49588282Y-58992605D01*
X49552160Y-58855903D01*
X49522833Y-58804033D01*
X49411829Y-58721074D01*
X49324508Y-58698032D01*
X49324508Y-58161186D01*
X49488036Y-58182269D01*
X49630255Y-58233549D01*
X49751012Y-58314771D01*
X49850155Y-58425677D01*
X49927531Y-58566011D01*
X49982988Y-58735517D01*
X50010105Y-58881636D01*
X50024742Y-59043912D01*
X50027536Y-59161019D01*
X50020963Y-59318708D01*
X50001209Y-59461792D01*
X49961431Y-59610407D01*
X49903552Y-59739462D01*
X49839469Y-59834640D01*
X49733340Y-59940214D01*
X49606437Y-60019117D01*
X49464404Y-60068527D01*
X49312882Y-60085624D01*
X49169681Y-60071167D01*
X49028468Y-60017583D01*
X48914855Y-59924171D01*
X48828584Y-59790631D01*
X48783558Y-59670509D01*
X48584549Y-58976371D01*
X48535118Y-58848548D01*
X48421102Y-58784201D01*
X48293824Y-58851475D01*
X48237657Y-58986239D01*
X48226880Y-59102205D01*
X48240282Y-59255477D01*
X48288682Y-59384369D01*
X48399465Y-59477101D01*
X48510690Y-59497488D01*
X48510690Y-60026811D01*
G37*
G36*
X49099054Y-60372236D02*
G01*
X49271695Y-60402745D01*
X49428604Y-60452742D01*
X49569023Y-60521531D01*
X49692189Y-60608415D01*
X49797342Y-60712697D01*
X49883722Y-60833682D01*
X49950568Y-60970672D01*
X49997118Y-61122971D01*
X50022613Y-61289883D01*
X50027536Y-61408932D01*
X50016514Y-61584234D01*
X49984007Y-61745731D01*
X49930853Y-61892671D01*
X49857891Y-62024304D01*
X49765960Y-62139880D01*
X49655897Y-62238647D01*
X49528541Y-62319856D01*
X49384732Y-62382756D01*
X49225306Y-62426596D01*
X49051104Y-62450625D01*
X48927173Y-62455268D01*
X48734751Y-62445137D01*
X48558360Y-62415116D01*
X48398634Y-62365762D01*
X48256203Y-62297633D01*
X48131700Y-62211287D01*
X48025759Y-62107283D01*
X47939009Y-61986177D01*
X47872085Y-61848528D01*
X47825619Y-61694894D01*
X47800241Y-61525832D01*
X47795518Y-61408932D01*
X48238506Y-61408932D01*
X48266027Y-61566870D01*
X48345292Y-61698995D01*
X48471349Y-61801709D01*
X48608570Y-61862244D01*
X48771985Y-61897774D01*
X48919651Y-61906797D01*
X49060947Y-61897465D01*
X49219054Y-61860960D01*
X49353319Y-61799280D01*
X49478028Y-61695689D01*
X49557297Y-61564076D01*
X49585066Y-61408932D01*
X49557594Y-61252264D01*
X49478677Y-61120372D01*
X49353562Y-61017259D01*
X49217795Y-60956204D01*
X49056627Y-60920230D01*
X48911444Y-60911067D01*
X48766487Y-60920230D01*
X48605523Y-60956204D01*
X48469888Y-61017259D01*
X48344859Y-61120372D01*
X48265973Y-61252264D01*
X48238506Y-61408932D01*
X47795518Y-61408932D01*
X47795352Y-61404829D01*
X47806485Y-61229611D01*
X47839336Y-61068346D01*
X47893085Y-60921749D01*
X47966908Y-60790539D01*
X48059985Y-60675431D01*
X48171495Y-60577142D01*
X48300615Y-60496390D01*
X48446523Y-60433890D01*
X48608399Y-60390360D01*
X48785421Y-60366517D01*
X48911444Y-60361912D01*
X49099054Y-60372236D01*
G37*
G36*
X47795352Y-62865596D02*
G01*
X49983768Y-62865596D01*
X49983768Y-63414068D01*
X48670718Y-63414068D01*
X48524508Y-63438035D01*
X48404971Y-63506843D01*
X48318163Y-63615853D01*
X48270140Y-63760427D01*
X48262442Y-63857222D01*
X48281311Y-63994722D01*
X48360493Y-64121884D01*
X48481999Y-64188049D01*
X48627208Y-64209760D01*
X48650886Y-64210104D01*
X49983768Y-64210104D01*
X49983768Y-64758576D01*
X48534626Y-64758576D01*
X48366202Y-64746757D01*
X48218310Y-64711720D01*
X48091544Y-64654099D01*
X47963697Y-64551278D01*
X47870944Y-64415396D01*
X47822788Y-64283717D01*
X47798425Y-64132303D01*
X47795352Y-64049393D01*
X47806392Y-63897777D01*
X47840396Y-63763742D01*
X47910859Y-63626485D01*
X48016486Y-63506299D01*
X48136608Y-63414068D01*
X47795352Y-63414068D01*
X47795352Y-62865596D01*
G37*
G36*
X47129937Y-65827481D02*
G01*
X49983768Y-65019818D01*
X49983768Y-65282428D01*
X47129937Y-66090090D01*
X47129937Y-65827481D01*
G37*
G36*
X47839120Y-67492044D02*
G01*
X47839120Y-67166518D01*
X47629853Y-67166518D01*
X47495073Y-67212648D01*
X47462986Y-67315603D01*
X47473096Y-67456913D01*
X47475296Y-67472212D01*
X47063600Y-67472212D01*
X47055630Y-67332673D01*
X47051483Y-67190733D01*
X47051290Y-67158311D01*
X47064007Y-67001178D01*
X47113098Y-66848608D01*
X47199528Y-66734866D01*
X47323757Y-66659491D01*
X47456488Y-66625655D01*
X47581981Y-66617362D01*
X47839120Y-66617362D01*
X47839120Y-66319874D01*
X48204312Y-66319874D01*
X48204312Y-66617362D01*
X49983768Y-66617362D01*
X49983768Y-67166518D01*
X48204312Y-67166518D01*
X48204312Y-67492044D01*
X47839120Y-67492044D01*
G37*
G36*
X47051290Y-68381772D02*
G01*
X47051290Y-67832617D01*
X49983768Y-67832617D01*
X49983768Y-68381772D01*
X47051290Y-68381772D01*
G37*
G36*
X47795352Y-69469825D02*
G01*
X47795352Y-68921354D01*
X49983768Y-68921354D01*
X49983768Y-69469825D01*
X47795352Y-69469825D01*
G37*
G36*
X47051290Y-69469825D02*
G01*
X47051290Y-68921354D01*
X47541632Y-68921354D01*
X47541632Y-69469825D01*
X47051290Y-69469825D01*
G37*
G36*
X50788695Y-70523684D02*
G01*
X49682861Y-70523684D01*
X49802028Y-70604367D01*
X49908375Y-70714566D01*
X49980509Y-70843338D01*
X50019459Y-70992015D01*
X50027536Y-71111137D01*
X50015183Y-71250890D01*
X49962105Y-71424163D01*
X49870467Y-71579905D01*
X49778583Y-71683500D01*
X49668527Y-71774441D01*
X49541808Y-71851531D01*
X49399932Y-71913573D01*
X49244409Y-71959371D01*
X49076746Y-71987728D01*
X48898450Y-71997446D01*
X48757471Y-71991252D01*
X48618839Y-71973140D01*
X48484903Y-71943815D01*
X48333685Y-71894814D01*
X48196667Y-71831897D01*
X48096259Y-71769714D01*
X47992251Y-71661140D01*
X47915635Y-71546412D01*
X47854730Y-71417083D01*
X47813458Y-71278265D01*
X47795740Y-71135070D01*
X47795352Y-71111137D01*
X47806035Y-70985987D01*
X48254235Y-70985987D01*
X48281256Y-71132009D01*
X48359037Y-71254580D01*
X48482656Y-71350157D01*
X48617134Y-71406628D01*
X48777176Y-71439842D01*
X48921702Y-71448290D01*
X49059682Y-71439673D01*
X49213802Y-71405928D01*
X49344446Y-71348831D01*
X49465580Y-71252777D01*
X49542446Y-71130485D01*
X49569337Y-70985987D01*
X49542392Y-70839966D01*
X49465148Y-70717395D01*
X49342985Y-70621818D01*
X49210755Y-70565347D01*
X49054184Y-70532133D01*
X48913496Y-70523684D01*
X48771679Y-70532133D01*
X48614087Y-70565347D01*
X48481195Y-70621818D01*
X48358605Y-70717395D01*
X48281202Y-70839966D01*
X48254235Y-70985987D01*
X47806035Y-70985987D01*
X47807442Y-70969506D01*
X47852357Y-70823754D01*
X47930859Y-70697717D01*
X48043379Y-70590063D01*
X48144815Y-70523684D01*
X47795352Y-70523684D01*
X47795352Y-69974529D01*
X50788695Y-69974529D01*
X50788695Y-70523684D01*
G37*
G36*
X48583182Y-73309127D02*
G01*
X48583182Y-72242959D01*
X49112505Y-72242959D01*
X49112505Y-73309127D01*
X48583182Y-73309127D01*
G37*
G36*
X48620111Y-75492072D02*
G01*
X48480774Y-75473229D01*
X48312715Y-75424250D01*
X48166036Y-75349191D01*
X48041963Y-75249342D01*
X47941723Y-75125993D01*
X47866541Y-74980435D01*
X47817643Y-74813957D01*
X47798957Y-74676147D01*
X47795352Y-74578409D01*
X47806220Y-74407100D01*
X47838444Y-74250473D01*
X47891452Y-74109002D01*
X47964672Y-73983161D01*
X48057534Y-73873422D01*
X48169466Y-73780259D01*
X48299897Y-73704145D01*
X48448254Y-73645554D01*
X48613968Y-73604958D01*
X48796466Y-73582832D01*
X48927173Y-73578576D01*
X49114395Y-73588120D01*
X49285972Y-73616412D01*
X49441301Y-73662941D01*
X49579775Y-73727196D01*
X49700790Y-73808667D01*
X49803740Y-73906844D01*
X49888020Y-74021216D01*
X49953025Y-74151272D01*
X49998150Y-74296502D01*
X50022790Y-74456396D01*
X50027536Y-74570886D01*
X50019278Y-74711065D01*
X49983365Y-74883806D01*
X49920410Y-75038771D01*
X49831959Y-75174229D01*
X49719561Y-75288450D01*
X49584760Y-75379701D01*
X49429104Y-75446254D01*
X49254141Y-75486375D01*
X49207564Y-75492072D01*
X49207564Y-74966853D01*
X49343474Y-74924235D01*
X49474142Y-74848872D01*
X49558704Y-74731489D01*
X49584755Y-74591146D01*
X49585066Y-74570886D01*
X49559690Y-74426632D01*
X49485637Y-74308352D01*
X49366018Y-74218077D01*
X49233771Y-74165702D01*
X49073840Y-74135357D01*
X48927173Y-74127732D01*
X48779669Y-74134870D01*
X48643192Y-74155600D01*
X48507308Y-74193891D01*
X48417683Y-74233733D01*
X48309599Y-74327548D01*
X48250057Y-74463773D01*
X48238506Y-74574305D01*
X48259279Y-74721137D01*
X48337520Y-74842297D01*
X48462654Y-74918598D01*
X48594708Y-74960826D01*
X48620111Y-74966853D01*
X48620111Y-75492072D01*
G37*
G36*
X49562247Y-75772898D02*
G01*
X49709023Y-75825679D01*
X49831620Y-75910222D01*
X49927062Y-76023726D01*
X49992375Y-76163389D01*
X50024587Y-76326409D01*
X50027536Y-76397529D01*
X50013411Y-76548649D01*
X49970693Y-76693522D01*
X49898867Y-76832579D01*
X49813742Y-76947466D01*
X49725945Y-77040377D01*
X49867724Y-77048013D01*
X49983768Y-77103294D01*
X49983768Y-77698953D01*
X49870928Y-77698953D01*
X49762533Y-77609141D01*
X49622233Y-77573896D01*
X49612421Y-77573803D01*
X48445038Y-77573803D01*
X48293815Y-77560049D01*
X48162339Y-77518911D01*
X48025959Y-77429259D01*
X47920884Y-77297467D01*
X47859532Y-77161934D01*
X47818505Y-76999847D01*
X47801149Y-76860965D01*
X47795352Y-76707327D01*
X47801772Y-76553559D01*
X47821034Y-76414199D01*
X47866699Y-76250704D01*
X47935209Y-76112597D01*
X48026572Y-75999752D01*
X48140795Y-75912039D01*
X48277886Y-75849330D01*
X48437854Y-75811498D01*
X48526420Y-75801870D01*
X48526420Y-76331193D01*
X48389686Y-76365334D01*
X48285368Y-76457890D01*
X48243957Y-76605056D01*
X48238506Y-76718953D01*
X48251692Y-76858080D01*
X48312718Y-76984474D01*
X48448457Y-77036957D01*
X48938115Y-77036957D01*
X49087201Y-77036957D01*
X49225760Y-77025575D01*
X49364174Y-76982671D01*
X49485059Y-76894103D01*
X49559606Y-76766229D01*
X49584538Y-76627064D01*
X49585066Y-76601326D01*
X49562594Y-76463780D01*
X49479512Y-76349459D01*
X49344489Y-76304169D01*
X49329979Y-76303838D01*
X49188524Y-76336606D01*
X49094979Y-76443801D01*
X49049235Y-76576121D01*
X49040013Y-76617055D01*
X49004452Y-76805122D01*
X48976271Y-76939305D01*
X48938115Y-77036957D01*
X48448457Y-77036957D01*
X48577202Y-76986414D01*
X48611905Y-76942582D01*
X48659349Y-76805853D01*
X48682921Y-76666533D01*
X48693970Y-76597222D01*
X48732951Y-76377697D01*
X48765911Y-76230565D01*
X48826477Y-76074843D01*
X48908968Y-75950199D01*
X49013825Y-75856365D01*
X49141484Y-75793076D01*
X49292385Y-75760065D01*
X49394263Y-75754682D01*
X49562247Y-75772898D01*
G37*
G36*
X47795352Y-78069616D02*
G01*
X49983768Y-78069616D01*
X49983768Y-78618088D01*
X48820488Y-78618088D01*
X48682411Y-78629859D01*
X48547463Y-78675059D01*
X48432516Y-78770638D01*
X48363454Y-78912360D01*
X48340875Y-79070560D01*
X48340404Y-79100223D01*
X48351222Y-79240240D01*
X48356133Y-79272561D01*
X47799455Y-79272561D01*
X47795352Y-79206224D01*
X47812451Y-79069180D01*
X47874066Y-78921842D01*
X47960645Y-78808938D01*
X48076593Y-78710815D01*
X48220207Y-78629773D01*
X48246713Y-78618088D01*
X47795352Y-78618088D01*
X47795352Y-78069616D01*
G37*
G36*
X49072942Y-79466135D02*
G01*
X49235125Y-79489212D01*
X49391574Y-79528185D01*
X49538610Y-79581808D01*
X49672554Y-79648838D01*
X49733468Y-79686992D01*
X49835542Y-79797329D01*
X49910447Y-79912533D01*
X49969822Y-80041981D01*
X50009962Y-80181131D01*
X50027160Y-80325438D01*
X50027536Y-80349672D01*
X50017492Y-80490831D01*
X49979497Y-80634707D01*
X49911731Y-80758831D01*
X49812647Y-80865996D01*
X49721842Y-80933705D01*
X49983768Y-80933705D01*
X49983768Y-81482861D01*
X47051290Y-81482861D01*
X47051290Y-80933705D01*
X48105150Y-80933705D01*
X47982520Y-80836945D01*
X47891386Y-80725220D01*
X47830845Y-80595737D01*
X47805280Y-80471402D01*
X48254235Y-80471402D01*
X48282162Y-80617424D01*
X48362536Y-80739995D01*
X48490243Y-80835572D01*
X48629135Y-80892043D01*
X48794390Y-80925257D01*
X48943586Y-80933705D01*
X49105142Y-80920320D01*
X49248723Y-80881717D01*
X49391870Y-80805392D01*
X49496933Y-80700144D01*
X49557259Y-80570003D01*
X49569337Y-80471402D01*
X49541996Y-80326587D01*
X49463994Y-80204096D01*
X49341363Y-80107932D01*
X49209430Y-80050793D01*
X49054184Y-80017034D01*
X48915547Y-80008416D01*
X48774428Y-80017034D01*
X48616935Y-80050793D01*
X48483548Y-80107932D01*
X48359975Y-80204096D01*
X48281626Y-80326587D01*
X48254235Y-80471402D01*
X47805280Y-80471402D01*
X47799996Y-80445705D01*
X47795352Y-80349672D01*
X47807927Y-80210940D01*
X47861902Y-80038144D01*
X47954962Y-79882096D01*
X48048150Y-79777907D01*
X48159632Y-79686175D01*
X48287826Y-79608203D01*
X48431148Y-79545292D01*
X48588016Y-79498744D01*
X48756849Y-79469861D01*
X48936064Y-79459944D01*
X49072942Y-79466135D01*
G37*
D12*
G36*
X11339420Y-8347711D02*
G01*
X11339420Y-9818053D01*
X4008227Y-9818053D01*
X4008227Y-8347711D01*
X8998841Y-8347711D01*
X4008227Y-5514738D01*
X4008227Y-4005073D01*
X11339420Y-4005073D01*
X11339420Y-5475415D01*
X6270160Y-5475415D01*
X11339420Y-8347711D01*
G37*
G36*
X5868381Y-12439023D02*
G01*
X5868381Y-11067843D01*
X11339420Y-11067843D01*
X11339420Y-12439023D01*
X5868381Y-12439023D01*
G37*
G36*
X4008227Y-12439023D02*
G01*
X4008227Y-11067843D01*
X5234082Y-11067843D01*
X5234082Y-12439023D01*
X4008227Y-12439023D01*
G37*
G36*
X7930279Y-18248583D02*
G01*
X7581936Y-18201476D01*
X7161788Y-18079028D01*
X6795091Y-17891380D01*
X6484909Y-17641757D01*
X6234307Y-17333385D01*
X6046352Y-16969489D01*
X5924108Y-16553295D01*
X5877393Y-16208770D01*
X5868381Y-15964424D01*
X5895551Y-15536151D01*
X5976110Y-15144584D01*
X6108630Y-14790907D01*
X6291682Y-14476304D01*
X6523836Y-14201956D01*
X6803666Y-13969049D01*
X7129742Y-13778764D01*
X7500636Y-13632286D01*
X7914920Y-13530798D01*
X8371165Y-13475483D01*
X8697934Y-13464842D01*
X9165988Y-13488702D01*
X9594932Y-13559432D01*
X9983253Y-13675753D01*
X10329438Y-13836392D01*
X10631975Y-14040070D01*
X10889351Y-14285512D01*
X11100051Y-14571442D01*
X11262564Y-14896583D01*
X11375376Y-15259658D01*
X11436975Y-15659392D01*
X11448841Y-15945617D01*
X11428196Y-16296065D01*
X11338413Y-16727916D01*
X11181025Y-17115329D01*
X10959899Y-17453974D01*
X10678902Y-17739526D01*
X10341901Y-17967656D01*
X9952762Y-18134036D01*
X9515352Y-18234339D01*
X9398911Y-18248583D01*
X9398911Y-16935533D01*
X9738686Y-16828991D01*
X10065356Y-16640581D01*
X10276761Y-16347123D01*
X10341889Y-15996267D01*
X10342665Y-15945617D01*
X10279226Y-15584981D01*
X10094094Y-15289283D01*
X9795045Y-15063593D01*
X9464427Y-14932657D01*
X9064601Y-14856795D01*
X8697934Y-14837732D01*
X8329173Y-14855577D01*
X7987981Y-14907402D01*
X7648270Y-15003129D01*
X7424207Y-15102735D01*
X7153998Y-15337271D01*
X7005144Y-15677835D01*
X6976266Y-15954166D01*
X7028198Y-16321244D01*
X7223800Y-16624146D01*
X7536635Y-16814897D01*
X7866771Y-16920466D01*
X7930279Y-16935533D01*
X7930279Y-18248583D01*
G37*
G36*
X7995247Y-20525903D02*
G01*
X4008227Y-20525903D01*
X4008227Y-19154724D01*
X11339420Y-19154724D01*
X11339420Y-20525903D01*
X9549364Y-20525903D01*
X8930453Y-21074717D01*
X11339420Y-22339895D01*
X11339420Y-23947013D01*
X7933698Y-22016762D01*
X5868381Y-23818785D01*
X5868381Y-22261249D01*
X7995247Y-20525903D01*
G37*
G36*
X4008227Y-30035254D02*
G01*
X9352749Y-30035254D01*
X9714538Y-29982681D01*
X10028960Y-29775188D01*
X10174032Y-29462429D01*
X10195631Y-29240244D01*
X10141722Y-28881153D01*
X9912236Y-28589582D01*
X9586855Y-28472391D01*
X9253586Y-28446943D01*
X8559448Y-28446943D01*
X8559448Y-26976601D01*
X9272393Y-26976601D01*
X9667294Y-26995636D01*
X10009541Y-27054589D01*
X10353828Y-27177519D01*
X10651974Y-27362959D01*
X10881221Y-27574996D01*
X11100110Y-27864923D01*
X11266876Y-28193476D01*
X11380443Y-28560010D01*
X11434631Y-28903923D01*
X11448841Y-29211179D01*
X11429097Y-29605114D01*
X11370413Y-29964946D01*
X11233010Y-30389920D01*
X11029781Y-30750059D01*
X10762667Y-31042959D01*
X10433615Y-31266215D01*
X10044565Y-31417423D01*
X9597463Y-31494179D01*
X9352749Y-31503886D01*
X4008227Y-31503886D01*
X4008227Y-30035254D01*
G37*
G36*
X9127637Y-32553808D02*
G01*
X9559237Y-32630080D01*
X9951512Y-32755073D01*
X10302557Y-32927045D01*
X10610473Y-33144254D01*
X10873356Y-33404960D01*
X11089306Y-33707421D01*
X11256420Y-34049897D01*
X11372796Y-34430645D01*
X11436533Y-34847925D01*
X11448841Y-35145547D01*
X11421286Y-35583803D01*
X11340018Y-35987544D01*
X11207134Y-36354894D01*
X11024729Y-36683977D01*
X10794900Y-36972916D01*
X10519743Y-37219835D01*
X10201354Y-37422857D01*
X9841830Y-37580107D01*
X9443267Y-37689706D01*
X9007760Y-37749780D01*
X8697934Y-37761388D01*
X8216878Y-37736060D01*
X7775902Y-37661006D01*
X7376585Y-37537621D01*
X7020508Y-37367299D01*
X6709252Y-37151435D01*
X6444397Y-36891423D01*
X6227524Y-36588659D01*
X6060214Y-36244537D01*
X5944047Y-35860451D01*
X5880604Y-35437797D01*
X5868795Y-35145547D01*
X6976266Y-35145547D01*
X7045069Y-35540392D01*
X7243230Y-35870704D01*
X7558373Y-36127491D01*
X7901426Y-36278826D01*
X8309962Y-36367652D01*
X8679127Y-36390209D01*
X9032367Y-36366881D01*
X9427635Y-36275618D01*
X9763297Y-36121416D01*
X10075070Y-35862439D01*
X10273242Y-35533408D01*
X10342665Y-35145547D01*
X10273986Y-34753877D01*
X10076693Y-34424147D01*
X9763906Y-34166365D01*
X9424489Y-34013727D01*
X9021568Y-33923793D01*
X8658611Y-33900886D01*
X8296218Y-33923793D01*
X7893808Y-34013727D01*
X7554721Y-34166365D01*
X7242148Y-34424147D01*
X7044934Y-34753877D01*
X6976266Y-35145547D01*
X5868795Y-35145547D01*
X5868381Y-35135289D01*
X5896213Y-34697245D01*
X5978342Y-34294082D01*
X6112713Y-33927591D01*
X6297271Y-33599564D01*
X6529964Y-33311795D01*
X6808738Y-33066073D01*
X7131537Y-32864192D01*
X7496309Y-32707943D01*
X7900999Y-32599118D01*
X8343553Y-32539509D01*
X8658611Y-32527997D01*
X9127637Y-32553808D01*
G37*
G36*
X4008227Y-38826531D02*
G01*
X11339420Y-38826531D01*
X11339420Y-40197711D01*
X8097829Y-40197711D01*
X7719056Y-40258259D01*
X7408252Y-40428809D01*
X7181848Y-40692716D01*
X7056271Y-41033336D01*
X7036106Y-41256015D01*
X7099080Y-41610999D01*
X7306976Y-41895992D01*
X7366078Y-41941605D01*
X7681942Y-42076337D01*
X8037990Y-42098897D01*
X11339420Y-42098897D01*
X11339420Y-43471786D01*
X7716566Y-43471786D01*
X7360303Y-43453134D01*
X6996002Y-43383794D01*
X6645125Y-43240885D01*
X6361468Y-43028994D01*
X6271870Y-42931521D01*
X6082289Y-42646405D01*
X5949661Y-42314049D01*
X5879006Y-41952937D01*
X5868381Y-41746699D01*
X5896713Y-41385157D01*
X6003486Y-41009168D01*
X6193123Y-40677602D01*
X6424391Y-40424854D01*
X6721521Y-40197711D01*
X4008227Y-40197711D01*
X4008227Y-38826531D01*
G37*
G36*
X5868381Y-44771158D02*
G01*
X11339420Y-44771158D01*
X11339420Y-46142337D01*
X8056796Y-46142337D01*
X7691272Y-46202254D01*
X7392429Y-46374274D01*
X7175408Y-46646799D01*
X7055350Y-47008233D01*
X7036106Y-47250223D01*
X7083278Y-47593973D01*
X7281234Y-47911877D01*
X7584999Y-48077290D01*
X7948021Y-48131566D01*
X8007215Y-48132428D01*
X11339420Y-48132428D01*
X11339420Y-49503607D01*
X7716566Y-49503607D01*
X7295506Y-49474058D01*
X6925776Y-49386466D01*
X6608861Y-49242414D01*
X6289244Y-48985363D01*
X6057362Y-48645657D01*
X5936970Y-48316459D01*
X5876063Y-47937923D01*
X5868381Y-47730648D01*
X5895981Y-47351609D01*
X5980990Y-47016522D01*
X6157148Y-46673380D01*
X6421217Y-46372914D01*
X6721521Y-46142337D01*
X5868381Y-46142337D01*
X5868381Y-44771158D01*
G37*
G36*
X7656727Y-55085778D02*
G01*
X7260818Y-55039696D01*
X6908466Y-54917800D01*
X6602516Y-54723455D01*
X6345814Y-54460027D01*
X6141205Y-54130883D01*
X5991532Y-53739389D01*
X5899643Y-53288910D01*
X5870357Y-52914366D01*
X5868381Y-52782812D01*
X5886008Y-52419042D01*
X5962727Y-51978571D01*
X6097344Y-51592492D01*
X6286673Y-51264591D01*
X6527529Y-50998655D01*
X6816725Y-50798470D01*
X7151076Y-50667824D01*
X7527397Y-50610503D01*
X7627662Y-50608073D01*
X7969652Y-50645076D01*
X8313118Y-50777574D01*
X8484221Y-50902142D01*
X8697781Y-51188191D01*
X8835753Y-51511086D01*
X8921905Y-51763831D01*
X9427976Y-53400013D01*
X9565739Y-53714320D01*
X9855401Y-53861632D01*
X10179909Y-53680728D01*
X10316716Y-53360812D01*
X10366647Y-53014750D01*
X10371730Y-52842651D01*
X10350707Y-52500264D01*
X10260400Y-52158509D01*
X10187083Y-52028834D01*
X9909574Y-51821437D01*
X9691270Y-51763831D01*
X9691270Y-50421716D01*
X10100092Y-50474423D01*
X10455639Y-50602624D01*
X10757531Y-50805677D01*
X11005388Y-51082943D01*
X11198828Y-51433778D01*
X11337470Y-51857544D01*
X11405262Y-52222842D01*
X11441857Y-52628531D01*
X11448841Y-52921297D01*
X11432409Y-53315522D01*
X11383024Y-53673232D01*
X11283578Y-54044770D01*
X11138880Y-54367405D01*
X10978674Y-54605352D01*
X10713350Y-54869287D01*
X10396093Y-55066543D01*
X10041010Y-55190069D01*
X9662205Y-55232812D01*
X9304202Y-55196669D01*
X8951172Y-55062709D01*
X8667139Y-54829179D01*
X8451461Y-54495327D01*
X8338897Y-54195024D01*
X7841374Y-52459678D01*
X7717795Y-52140122D01*
X7432756Y-51979253D01*
X7114561Y-52147437D01*
X6974143Y-52484348D01*
X6947201Y-52774263D01*
X6980706Y-53157445D01*
X7101706Y-53479673D01*
X7378663Y-53711503D01*
X7656727Y-53762470D01*
X7656727Y-55085778D01*
G37*
G36*
X9127637Y-55949342D02*
G01*
X9559237Y-56025614D01*
X9951512Y-56150607D01*
X10302557Y-56322579D01*
X10610473Y-56539788D01*
X10873356Y-56800494D01*
X11089306Y-57102955D01*
X11256420Y-57445431D01*
X11372796Y-57826179D01*
X11436533Y-58243459D01*
X11448841Y-58541081D01*
X11421286Y-58979336D01*
X11340018Y-59383077D01*
X11207134Y-59750428D01*
X11024729Y-60079511D01*
X10794900Y-60368450D01*
X10519743Y-60615369D01*
X10201354Y-60818391D01*
X9841830Y-60975640D01*
X9443267Y-61085240D01*
X9007760Y-61145314D01*
X8697934Y-61156922D01*
X8216878Y-61131594D01*
X7775902Y-61056540D01*
X7376585Y-60933155D01*
X7020508Y-60762833D01*
X6709252Y-60546969D01*
X6444397Y-60286957D01*
X6227524Y-59984193D01*
X6060214Y-59640071D01*
X5944047Y-59255985D01*
X5880604Y-58833331D01*
X5868795Y-58541081D01*
X6976266Y-58541081D01*
X7045069Y-58935925D01*
X7243230Y-59266238D01*
X7558373Y-59523025D01*
X7901426Y-59674360D01*
X8309962Y-59763186D01*
X8679127Y-59785743D01*
X9032367Y-59762415D01*
X9427635Y-59671152D01*
X9763297Y-59516950D01*
X10075070Y-59257973D01*
X10273242Y-58928942D01*
X10342665Y-58541081D01*
X10273986Y-58149411D01*
X10076693Y-57819681D01*
X9763906Y-57561899D01*
X9424489Y-57409260D01*
X9021568Y-57319327D01*
X8658611Y-57296420D01*
X8296218Y-57319327D01*
X7893808Y-57409260D01*
X7554721Y-57561899D01*
X7242148Y-57819681D01*
X7044934Y-58149411D01*
X6976266Y-58541081D01*
X5868795Y-58541081D01*
X5868381Y-58530823D01*
X5896213Y-58092779D01*
X5978342Y-57689616D01*
X6112713Y-57323125D01*
X6297271Y-56995098D01*
X6529964Y-56707328D01*
X6808738Y-56461607D01*
X7131537Y-56259726D01*
X7496309Y-56103476D01*
X7900999Y-55994652D01*
X8343553Y-55935043D01*
X8658611Y-55923531D01*
X9127637Y-55949342D01*
G37*
G36*
X5868381Y-62182742D02*
G01*
X11339420Y-62182742D01*
X11339420Y-63553921D01*
X8056796Y-63553921D01*
X7691272Y-63613838D01*
X7392429Y-63785858D01*
X7175408Y-64058383D01*
X7055350Y-64419818D01*
X7036106Y-64661807D01*
X7083278Y-65005557D01*
X7281234Y-65323461D01*
X7584999Y-65488874D01*
X7948021Y-65543151D01*
X8007215Y-65544012D01*
X11339420Y-65544012D01*
X11339420Y-66915191D01*
X7716566Y-66915191D01*
X7295506Y-66885642D01*
X6925776Y-66798050D01*
X6608861Y-66653998D01*
X6289244Y-66396947D01*
X6057362Y-66057241D01*
X5936970Y-65728043D01*
X5876063Y-65349507D01*
X5868381Y-65142233D01*
X5895981Y-64763193D01*
X5980990Y-64428106D01*
X6157148Y-64084964D01*
X6421217Y-63784498D01*
X6721521Y-63553921D01*
X5868381Y-63553921D01*
X5868381Y-62182742D01*
G37*
M02*
