G04 #@! TF.GenerationSoftware,KiCad,Pcbnew,8.0.7*
G04 #@! TF.CreationDate,2025-08-12T02:13:50-04:00*
G04 #@! TF.ProjectId,RP2350_60QFN_minimal,52503233-3530-45f3-9630-51464e5f6d69,REV3*
G04 #@! TF.SameCoordinates,Original*
G04 #@! TF.FileFunction,Legend,Bot*
G04 #@! TF.FilePolarity,Positive*
%FSLAX46Y46*%
G04 Gerber Fmt 4.6, Leading zero omitted, Abs format (unit mm)*
G04 Created by KiCad (PCBNEW 8.0.7) date 2025-08-12 02:13:50*
%MOMM*%
%LPD*%
G01*
G04 APERTURE LIST*
%ADD10C,0.900000*%
%ADD11C,0.620000*%
%ADD12C,1.400000*%
G04 APERTURE END LIST*
D10*
G36*
X16540425Y-4972009D02*
G01*
X16540425Y-7171294D01*
X15753475Y-7171294D01*
X15753475Y-4972009D01*
X14655481Y-4972009D01*
X14655481Y-7347149D01*
X13867431Y-7347149D01*
X13867431Y-4026789D01*
X18580341Y-4026789D01*
X18580341Y-7461454D01*
X17793391Y-7461454D01*
X17793391Y-4972009D01*
X16540425Y-4972009D01*
G37*
G36*
X15063244Y-8105523D02*
G01*
X18580341Y-8105523D01*
X18580341Y-8988094D01*
X16470083Y-8988094D01*
X16227179Y-9019815D01*
X16011760Y-9129644D01*
X15871264Y-9311240D01*
X15814656Y-9557596D01*
X15813925Y-9592595D01*
X15853569Y-9814341D01*
X16000255Y-9998423D01*
X16213849Y-10069678D01*
X16264553Y-10071800D01*
X18580341Y-10071800D01*
X18580341Y-10954371D01*
X16496461Y-10954371D01*
X16275525Y-10977758D01*
X16067296Y-11061461D01*
X15901480Y-11225773D01*
X15820633Y-11456596D01*
X15813925Y-11558872D01*
X15853569Y-11779927D01*
X16000255Y-11963659D01*
X16213849Y-12034857D01*
X16264553Y-12036978D01*
X18580341Y-12036978D01*
X18580341Y-12919549D01*
X16122770Y-12919549D01*
X15885383Y-12900888D01*
X15627205Y-12826640D01*
X15414308Y-12698513D01*
X15249309Y-12519399D01*
X15134823Y-12292191D01*
X15081362Y-12077741D01*
X15063244Y-11835844D01*
X15079567Y-11605434D01*
X15141657Y-11367682D01*
X15253063Y-11157068D01*
X15416892Y-10966966D01*
X15567728Y-10840066D01*
X15377320Y-10708328D01*
X15229256Y-10531969D01*
X15126436Y-10316854D01*
X15071758Y-10068853D01*
X15063244Y-9914630D01*
X15053111Y-9676028D01*
X15109214Y-9438069D01*
X15220627Y-9247689D01*
X15393101Y-9062240D01*
X15486395Y-8981500D01*
X15063244Y-8981500D01*
X15063244Y-8105523D01*
G37*
G36*
X18580341Y-14582477D02*
G01*
X18228632Y-14582477D01*
X18386480Y-14735466D01*
X18525026Y-14943187D01*
X18606147Y-15157119D01*
X18646580Y-15404263D01*
X18650683Y-15521102D01*
X18630716Y-15744345D01*
X18545129Y-16022346D01*
X18397820Y-16273352D01*
X18250553Y-16440914D01*
X18074655Y-16588422D01*
X17872732Y-16713790D01*
X17647393Y-16814930D01*
X17401247Y-16889756D01*
X17136901Y-16936182D01*
X16856964Y-16952121D01*
X16600641Y-16937841D01*
X16348578Y-16896305D01*
X16106426Y-16829470D01*
X15879836Y-16739292D01*
X15674460Y-16627726D01*
X15611692Y-16586123D01*
X15437005Y-16437009D01*
X15291328Y-16256582D01*
X15178397Y-16052015D01*
X15101953Y-15830480D01*
X15065733Y-15599149D01*
X15063244Y-15521102D01*
X15077679Y-15326563D01*
X15800736Y-15326563D01*
X15845227Y-15556343D01*
X15972123Y-15752433D01*
X16171556Y-15907575D01*
X16386042Y-16000342D01*
X16638337Y-16055431D01*
X16863558Y-16069549D01*
X17086367Y-16055701D01*
X17335870Y-16001467D01*
X17547904Y-15909705D01*
X17744990Y-15755331D01*
X17870350Y-15558791D01*
X17914291Y-15326563D01*
X17871357Y-15091784D01*
X17747482Y-14894548D01*
X17550056Y-14740638D01*
X17334681Y-14649646D01*
X17077637Y-14596102D01*
X16844874Y-14582477D01*
X16622348Y-14596327D01*
X16373834Y-14650583D01*
X16163210Y-14742413D01*
X15967950Y-14896963D01*
X15844068Y-15093824D01*
X15800736Y-15326563D01*
X15077679Y-15326563D01*
X15080089Y-15294083D01*
X15143154Y-15061544D01*
X15254351Y-14860917D01*
X15415131Y-14689163D01*
X15561133Y-14582477D01*
X13867431Y-14582477D01*
X13867431Y-13701004D01*
X18580341Y-13701004D01*
X18580341Y-14582477D01*
G37*
G36*
X17204883Y-17330233D02*
G01*
X17472081Y-17375752D01*
X17715493Y-17450301D01*
X17933804Y-17552805D01*
X18125701Y-17682188D01*
X18289867Y-17837374D01*
X18424988Y-18017287D01*
X18529749Y-18220852D01*
X18602835Y-18446992D01*
X18642930Y-18694631D01*
X18650683Y-18871137D01*
X18631016Y-19149471D01*
X18573506Y-19411049D01*
X18480397Y-19652611D01*
X18353928Y-19870899D01*
X18196342Y-20062654D01*
X18009878Y-20224618D01*
X17796778Y-20353532D01*
X17559284Y-20446137D01*
X17559284Y-19576755D01*
X17754790Y-19454616D01*
X17892264Y-19275341D01*
X17965837Y-19047000D01*
X17976939Y-18901912D01*
X17947087Y-18681279D01*
X17848871Y-18478059D01*
X17687878Y-18322690D01*
X17484116Y-18237312D01*
X17263299Y-18205792D01*
X17103161Y-18196294D01*
X17103161Y-20476912D01*
X16952585Y-20483506D01*
X16702387Y-20474336D01*
X16466099Y-20448060D01*
X16248565Y-20406535D01*
X16054626Y-20351615D01*
X15834368Y-20251658D01*
X15638671Y-20123828D01*
X15469018Y-19970238D01*
X15326889Y-19793001D01*
X15213766Y-19594228D01*
X15131131Y-19376033D01*
X15080463Y-19140526D01*
X15063244Y-18889822D01*
X15064162Y-18876632D01*
X15738087Y-18876632D01*
X15776814Y-19117499D01*
X15891384Y-19309346D01*
X16079380Y-19450170D01*
X16297130Y-19528750D01*
X16517344Y-19563565D01*
X16517344Y-18209483D01*
X16290895Y-18247850D01*
X16071082Y-18325910D01*
X15885349Y-18461348D01*
X15764981Y-18674980D01*
X15738087Y-18876632D01*
X15064162Y-18876632D01*
X15081658Y-18625192D01*
X15136013Y-18381641D01*
X15224985Y-18160248D01*
X15347248Y-17962095D01*
X15501476Y-17788264D01*
X15686343Y-17639835D01*
X15900523Y-17517891D01*
X16142691Y-17423512D01*
X16411520Y-17357779D01*
X16705685Y-17321775D01*
X16915216Y-17314822D01*
X17204883Y-17330233D01*
G37*
G36*
X17116515Y-20868247D02*
G01*
X17377166Y-20905335D01*
X17628601Y-20967969D01*
X17864908Y-21054150D01*
X18080177Y-21161877D01*
X18178073Y-21223196D01*
X18342121Y-21400523D01*
X18462505Y-21585672D01*
X18557929Y-21793714D01*
X18622439Y-22017348D01*
X18650079Y-22249270D01*
X18650683Y-22288217D01*
X18634542Y-22515079D01*
X18573478Y-22746308D01*
X18464567Y-22945794D01*
X18305325Y-23118023D01*
X18159389Y-23226842D01*
X18580341Y-23226842D01*
X18580341Y-24109413D01*
X13867431Y-24109413D01*
X13867431Y-23226842D01*
X15561133Y-23226842D01*
X15364050Y-23071334D01*
X15217585Y-22891775D01*
X15120287Y-22683678D01*
X15079200Y-22483855D01*
X15800736Y-22483855D01*
X15845618Y-22718533D01*
X15974790Y-22915522D01*
X16180033Y-23069128D01*
X16403253Y-23159884D01*
X16668841Y-23213264D01*
X16908621Y-23226842D01*
X17168265Y-23205329D01*
X17399019Y-23143290D01*
X17629077Y-23020625D01*
X17797929Y-22851476D01*
X17894881Y-22642320D01*
X17914291Y-22483855D01*
X17870350Y-22251117D01*
X17744990Y-22054256D01*
X17547904Y-21899705D01*
X17335870Y-21807876D01*
X17086367Y-21753620D01*
X16863558Y-21739769D01*
X16636759Y-21753620D01*
X16383646Y-21807876D01*
X16169274Y-21899705D01*
X15970674Y-22054256D01*
X15844756Y-22251117D01*
X15800736Y-22483855D01*
X15079200Y-22483855D01*
X15070708Y-22442555D01*
X15063244Y-22288217D01*
X15083454Y-22065255D01*
X15170200Y-21787547D01*
X15319760Y-21536755D01*
X15469528Y-21369308D01*
X15648695Y-21221882D01*
X15854720Y-21096570D01*
X16085059Y-20995464D01*
X16337169Y-20920654D01*
X16608508Y-20874235D01*
X16896531Y-20858297D01*
X17116515Y-20868247D01*
G37*
G36*
X17116515Y-24715072D02*
G01*
X17377166Y-24752160D01*
X17628601Y-24814794D01*
X17864908Y-24900975D01*
X18080177Y-25008702D01*
X18178073Y-25070020D01*
X18342121Y-25247348D01*
X18462505Y-25432496D01*
X18557929Y-25640539D01*
X18622439Y-25864173D01*
X18650079Y-26096095D01*
X18650683Y-26135041D01*
X18634542Y-26361904D01*
X18573478Y-26593133D01*
X18464567Y-26792619D01*
X18305325Y-26964848D01*
X18159389Y-27073667D01*
X18580341Y-27073667D01*
X18580341Y-27956238D01*
X13867431Y-27956238D01*
X13867431Y-27073667D01*
X15561133Y-27073667D01*
X15364050Y-26918159D01*
X15217585Y-26738600D01*
X15120287Y-26530503D01*
X15079200Y-26330680D01*
X15800736Y-26330680D01*
X15845618Y-26565357D01*
X15974790Y-26762346D01*
X16180033Y-26915952D01*
X16403253Y-27006709D01*
X16668841Y-27060089D01*
X16908621Y-27073667D01*
X17168265Y-27052154D01*
X17399019Y-26990114D01*
X17629077Y-26867449D01*
X17797929Y-26698300D01*
X17894881Y-26489145D01*
X17914291Y-26330680D01*
X17870350Y-26097942D01*
X17744990Y-25901081D01*
X17547904Y-25746530D01*
X17335870Y-25654701D01*
X17086367Y-25600444D01*
X16863558Y-25586594D01*
X16636759Y-25600444D01*
X16383646Y-25654701D01*
X16169274Y-25746530D01*
X15970674Y-25901081D01*
X15844756Y-26097942D01*
X15800736Y-26330680D01*
X15079200Y-26330680D01*
X15070708Y-26289380D01*
X15063244Y-26135041D01*
X15083454Y-25912080D01*
X15170200Y-25634372D01*
X15319760Y-25383580D01*
X15469528Y-25216133D01*
X15648695Y-25068707D01*
X15854720Y-24943395D01*
X16085059Y-24842288D01*
X16337169Y-24767479D01*
X16608508Y-24721060D01*
X16896531Y-24705122D01*
X17116515Y-24715072D01*
G37*
G36*
X17204883Y-28523395D02*
G01*
X17472081Y-28568913D01*
X17715493Y-28643462D01*
X17933804Y-28745966D01*
X18125701Y-28875349D01*
X18289867Y-29030535D01*
X18424988Y-29210449D01*
X18529749Y-29414013D01*
X18602835Y-29640153D01*
X18642930Y-29887792D01*
X18650683Y-30064298D01*
X18631016Y-30342633D01*
X18573506Y-30604210D01*
X18480397Y-30845772D01*
X18353928Y-31064060D01*
X18196342Y-31255816D01*
X18009878Y-31417779D01*
X17796778Y-31546693D01*
X17559284Y-31639298D01*
X17559284Y-30769916D01*
X17754790Y-30647777D01*
X17892264Y-30468502D01*
X17965837Y-30240161D01*
X17976939Y-30095073D01*
X17947087Y-29874440D01*
X17848871Y-29671220D01*
X17687878Y-29515851D01*
X17484116Y-29430473D01*
X17263299Y-29398953D01*
X17103161Y-29389455D01*
X17103161Y-31670073D01*
X16952585Y-31676667D01*
X16702387Y-31667497D01*
X16466099Y-31641222D01*
X16248565Y-31599696D01*
X16054626Y-31544776D01*
X15834368Y-31444819D01*
X15638671Y-31316989D01*
X15469018Y-31163400D01*
X15326889Y-30986162D01*
X15213766Y-30787390D01*
X15131131Y-30569194D01*
X15080463Y-30333688D01*
X15063244Y-30082983D01*
X15064162Y-30069794D01*
X15738087Y-30069794D01*
X15776814Y-30310660D01*
X15891384Y-30502507D01*
X16079380Y-30643331D01*
X16297130Y-30721911D01*
X16517344Y-30756727D01*
X16517344Y-29402644D01*
X16290895Y-29441011D01*
X16071082Y-29519071D01*
X15885349Y-29654509D01*
X15764981Y-29868141D01*
X15738087Y-30069794D01*
X15064162Y-30069794D01*
X15081658Y-29818354D01*
X15136013Y-29574802D01*
X15224985Y-29353409D01*
X15347248Y-29155256D01*
X15501476Y-28981425D01*
X15686343Y-28832996D01*
X15900523Y-28711052D01*
X16142691Y-28616673D01*
X16411520Y-28550940D01*
X16705685Y-28514936D01*
X16915216Y-28507983D01*
X17204883Y-28523395D01*
G37*
G36*
X17116515Y-32061408D02*
G01*
X17377166Y-32098496D01*
X17628601Y-32161131D01*
X17864908Y-32247311D01*
X18080177Y-32355038D01*
X18178073Y-32416357D01*
X18342121Y-32593685D01*
X18462505Y-32778833D01*
X18557929Y-32986875D01*
X18622439Y-33210509D01*
X18650079Y-33442431D01*
X18650683Y-33481378D01*
X18634542Y-33708240D01*
X18573478Y-33939469D01*
X18464567Y-34138955D01*
X18305325Y-34311184D01*
X18159389Y-34420003D01*
X18580341Y-34420003D01*
X18580341Y-35302575D01*
X13867431Y-35302575D01*
X13867431Y-34420003D01*
X15561133Y-34420003D01*
X15364050Y-34264496D01*
X15217585Y-34084937D01*
X15120287Y-33876839D01*
X15079200Y-33677016D01*
X15800736Y-33677016D01*
X15845618Y-33911694D01*
X15974790Y-34108683D01*
X16180033Y-34262289D01*
X16403253Y-34353046D01*
X16668841Y-34406425D01*
X16908621Y-34420003D01*
X17168265Y-34398490D01*
X17399019Y-34336451D01*
X17629077Y-34213786D01*
X17797929Y-34044637D01*
X17894881Y-33835481D01*
X17914291Y-33677016D01*
X17870350Y-33444278D01*
X17744990Y-33247417D01*
X17547904Y-33092867D01*
X17335870Y-33001037D01*
X17086367Y-32946781D01*
X16863558Y-32932930D01*
X16636759Y-32946781D01*
X16383646Y-33001037D01*
X16169274Y-33092867D01*
X15970674Y-33247417D01*
X15844756Y-33444278D01*
X15800736Y-33677016D01*
X15079200Y-33677016D01*
X15070708Y-33635717D01*
X15063244Y-33481378D01*
X15083454Y-33258416D01*
X15170200Y-32980708D01*
X15319760Y-32729917D01*
X15469528Y-32562469D01*
X15648695Y-32415044D01*
X15854720Y-32289731D01*
X16085059Y-32188625D01*
X16337169Y-32113816D01*
X16608508Y-32067396D01*
X16896531Y-32051458D01*
X17116515Y-32061408D01*
G37*
G36*
X18580341Y-39746207D02*
G01*
X18572579Y-39996493D01*
X18548949Y-40224123D01*
X18496311Y-40479175D01*
X18417068Y-40704307D01*
X18310214Y-40902561D01*
X18174742Y-41076983D01*
X18045083Y-41201406D01*
X17826320Y-41357688D01*
X17631089Y-41464869D01*
X17419181Y-41555812D01*
X17191795Y-41630168D01*
X16950128Y-41687591D01*
X16695378Y-41727732D01*
X16428743Y-41750243D01*
X16221688Y-41755348D01*
X15948727Y-41746287D01*
X15686224Y-41719336D01*
X15435365Y-41674842D01*
X15197334Y-41613153D01*
X14973316Y-41534618D01*
X14764497Y-41439582D01*
X14572062Y-41328396D01*
X14397194Y-41201406D01*
X14238464Y-41044267D01*
X14087446Y-40827824D01*
X13993003Y-40620123D01*
X13925769Y-40383844D01*
X13884486Y-40115491D01*
X13869300Y-39875366D01*
X13867431Y-39746207D01*
X14655481Y-39746207D01*
X14679786Y-39996089D01*
X14752854Y-40212445D01*
X14874917Y-40395339D01*
X15046209Y-40544835D01*
X15266959Y-40660998D01*
X15537400Y-40743891D01*
X15772980Y-40784267D01*
X16036740Y-40805993D01*
X16228283Y-40810129D01*
X16508916Y-40800821D01*
X16761672Y-40772882D01*
X16986610Y-40726283D01*
X17243361Y-40635078D01*
X17450906Y-40510589D01*
X17609389Y-40352749D01*
X17718950Y-40161496D01*
X17779731Y-39936764D01*
X17793391Y-39746207D01*
X17793391Y-38895509D01*
X14655481Y-38895509D01*
X14655481Y-39746207D01*
X13867431Y-39746207D01*
X13867431Y-37950289D01*
X18580341Y-37950289D01*
X18580341Y-39746207D01*
G37*
G36*
X17204883Y-42231280D02*
G01*
X17472081Y-42276799D01*
X17715493Y-42351348D01*
X17933804Y-42453852D01*
X18125701Y-42583235D01*
X18289867Y-42738421D01*
X18424988Y-42918334D01*
X18529749Y-43121899D01*
X18602835Y-43348038D01*
X18642930Y-43595678D01*
X18650683Y-43772184D01*
X18631016Y-44050518D01*
X18573506Y-44312096D01*
X18480397Y-44553658D01*
X18353928Y-44771946D01*
X18196342Y-44963701D01*
X18009878Y-45125665D01*
X17796778Y-45254579D01*
X17559284Y-45347184D01*
X17559284Y-44477801D01*
X17754790Y-44355662D01*
X17892264Y-44176388D01*
X17965837Y-43948046D01*
X17976939Y-43802958D01*
X17947087Y-43582325D01*
X17848871Y-43379106D01*
X17687878Y-43223736D01*
X17484116Y-43138359D01*
X17263299Y-43106839D01*
X17103161Y-43097341D01*
X17103161Y-45377958D01*
X16952585Y-45384553D01*
X16702387Y-45375382D01*
X16466099Y-45349107D01*
X16248565Y-45307582D01*
X16054626Y-45252662D01*
X15834368Y-45152704D01*
X15638671Y-45024875D01*
X15469018Y-44871285D01*
X15326889Y-44694048D01*
X15213766Y-44495275D01*
X15131131Y-44277079D01*
X15080463Y-44041573D01*
X15063244Y-43790868D01*
X15064162Y-43777679D01*
X15738087Y-43777679D01*
X15776814Y-44018546D01*
X15891384Y-44210393D01*
X16079380Y-44351217D01*
X16297130Y-44429797D01*
X16517344Y-44464612D01*
X16517344Y-43110530D01*
X16290895Y-43148897D01*
X16071082Y-43226957D01*
X15885349Y-43362395D01*
X15764981Y-43576027D01*
X15738087Y-43777679D01*
X15064162Y-43777679D01*
X15081658Y-43526239D01*
X15136013Y-43282687D01*
X15224985Y-43061294D01*
X15347248Y-42863142D01*
X15501476Y-42689310D01*
X15686343Y-42540882D01*
X15900523Y-42418937D01*
X16142691Y-42324558D01*
X16411520Y-42258826D01*
X16705685Y-42222822D01*
X16915216Y-42215868D01*
X17204883Y-42231280D01*
G37*
G36*
X16212896Y-48784047D02*
G01*
X15958383Y-48754423D01*
X15731871Y-48676061D01*
X15535189Y-48551125D01*
X15370166Y-48381779D01*
X15238631Y-48170186D01*
X15142413Y-47918511D01*
X15083342Y-47628918D01*
X15064515Y-47388140D01*
X15063244Y-47303569D01*
X15074577Y-47069717D01*
X15123896Y-46786557D01*
X15210436Y-46538363D01*
X15332147Y-46327570D01*
X15486983Y-46156611D01*
X15672894Y-46027921D01*
X15887835Y-45943934D01*
X16129755Y-45907085D01*
X16194211Y-45905523D01*
X16414062Y-45929310D01*
X16634861Y-46014488D01*
X16744856Y-46094567D01*
X16882145Y-46278455D01*
X16970841Y-46486031D01*
X17026224Y-46648510D01*
X17351556Y-47700341D01*
X17440117Y-47902396D01*
X17626329Y-47997096D01*
X17834942Y-47880801D01*
X17922889Y-47675141D01*
X17954987Y-47452672D01*
X17958255Y-47342037D01*
X17944740Y-47121931D01*
X17886685Y-46902232D01*
X17839553Y-46818869D01*
X17661154Y-46685542D01*
X17520816Y-46648510D01*
X17520816Y-45785722D01*
X17783630Y-45819605D01*
X18012196Y-45902020D01*
X18206270Y-46032554D01*
X18365606Y-46210796D01*
X18489960Y-46436333D01*
X18579088Y-46708754D01*
X18622669Y-46943588D01*
X18646193Y-47204389D01*
X18650683Y-47392595D01*
X18640120Y-47646025D01*
X18608373Y-47875982D01*
X18544443Y-48114828D01*
X18451423Y-48322236D01*
X18348433Y-48475202D01*
X18177867Y-48644874D01*
X17973917Y-48771682D01*
X17745649Y-48851092D01*
X17502131Y-48878569D01*
X17271987Y-48855334D01*
X17045039Y-48769217D01*
X16862446Y-48619091D01*
X16723796Y-48404472D01*
X16651434Y-48211420D01*
X16331598Y-47095840D01*
X16252154Y-46890411D01*
X16068914Y-46786995D01*
X15864360Y-46895114D01*
X15774092Y-47111699D01*
X15756772Y-47298073D01*
X15778311Y-47544404D01*
X15856096Y-47751551D01*
X16034140Y-47900585D01*
X16212896Y-47933349D01*
X16212896Y-48784047D01*
G37*
G36*
X15063244Y-50406308D02*
G01*
X15063244Y-49524836D01*
X18580341Y-49524836D01*
X18580341Y-50406308D01*
X15063244Y-50406308D01*
G37*
G36*
X13867431Y-50406308D02*
G01*
X13867431Y-49524836D01*
X14655481Y-49524836D01*
X14655481Y-50406308D01*
X13867431Y-50406308D01*
G37*
G36*
X17178480Y-51098811D02*
G01*
X17442695Y-51140923D01*
X17686109Y-51209324D01*
X17906756Y-51302552D01*
X18102669Y-51419144D01*
X18322010Y-51608421D01*
X18489220Y-51833172D01*
X18599635Y-52089933D01*
X18648593Y-52375240D01*
X18650683Y-52450621D01*
X18632228Y-52672407D01*
X18558513Y-52893557D01*
X18416522Y-53101067D01*
X18257598Y-53260827D01*
X18159389Y-53345282D01*
X18619909Y-53345282D01*
X18858914Y-53305477D01*
X19053326Y-53192827D01*
X19193897Y-53017480D01*
X19271375Y-52789581D01*
X19283761Y-52639665D01*
X19252829Y-52402779D01*
X19147721Y-52206897D01*
X18949585Y-52074905D01*
X18904574Y-52060443D01*
X18904574Y-51153691D01*
X19122031Y-51186434D01*
X19329126Y-51293510D01*
X19505673Y-51465276D01*
X19523363Y-51486716D01*
X19652012Y-51679311D01*
X19748325Y-51901104D01*
X19805510Y-52114820D01*
X19839598Y-52350647D01*
X19850893Y-52608890D01*
X19838585Y-52874789D01*
X19802279Y-53119112D01*
X19742897Y-53340859D01*
X19629423Y-53599677D01*
X19478758Y-53814214D01*
X19293091Y-53982099D01*
X19074613Y-54100963D01*
X18825513Y-54168436D01*
X18619909Y-54183890D01*
X15063244Y-54183890D01*
X15063244Y-53345282D01*
X15586413Y-53345282D01*
X15412018Y-53204234D01*
X15251617Y-53029456D01*
X15139230Y-52840054D01*
X15081196Y-52634169D01*
X15800736Y-52634169D01*
X15846952Y-52855286D01*
X15978035Y-53045917D01*
X16182641Y-53198062D01*
X16401124Y-53289680D01*
X16656218Y-53344389D01*
X16882243Y-53358471D01*
X17102671Y-53344904D01*
X17348556Y-53291636D01*
X17556707Y-53201217D01*
X17749453Y-53048493D01*
X17871604Y-52853110D01*
X17914291Y-52620980D01*
X17856524Y-52387015D01*
X17692610Y-52195247D01*
X17478303Y-52072045D01*
X17254443Y-52003224D01*
X16994901Y-51969063D01*
X16882243Y-51965921D01*
X16652747Y-51978361D01*
X16395854Y-52027091D01*
X16177620Y-52109566D01*
X15974847Y-52248368D01*
X15832302Y-52457917D01*
X15800736Y-52634169D01*
X15081196Y-52634169D01*
X15071795Y-52600816D01*
X15063244Y-52470404D01*
X15090790Y-52239818D01*
X15169856Y-52009747D01*
X15295084Y-51792659D01*
X15438314Y-51623158D01*
X15461116Y-51601022D01*
X15635849Y-51453427D01*
X15829866Y-51330233D01*
X16042489Y-51231693D01*
X16273039Y-51158057D01*
X16520835Y-51109578D01*
X16785200Y-51086506D01*
X16895432Y-51084448D01*
X17178480Y-51098811D01*
G37*
G36*
X15063244Y-55069759D02*
G01*
X18580341Y-55069759D01*
X18580341Y-55951231D01*
X16470083Y-55951231D01*
X16235103Y-55989749D01*
X16042990Y-56100333D01*
X15903477Y-56275528D01*
X15826296Y-56507879D01*
X15813925Y-56663443D01*
X15844250Y-56884425D01*
X15971507Y-57088792D01*
X16166785Y-57195129D01*
X16400156Y-57230021D01*
X16438210Y-57230575D01*
X18580341Y-57230575D01*
X18580341Y-58112048D01*
X16251364Y-58112048D01*
X15980682Y-58093052D01*
X15742999Y-58036743D01*
X15539268Y-57944138D01*
X15333800Y-57778890D01*
X15184732Y-57560508D01*
X15107337Y-57348881D01*
X15068183Y-57105537D01*
X15063244Y-56972288D01*
X15080987Y-56728620D01*
X15135636Y-56513207D01*
X15248880Y-56292616D01*
X15418639Y-56099459D01*
X15611692Y-55951231D01*
X15063244Y-55951231D01*
X15063244Y-55069759D01*
G37*
D11*
G36*
X45313768Y-5843084D02*
G01*
X45313768Y-6431221D01*
X42381290Y-6431221D01*
X42381290Y-5843084D01*
X44377536Y-5843084D01*
X42381290Y-4709895D01*
X42381290Y-4106029D01*
X45313768Y-4106029D01*
X45313768Y-4694166D01*
X43286064Y-4694166D01*
X45313768Y-5843084D01*
G37*
G36*
X43125352Y-7479609D02*
G01*
X43125352Y-6931137D01*
X45313768Y-6931137D01*
X45313768Y-7479609D01*
X43125352Y-7479609D01*
G37*
G36*
X42381290Y-7479609D02*
G01*
X42381290Y-6931137D01*
X42871632Y-6931137D01*
X42871632Y-7479609D01*
X42381290Y-7479609D01*
G37*
G36*
X43950111Y-9803433D02*
G01*
X43810774Y-9784590D01*
X43642715Y-9735611D01*
X43496036Y-9660552D01*
X43371963Y-9560703D01*
X43271723Y-9437354D01*
X43196541Y-9291795D01*
X43147643Y-9125318D01*
X43128957Y-8987508D01*
X43125352Y-8889769D01*
X43136220Y-8718460D01*
X43168444Y-8561833D01*
X43221452Y-8420363D01*
X43294672Y-8294521D01*
X43387534Y-8184782D01*
X43499466Y-8091619D01*
X43629897Y-8015505D01*
X43778254Y-7956914D01*
X43943968Y-7916319D01*
X44126466Y-7894193D01*
X44257173Y-7889937D01*
X44444395Y-7899481D01*
X44615972Y-7927772D01*
X44771301Y-7974301D01*
X44909775Y-8038556D01*
X45030790Y-8120028D01*
X45133740Y-8218205D01*
X45218020Y-8332576D01*
X45283025Y-8462633D01*
X45328150Y-8607863D01*
X45352790Y-8767757D01*
X45357536Y-8882247D01*
X45349278Y-9022426D01*
X45313365Y-9195166D01*
X45250410Y-9350131D01*
X45161959Y-9485589D01*
X45049561Y-9599810D01*
X44914760Y-9691062D01*
X44759104Y-9757614D01*
X44584141Y-9797735D01*
X44537564Y-9803433D01*
X44537564Y-9278213D01*
X44673474Y-9235596D01*
X44804142Y-9160232D01*
X44888704Y-9042849D01*
X44914755Y-8902507D01*
X44915066Y-8882247D01*
X44889690Y-8737992D01*
X44815637Y-8619713D01*
X44696018Y-8529437D01*
X44563771Y-8477063D01*
X44403840Y-8446718D01*
X44257173Y-8439092D01*
X44109669Y-8446230D01*
X43973192Y-8466960D01*
X43837308Y-8505251D01*
X43747683Y-8545094D01*
X43639599Y-8638908D01*
X43580057Y-8775134D01*
X43568506Y-8885666D01*
X43589279Y-9032497D01*
X43667520Y-9153658D01*
X43792654Y-9229959D01*
X43924708Y-9272186D01*
X43950111Y-9278213D01*
X43950111Y-9803433D01*
G37*
G36*
X42381290Y-10186406D02*
G01*
X45313768Y-10186406D01*
X45313768Y-10734877D01*
X44017131Y-10734877D01*
X43865622Y-10759097D01*
X43741301Y-10827317D01*
X43650739Y-10932879D01*
X43600508Y-11069128D01*
X43592442Y-11158199D01*
X43617632Y-11300193D01*
X43700790Y-11414190D01*
X43724431Y-11432435D01*
X43850776Y-11486328D01*
X43993196Y-11495352D01*
X45313768Y-11495352D01*
X45313768Y-12044508D01*
X43864626Y-12044508D01*
X43722121Y-12037047D01*
X43576401Y-12009311D01*
X43436050Y-11952147D01*
X43322587Y-11867391D01*
X43286748Y-11828401D01*
X43210915Y-11714355D01*
X43157864Y-11581413D01*
X43129602Y-11436968D01*
X43125352Y-11354473D01*
X43136685Y-11209856D01*
X43179394Y-11059460D01*
X43255249Y-10926834D01*
X43347756Y-10825735D01*
X43466608Y-10734877D01*
X42381290Y-10734877D01*
X42381290Y-10186406D01*
G37*
G36*
X44429054Y-12464476D02*
G01*
X44601695Y-12494985D01*
X44758604Y-12544982D01*
X44899023Y-12613771D01*
X45022189Y-12700655D01*
X45127342Y-12804937D01*
X45213722Y-12925921D01*
X45280568Y-13062912D01*
X45327118Y-13215211D01*
X45352613Y-13382123D01*
X45357536Y-13501172D01*
X45346514Y-13676474D01*
X45314007Y-13837970D01*
X45260853Y-13984910D01*
X45187891Y-14116544D01*
X45095960Y-14232119D01*
X44985897Y-14330887D01*
X44858541Y-14412096D01*
X44714732Y-14474996D01*
X44555306Y-14518835D01*
X44381104Y-14542865D01*
X44257173Y-14547508D01*
X44064751Y-14537377D01*
X43888360Y-14507355D01*
X43728634Y-14458001D01*
X43586203Y-14389873D01*
X43461700Y-14303527D01*
X43355759Y-14199522D01*
X43269009Y-14078417D01*
X43202085Y-13940768D01*
X43155619Y-13787134D01*
X43130241Y-13618072D01*
X43125518Y-13501172D01*
X43568506Y-13501172D01*
X43596027Y-13659110D01*
X43675292Y-13791234D01*
X43801349Y-13893949D01*
X43938570Y-13954483D01*
X44101985Y-13990014D01*
X44249651Y-13999036D01*
X44390947Y-13989705D01*
X44549054Y-13953200D01*
X44683319Y-13891519D01*
X44808028Y-13787929D01*
X44887297Y-13656316D01*
X44915066Y-13501172D01*
X44887594Y-13344504D01*
X44808677Y-13212612D01*
X44683562Y-13109499D01*
X44547795Y-13048444D01*
X44386627Y-13012470D01*
X44241444Y-13003307D01*
X44096487Y-13012470D01*
X43935523Y-13048444D01*
X43799888Y-13109499D01*
X43674859Y-13212612D01*
X43595973Y-13344504D01*
X43568506Y-13501172D01*
X43125518Y-13501172D01*
X43125352Y-13497069D01*
X43136485Y-13321851D01*
X43169336Y-13160586D01*
X43223085Y-13013989D01*
X43296908Y-12882779D01*
X43389985Y-12767671D01*
X43501495Y-12669382D01*
X43630615Y-12588630D01*
X43776523Y-12526130D01*
X43938399Y-12482600D01*
X44115421Y-12458756D01*
X44241444Y-12454152D01*
X44429054Y-12464476D01*
G37*
G36*
X42381290Y-15522037D02*
G01*
X42381290Y-14973565D01*
X45313768Y-14973565D01*
X45313768Y-15522037D01*
X42381290Y-15522037D01*
G37*
G36*
X44892247Y-15927329D02*
G01*
X45039023Y-15980110D01*
X45161620Y-16064653D01*
X45257062Y-16178157D01*
X45322375Y-16317820D01*
X45354587Y-16480840D01*
X45357536Y-16551960D01*
X45343411Y-16703080D01*
X45300693Y-16847953D01*
X45228867Y-16987010D01*
X45143742Y-17101897D01*
X45055945Y-17194808D01*
X45197724Y-17202444D01*
X45313768Y-17257725D01*
X45313768Y-17853384D01*
X45200928Y-17853384D01*
X45092533Y-17763572D01*
X44952233Y-17728327D01*
X44942421Y-17728234D01*
X43775038Y-17728234D01*
X43623815Y-17714480D01*
X43492339Y-17673342D01*
X43355959Y-17583690D01*
X43250884Y-17451898D01*
X43189532Y-17316365D01*
X43148505Y-17154278D01*
X43131149Y-17015396D01*
X43125352Y-16861758D01*
X43131772Y-16707990D01*
X43151034Y-16568630D01*
X43196699Y-16405135D01*
X43265209Y-16267028D01*
X43356572Y-16154183D01*
X43470795Y-16066470D01*
X43607886Y-16003761D01*
X43767854Y-15965929D01*
X43856420Y-15956301D01*
X43856420Y-16485624D01*
X43719686Y-16519765D01*
X43615368Y-16612321D01*
X43573957Y-16759487D01*
X43568506Y-16873384D01*
X43581692Y-17012511D01*
X43642718Y-17138905D01*
X43778457Y-17191388D01*
X44268115Y-17191388D01*
X44417201Y-17191388D01*
X44555760Y-17180006D01*
X44694174Y-17137102D01*
X44815059Y-17048534D01*
X44889606Y-16920660D01*
X44914538Y-16781495D01*
X44915066Y-16755757D01*
X44892594Y-16618211D01*
X44809512Y-16503890D01*
X44674489Y-16458600D01*
X44659979Y-16458269D01*
X44518524Y-16491037D01*
X44424979Y-16598232D01*
X44379235Y-16730552D01*
X44370013Y-16771486D01*
X44334452Y-16959553D01*
X44306271Y-17093736D01*
X44268115Y-17191388D01*
X43778457Y-17191388D01*
X43907202Y-17140845D01*
X43941905Y-17097013D01*
X43989349Y-16960284D01*
X44012921Y-16820964D01*
X44023970Y-16751653D01*
X44062951Y-16532128D01*
X44095911Y-16384996D01*
X44156477Y-16229274D01*
X44238968Y-16104630D01*
X44343825Y-16010796D01*
X44471484Y-15947507D01*
X44622385Y-15914496D01*
X44724263Y-15909113D01*
X44892247Y-15927329D01*
G37*
G36*
X43840690Y-19950844D02*
G01*
X43682327Y-19932411D01*
X43541386Y-19883653D01*
X43419006Y-19805915D01*
X43316325Y-19700544D01*
X43234482Y-19568886D01*
X43174613Y-19412288D01*
X43137857Y-19232097D01*
X43126142Y-19082279D01*
X43125352Y-19029658D01*
X43132403Y-18884150D01*
X43163091Y-18707961D01*
X43216937Y-18553530D01*
X43292669Y-18422369D01*
X43389011Y-18315995D01*
X43504690Y-18235921D01*
X43638430Y-18183662D01*
X43788959Y-18160734D01*
X43829064Y-18159762D01*
X43965860Y-18174563D01*
X44103247Y-18227563D01*
X44171688Y-18277390D01*
X44257112Y-18391809D01*
X44312301Y-18520967D01*
X44346762Y-18622065D01*
X44549190Y-19276538D01*
X44604295Y-19402261D01*
X44720160Y-19461186D01*
X44849963Y-19388824D01*
X44904686Y-19260858D01*
X44924659Y-19122433D01*
X44926692Y-19053593D01*
X44918282Y-18916638D01*
X44882160Y-18779936D01*
X44852833Y-18728066D01*
X44741829Y-18645108D01*
X44654508Y-18622065D01*
X44654508Y-18085219D01*
X44818036Y-18106302D01*
X44960255Y-18157582D01*
X45081012Y-18238804D01*
X45180155Y-18349710D01*
X45257531Y-18490044D01*
X45312988Y-18659550D01*
X45340105Y-18805670D01*
X45354742Y-18967945D01*
X45357536Y-19085052D01*
X45350963Y-19242742D01*
X45331209Y-19385825D01*
X45291431Y-19534441D01*
X45233552Y-19663495D01*
X45169469Y-19758674D01*
X45063340Y-19864248D01*
X44936437Y-19943150D01*
X44794404Y-19992561D01*
X44642882Y-20009658D01*
X44499681Y-19995200D01*
X44358468Y-19941616D01*
X44244855Y-19848204D01*
X44158584Y-19714664D01*
X44113558Y-19594542D01*
X43914549Y-18900404D01*
X43865118Y-18772581D01*
X43751102Y-18708234D01*
X43623824Y-18775508D01*
X43567657Y-18910272D01*
X43556880Y-19026238D01*
X43570282Y-19179511D01*
X43618682Y-19308402D01*
X43729465Y-19401134D01*
X43840690Y-19421521D01*
X43840690Y-19950844D01*
G37*
G36*
X43913182Y-21377418D02*
G01*
X43913182Y-20311249D01*
X44442505Y-20311249D01*
X44442505Y-21377418D01*
X43913182Y-21377418D01*
G37*
G36*
X42381290Y-22415547D02*
G01*
X42381290Y-21827411D01*
X45313768Y-21827411D01*
X45313768Y-23783991D01*
X44824110Y-23783991D01*
X44824110Y-22415547D01*
X42381290Y-22415547D01*
G37*
G36*
X43913182Y-25023866D02*
G01*
X43913182Y-23957697D01*
X44442505Y-23957697D01*
X44442505Y-25023866D01*
X43913182Y-25023866D01*
G37*
G36*
X42381290Y-26617306D02*
G01*
X44519099Y-26617306D01*
X44663815Y-26596277D01*
X44789584Y-26513279D01*
X44847612Y-26388176D01*
X44856252Y-26299302D01*
X44834689Y-26155665D01*
X44742894Y-26039037D01*
X44612742Y-25992160D01*
X44479434Y-25981981D01*
X44201779Y-25981981D01*
X44201779Y-25393845D01*
X44486957Y-25393845D01*
X44644917Y-25401459D01*
X44781816Y-25425040D01*
X44919531Y-25474212D01*
X45038789Y-25548388D01*
X45130488Y-25633203D01*
X45218044Y-25749173D01*
X45284750Y-25880594D01*
X45330177Y-26027208D01*
X45351852Y-26164773D01*
X45357536Y-26287676D01*
X45349639Y-26445250D01*
X45326165Y-26589183D01*
X45271204Y-26759172D01*
X45189912Y-26903228D01*
X45083067Y-27020388D01*
X44951446Y-27109690D01*
X44795826Y-27170173D01*
X44616985Y-27200876D01*
X44519099Y-27204759D01*
X42381290Y-27204759D01*
X42381290Y-26617306D01*
G37*
G36*
X44429054Y-27624727D02*
G01*
X44601695Y-27655236D01*
X44758604Y-27705233D01*
X44899023Y-27774022D01*
X45022189Y-27860906D01*
X45127342Y-27965188D01*
X45213722Y-28086173D01*
X45280568Y-28223163D01*
X45327118Y-28375462D01*
X45352613Y-28542374D01*
X45357536Y-28661423D01*
X45346514Y-28836725D01*
X45314007Y-28998222D01*
X45260853Y-29145162D01*
X45187891Y-29276795D01*
X45095960Y-29392371D01*
X44985897Y-29491138D01*
X44858541Y-29572347D01*
X44714732Y-29635247D01*
X44555306Y-29679087D01*
X44381104Y-29703116D01*
X44257173Y-29707759D01*
X44064751Y-29697628D01*
X43888360Y-29667607D01*
X43728634Y-29618253D01*
X43586203Y-29550124D01*
X43461700Y-29463778D01*
X43355759Y-29359774D01*
X43269009Y-29238668D01*
X43202085Y-29101019D01*
X43155619Y-28947385D01*
X43130241Y-28778323D01*
X43125518Y-28661423D01*
X43568506Y-28661423D01*
X43596027Y-28819361D01*
X43675292Y-28951486D01*
X43801349Y-29054200D01*
X43938570Y-29114735D01*
X44101985Y-29150265D01*
X44249651Y-29159288D01*
X44390947Y-29149956D01*
X44549054Y-29113452D01*
X44683319Y-29051771D01*
X44808028Y-28948180D01*
X44887297Y-28816567D01*
X44915066Y-28661423D01*
X44887594Y-28504755D01*
X44808677Y-28372863D01*
X44683562Y-28269750D01*
X44547795Y-28208695D01*
X44386627Y-28172721D01*
X44241444Y-28163558D01*
X44096487Y-28172721D01*
X43935523Y-28208695D01*
X43799888Y-28269750D01*
X43674859Y-28372863D01*
X43595973Y-28504755D01*
X43568506Y-28661423D01*
X43125518Y-28661423D01*
X43125352Y-28657320D01*
X43136485Y-28482102D01*
X43169336Y-28320837D01*
X43223085Y-28174241D01*
X43296908Y-28043030D01*
X43389985Y-27927922D01*
X43501495Y-27829633D01*
X43630615Y-27748881D01*
X43776523Y-27686381D01*
X43938399Y-27642851D01*
X44115421Y-27619008D01*
X44241444Y-27614403D01*
X44429054Y-27624727D01*
G37*
G36*
X42381290Y-30133817D02*
G01*
X45313768Y-30133817D01*
X45313768Y-30682288D01*
X44017131Y-30682288D01*
X43865622Y-30706508D01*
X43741301Y-30774728D01*
X43650739Y-30880290D01*
X43600508Y-31016539D01*
X43592442Y-31105610D01*
X43617632Y-31247604D01*
X43700790Y-31361601D01*
X43724431Y-31379846D01*
X43850776Y-31433739D01*
X43993196Y-31442763D01*
X45313768Y-31442763D01*
X45313768Y-31991919D01*
X43864626Y-31991919D01*
X43722121Y-31984458D01*
X43576401Y-31956722D01*
X43436050Y-31899558D01*
X43322587Y-31814802D01*
X43286748Y-31775812D01*
X43210915Y-31661766D01*
X43157864Y-31528824D01*
X43129602Y-31384379D01*
X43125352Y-31301884D01*
X43136685Y-31157267D01*
X43179394Y-31006871D01*
X43255249Y-30874245D01*
X43347756Y-30773146D01*
X43466608Y-30682288D01*
X42381290Y-30682288D01*
X42381290Y-30133817D01*
G37*
G36*
X43125352Y-32511667D02*
G01*
X45313768Y-32511667D01*
X45313768Y-33060139D01*
X44000718Y-33060139D01*
X43854508Y-33084106D01*
X43734971Y-33152914D01*
X43648163Y-33261924D01*
X43600140Y-33406498D01*
X43592442Y-33503293D01*
X43611311Y-33640793D01*
X43690493Y-33767955D01*
X43811999Y-33834120D01*
X43957208Y-33855831D01*
X43980886Y-33856175D01*
X45313768Y-33856175D01*
X45313768Y-34404647D01*
X43864626Y-34404647D01*
X43696202Y-34392827D01*
X43548310Y-34357791D01*
X43421544Y-34300170D01*
X43293697Y-34197349D01*
X43200944Y-34061467D01*
X43152788Y-33929788D01*
X43128425Y-33778373D01*
X43125352Y-33695464D01*
X43136392Y-33543848D01*
X43170396Y-33409813D01*
X43240859Y-33272556D01*
X43346486Y-33152370D01*
X43466608Y-33060139D01*
X43125352Y-33060139D01*
X43125352Y-32511667D01*
G37*
G36*
X43840690Y-36637515D02*
G01*
X43682327Y-36619082D01*
X43541386Y-36570324D01*
X43419006Y-36492586D01*
X43316325Y-36387215D01*
X43234482Y-36255558D01*
X43174613Y-36098960D01*
X43137857Y-35918768D01*
X43126142Y-35768951D01*
X43125352Y-35716329D01*
X43132403Y-35570821D01*
X43163091Y-35394633D01*
X43216937Y-35240201D01*
X43292669Y-35109041D01*
X43389011Y-35002666D01*
X43504690Y-34922592D01*
X43638430Y-34870334D01*
X43788959Y-34847405D01*
X43829064Y-34846434D01*
X43965860Y-34861234D01*
X44103247Y-34914234D01*
X44171688Y-34964061D01*
X44257112Y-35078480D01*
X44312301Y-35207639D01*
X44346762Y-35308736D01*
X44549190Y-35963210D01*
X44604295Y-36088932D01*
X44720160Y-36147857D01*
X44849963Y-36075495D01*
X44904686Y-35947529D01*
X44924659Y-35809104D01*
X44926692Y-35740265D01*
X44918282Y-35603310D01*
X44882160Y-35466608D01*
X44852833Y-35414738D01*
X44741829Y-35331779D01*
X44654508Y-35308736D01*
X44654508Y-34771891D01*
X44818036Y-34792973D01*
X44960255Y-34844254D01*
X45081012Y-34925475D01*
X45180155Y-35036381D01*
X45257531Y-35176716D01*
X45312988Y-35346222D01*
X45340105Y-35492341D01*
X45354742Y-35654617D01*
X45357536Y-35771723D01*
X45350963Y-35929413D01*
X45331209Y-36072497D01*
X45291431Y-36221112D01*
X45233552Y-36350166D01*
X45169469Y-36445345D01*
X45063340Y-36550919D01*
X44936437Y-36629822D01*
X44794404Y-36679232D01*
X44642882Y-36696329D01*
X44499681Y-36681872D01*
X44358468Y-36628288D01*
X44244855Y-36534876D01*
X44158584Y-36401335D01*
X44113558Y-36281214D01*
X43914549Y-35587076D01*
X43865118Y-35459253D01*
X43751102Y-35394905D01*
X43623824Y-35462179D01*
X43567657Y-35596943D01*
X43556880Y-35712909D01*
X43570282Y-35866182D01*
X43618682Y-35995074D01*
X43729465Y-36087805D01*
X43840690Y-36108192D01*
X43840690Y-36637515D01*
G37*
G36*
X44429054Y-36982941D02*
G01*
X44601695Y-37013450D01*
X44758604Y-37063447D01*
X44899023Y-37132236D01*
X45022189Y-37219119D01*
X45127342Y-37323402D01*
X45213722Y-37444386D01*
X45280568Y-37581376D01*
X45327118Y-37733676D01*
X45352613Y-37900588D01*
X45357536Y-38019637D01*
X45346514Y-38194939D01*
X45314007Y-38356435D01*
X45260853Y-38503375D01*
X45187891Y-38635008D01*
X45095960Y-38750584D01*
X44985897Y-38849352D01*
X44858541Y-38930561D01*
X44714732Y-38993460D01*
X44555306Y-39037300D01*
X44381104Y-39061330D01*
X44257173Y-39065973D01*
X44064751Y-39055842D01*
X43888360Y-39025820D01*
X43728634Y-38976466D01*
X43586203Y-38908337D01*
X43461700Y-38821992D01*
X43355759Y-38717987D01*
X43269009Y-38596881D01*
X43202085Y-38459233D01*
X43155619Y-38305598D01*
X43130241Y-38136537D01*
X43125518Y-38019637D01*
X43568506Y-38019637D01*
X43596027Y-38177574D01*
X43675292Y-38309699D01*
X43801349Y-38412414D01*
X43938570Y-38472948D01*
X44101985Y-38508479D01*
X44249651Y-38517501D01*
X44390947Y-38508170D01*
X44549054Y-38471665D01*
X44683319Y-38409984D01*
X44808028Y-38306393D01*
X44887297Y-38174781D01*
X44915066Y-38019637D01*
X44887594Y-37862969D01*
X44808677Y-37731077D01*
X44683562Y-37627964D01*
X44547795Y-37566908D01*
X44386627Y-37530935D01*
X44241444Y-37521772D01*
X44096487Y-37530935D01*
X43935523Y-37566908D01*
X43799888Y-37627964D01*
X43674859Y-37731077D01*
X43595973Y-37862969D01*
X43568506Y-38019637D01*
X43125518Y-38019637D01*
X43125352Y-38015533D01*
X43136485Y-37840316D01*
X43169336Y-37679050D01*
X43223085Y-37532454D01*
X43296908Y-37401244D01*
X43389985Y-37286136D01*
X43501495Y-37187847D01*
X43630615Y-37107094D01*
X43776523Y-37044595D01*
X43938399Y-37001065D01*
X44115421Y-36977221D01*
X44241444Y-36972616D01*
X44429054Y-36982941D01*
G37*
G36*
X43125352Y-39476301D02*
G01*
X45313768Y-39476301D01*
X45313768Y-40024773D01*
X44000718Y-40024773D01*
X43854508Y-40048739D01*
X43734971Y-40117547D01*
X43648163Y-40226557D01*
X43600140Y-40371131D01*
X43592442Y-40467927D01*
X43611311Y-40605427D01*
X43690493Y-40732588D01*
X43811999Y-40798754D01*
X43957208Y-40820464D01*
X43980886Y-40820809D01*
X45313768Y-40820809D01*
X45313768Y-41369281D01*
X43864626Y-41369281D01*
X43696202Y-41357461D01*
X43548310Y-41322424D01*
X43421544Y-41264803D01*
X43293697Y-41161983D01*
X43200944Y-41026101D01*
X43152788Y-40894421D01*
X43128425Y-40743007D01*
X43125352Y-40660097D01*
X43136392Y-40508481D01*
X43170396Y-40374446D01*
X43240859Y-40237190D01*
X43346486Y-40117003D01*
X43466608Y-40024773D01*
X43125352Y-40024773D01*
X43125352Y-39476301D01*
G37*
G36*
X44420395Y-41738647D02*
G01*
X44585767Y-41769019D01*
X44746763Y-41818514D01*
X44901645Y-41886209D01*
X45048672Y-41971182D01*
X45186107Y-42072512D01*
X45312209Y-42189278D01*
X45425240Y-42320558D01*
X45513787Y-42443963D01*
X45589799Y-42573572D01*
X45653501Y-42710073D01*
X45705118Y-42854155D01*
X45744874Y-43006508D01*
X45772993Y-43167821D01*
X45789700Y-43338783D01*
X45795219Y-43520083D01*
X45791168Y-43688452D01*
X45778836Y-43845423D01*
X45757958Y-43992921D01*
X45728267Y-44132870D01*
X45689498Y-44267198D01*
X45641384Y-44397828D01*
X45619462Y-44449476D01*
X45337020Y-44339371D01*
X45386647Y-44204349D01*
X45427348Y-44057219D01*
X45458420Y-43901740D01*
X45479160Y-43741671D01*
X45488864Y-43580773D01*
X45489525Y-43527606D01*
X45481544Y-43362203D01*
X45457936Y-43200874D01*
X45419200Y-43044885D01*
X45365839Y-42895504D01*
X45298352Y-42754001D01*
X45217242Y-42621641D01*
X45181095Y-42571542D01*
X45088690Y-42463880D01*
X44988102Y-42370235D01*
X44851288Y-42273049D01*
X44702675Y-42198131D01*
X44542810Y-42145683D01*
X44407186Y-42120042D01*
X44264992Y-42109016D01*
X44228450Y-42108555D01*
X44081739Y-42115459D01*
X43935814Y-42135835D01*
X43791908Y-42169179D01*
X43651256Y-42214984D01*
X43515091Y-42272746D01*
X43384649Y-42341961D01*
X43261164Y-42422123D01*
X43145868Y-42512728D01*
X43029463Y-42622810D01*
X42928085Y-42741603D01*
X42841885Y-42868908D01*
X42771017Y-43004523D01*
X42715632Y-43148249D01*
X42675882Y-43299885D01*
X42651921Y-43459230D01*
X42643900Y-43626085D01*
X42649525Y-43767118D01*
X42672468Y-43935000D01*
X42713252Y-44094052D01*
X42772050Y-44244820D01*
X42849032Y-44387852D01*
X42944373Y-44523697D01*
X43010460Y-44601981D01*
X43122557Y-44713465D01*
X43239294Y-44805671D01*
X43361203Y-44878756D01*
X43488815Y-44932875D01*
X43622664Y-44968186D01*
X43763281Y-44984846D01*
X43821542Y-44986322D01*
X43969552Y-44976332D01*
X44113979Y-44946848D01*
X44252418Y-44898600D01*
X44382462Y-44832319D01*
X44452079Y-44786629D01*
X44555657Y-44697086D01*
X44648166Y-44587634D01*
X44714048Y-44462245D01*
X44733838Y-44355101D01*
X44688011Y-44221328D01*
X44563773Y-44163796D01*
X44542351Y-44162930D01*
X44406705Y-44186345D01*
X44377536Y-44194389D01*
X43280593Y-44500083D01*
X43280593Y-44147201D01*
X43523370Y-44084284D01*
X43396724Y-44005852D01*
X43300433Y-43894407D01*
X43250232Y-43752412D01*
X43240928Y-43637711D01*
X43241998Y-43626085D01*
X43519267Y-43626085D01*
X43547060Y-43763459D01*
X43640048Y-43877324D01*
X43771394Y-43937552D01*
X43919337Y-43955031D01*
X44057771Y-43941019D01*
X44204390Y-43901444D01*
X44349316Y-43840001D01*
X44482669Y-43760384D01*
X44549874Y-43708150D01*
X44648739Y-43598765D01*
X44713209Y-43474850D01*
X44733838Y-43363475D01*
X44701994Y-43224444D01*
X44613988Y-43113944D01*
X44481101Y-43041015D01*
X44336881Y-43015128D01*
X44314619Y-43014696D01*
X44164598Y-43028260D01*
X44020123Y-43066660D01*
X43885650Y-43126458D01*
X43765635Y-43204216D01*
X43664532Y-43296496D01*
X43571540Y-43427029D01*
X43523766Y-43568165D01*
X43519267Y-43626085D01*
X43241998Y-43626085D01*
X43254709Y-43487964D01*
X43294915Y-43341337D01*
X43359844Y-43201670D01*
X43447791Y-43072804D01*
X43557051Y-42958581D01*
X43597913Y-42924424D01*
X43730426Y-42830558D01*
X43873839Y-42753120D01*
X44024338Y-42693677D01*
X44178110Y-42653800D01*
X44331342Y-42635055D01*
X44381639Y-42633775D01*
X44549719Y-42653938D01*
X44701776Y-42711129D01*
X44832708Y-42800402D01*
X44937412Y-42916810D01*
X45010786Y-43055408D01*
X45047726Y-43211249D01*
X45051158Y-43277306D01*
X45035815Y-43418521D01*
X44991247Y-43556448D01*
X44919644Y-43686619D01*
X44823197Y-43804567D01*
X44757773Y-43864759D01*
X44880242Y-43926243D01*
X44949260Y-44006322D01*
X45014843Y-44136260D01*
X45046180Y-44271530D01*
X45051158Y-44355101D01*
X45034599Y-44508993D01*
X44985839Y-44659921D01*
X44919458Y-44784683D01*
X44831293Y-44903224D01*
X44722212Y-45013677D01*
X44604663Y-45106655D01*
X44482989Y-45183683D01*
X44356468Y-45244839D01*
X44224382Y-45290201D01*
X44086009Y-45319848D01*
X43940630Y-45333858D01*
X43880355Y-45335101D01*
X43727182Y-45328613D01*
X43581671Y-45308974D01*
X43443212Y-45275920D01*
X43311196Y-45229185D01*
X43185015Y-45168505D01*
X43064059Y-45093616D01*
X42947719Y-45004254D01*
X42835387Y-44900153D01*
X42721131Y-44770882D01*
X42621589Y-44633044D01*
X42536921Y-44486920D01*
X42467288Y-44332789D01*
X42412850Y-44170933D01*
X42373768Y-44001631D01*
X42350201Y-43825165D01*
X42342804Y-43688282D01*
X42342309Y-43641814D01*
X42347370Y-43494721D01*
X42362523Y-43351305D01*
X42387730Y-43211746D01*
X42422948Y-43076222D01*
X42468139Y-42944914D01*
X42523260Y-42818000D01*
X42588272Y-42695659D01*
X42663135Y-42578071D01*
X42747806Y-42465414D01*
X42842246Y-42357868D01*
X42910614Y-42289099D01*
X43016969Y-42194674D01*
X43129690Y-42107833D01*
X43247965Y-42028948D01*
X43370982Y-41958393D01*
X43497931Y-41896537D01*
X43627998Y-41843754D01*
X43760374Y-41800415D01*
X43894247Y-41766893D01*
X44073669Y-41738108D01*
X44252386Y-41728318D01*
X44420395Y-41738647D01*
G37*
G36*
X46118695Y-46220725D02*
G01*
X45012861Y-46220725D01*
X45132028Y-46301408D01*
X45238375Y-46411607D01*
X45310509Y-46540379D01*
X45349459Y-46689056D01*
X45357536Y-46808178D01*
X45345183Y-46947931D01*
X45292105Y-47121204D01*
X45200467Y-47276946D01*
X45108583Y-47380541D01*
X44998527Y-47471482D01*
X44871808Y-47548572D01*
X44729932Y-47610614D01*
X44574409Y-47656412D01*
X44406746Y-47684768D01*
X44228450Y-47694487D01*
X44087471Y-47688293D01*
X43948839Y-47670181D01*
X43814903Y-47640856D01*
X43663685Y-47591855D01*
X43526667Y-47528938D01*
X43426259Y-47466755D01*
X43322251Y-47358180D01*
X43245635Y-47243453D01*
X43184730Y-47114124D01*
X43143458Y-46975306D01*
X43125740Y-46832111D01*
X43125352Y-46808178D01*
X43136035Y-46683028D01*
X43584235Y-46683028D01*
X43611256Y-46829050D01*
X43689037Y-46951621D01*
X43812656Y-47047198D01*
X43947134Y-47103669D01*
X44107176Y-47136883D01*
X44251702Y-47145331D01*
X44389682Y-47136714D01*
X44543802Y-47102969D01*
X44674446Y-47045872D01*
X44795580Y-46949817D01*
X44872446Y-46827526D01*
X44899337Y-46683028D01*
X44872392Y-46537007D01*
X44795148Y-46414436D01*
X44672985Y-46318859D01*
X44540755Y-46262388D01*
X44384184Y-46229174D01*
X44243496Y-46220725D01*
X44101679Y-46229174D01*
X43944087Y-46262388D01*
X43811195Y-46318859D01*
X43688605Y-46414436D01*
X43611202Y-46537007D01*
X43584235Y-46683028D01*
X43136035Y-46683028D01*
X43137442Y-46666547D01*
X43182357Y-46520795D01*
X43260859Y-46394758D01*
X43373379Y-46287104D01*
X43474815Y-46220725D01*
X43125352Y-46220725D01*
X43125352Y-45671570D01*
X46118695Y-45671570D01*
X46118695Y-46220725D01*
G37*
G36*
X43125352Y-48072672D02*
G01*
X45313768Y-48072672D01*
X45313768Y-48621828D01*
X44000718Y-48621828D01*
X43849578Y-48641565D01*
X43715540Y-48709903D01*
X43628120Y-48822896D01*
X43592897Y-48976185D01*
X43592442Y-48997962D01*
X43617110Y-49135937D01*
X43708381Y-49250476D01*
X43841283Y-49294813D01*
X43872833Y-49296133D01*
X45313768Y-49296133D01*
X45313768Y-49845289D01*
X44017131Y-49845289D01*
X43879660Y-49859841D01*
X43750095Y-49911923D01*
X43646921Y-50014161D01*
X43596616Y-50157784D01*
X43592442Y-50221423D01*
X43617110Y-50358968D01*
X43708381Y-50473290D01*
X43841283Y-50517591D01*
X43872833Y-50518911D01*
X45313768Y-50518911D01*
X45313768Y-51068066D01*
X43784612Y-51068066D01*
X43636905Y-51056455D01*
X43476261Y-51010256D01*
X43343791Y-50930533D01*
X43241125Y-50819084D01*
X43169890Y-50677710D01*
X43136625Y-50544275D01*
X43125352Y-50393761D01*
X43135508Y-50250394D01*
X43174142Y-50102460D01*
X43243461Y-49971412D01*
X43345399Y-49853126D01*
X43439253Y-49774166D01*
X43320777Y-49692196D01*
X43228648Y-49582461D01*
X43164671Y-49448612D01*
X43130649Y-49294300D01*
X43125352Y-49198339D01*
X43119047Y-49049876D01*
X43153955Y-48901812D01*
X43223279Y-48783353D01*
X43330596Y-48667963D01*
X43388646Y-48617725D01*
X43125352Y-48617725D01*
X43125352Y-48072672D01*
G37*
G36*
X44742044Y-52161591D02*
G01*
X44742044Y-51573454D01*
X45313768Y-51573454D01*
X45313768Y-52161591D01*
X44742044Y-52161591D01*
G37*
G36*
X43125352Y-52646461D02*
G01*
X45313768Y-52646461D01*
X45313768Y-53195617D01*
X44000718Y-53195617D01*
X43849578Y-53215354D01*
X43715540Y-53283692D01*
X43628120Y-53396685D01*
X43592897Y-53549974D01*
X43592442Y-53571751D01*
X43617110Y-53709726D01*
X43708381Y-53824266D01*
X43841283Y-53868603D01*
X43872833Y-53869923D01*
X45313768Y-53869923D01*
X45313768Y-54419078D01*
X44017131Y-54419078D01*
X43879660Y-54433630D01*
X43750095Y-54485712D01*
X43646921Y-54587950D01*
X43596616Y-54731574D01*
X43592442Y-54795212D01*
X43617110Y-54932758D01*
X43708381Y-55047079D01*
X43841283Y-55091380D01*
X43872833Y-55092700D01*
X45313768Y-55092700D01*
X45313768Y-55641856D01*
X43784612Y-55641856D01*
X43636905Y-55630244D01*
X43476261Y-55584046D01*
X43343791Y-55504322D01*
X43241125Y-55392873D01*
X43169890Y-55251499D01*
X43136625Y-55118064D01*
X43125352Y-54967550D01*
X43135508Y-54824184D01*
X43174142Y-54676249D01*
X43243461Y-54545201D01*
X43345399Y-54426915D01*
X43439253Y-54347955D01*
X43320777Y-54265985D01*
X43228648Y-54156250D01*
X43164671Y-54022401D01*
X43130649Y-53868089D01*
X43125352Y-53772128D01*
X43119047Y-53623665D01*
X43153955Y-53475601D01*
X43223279Y-53357143D01*
X43330596Y-53241752D01*
X43388646Y-53191514D01*
X43125352Y-53191514D01*
X43125352Y-52646461D01*
G37*
G36*
X44457927Y-55992701D02*
G01*
X44624183Y-56021024D01*
X44775640Y-56067410D01*
X44911478Y-56131191D01*
X45030880Y-56211696D01*
X45133028Y-56308256D01*
X45217103Y-56420202D01*
X45282288Y-56546864D01*
X45327764Y-56687573D01*
X45352712Y-56841660D01*
X45357536Y-56951486D01*
X45345298Y-57124672D01*
X45309515Y-57287431D01*
X45251580Y-57437737D01*
X45172889Y-57573560D01*
X45074835Y-57692875D01*
X44958813Y-57793652D01*
X44826217Y-57873865D01*
X44678443Y-57931486D01*
X44678443Y-57390537D01*
X44800092Y-57314539D01*
X44885631Y-57202991D01*
X44931410Y-57060911D01*
X44938318Y-56970635D01*
X44919743Y-56833352D01*
X44858631Y-56706904D01*
X44758457Y-56610230D01*
X44631672Y-56557106D01*
X44494275Y-56537494D01*
X44394633Y-56531584D01*
X44394633Y-57950635D01*
X44300942Y-57954738D01*
X44145263Y-57949032D01*
X43998239Y-57932683D01*
X43862884Y-57906845D01*
X43742212Y-57872672D01*
X43605162Y-57810477D01*
X43483395Y-57730938D01*
X43377833Y-57635371D01*
X43289398Y-57525090D01*
X43219010Y-57401409D01*
X43167592Y-57265643D01*
X43136066Y-57119106D01*
X43125352Y-56963112D01*
X43125923Y-56954905D01*
X43545254Y-56954905D01*
X43569351Y-57104778D01*
X43640639Y-57224149D01*
X43757614Y-57311773D01*
X43893103Y-57360667D01*
X44030125Y-57382330D01*
X44030125Y-56539790D01*
X43889223Y-56563663D01*
X43752451Y-56612234D01*
X43636883Y-56696506D01*
X43561988Y-56829433D01*
X43545254Y-56954905D01*
X43125923Y-56954905D01*
X43136809Y-56798454D01*
X43170630Y-56646910D01*
X43225991Y-56509155D01*
X43302065Y-56385860D01*
X43398029Y-56277698D01*
X43513058Y-56185342D01*
X43646325Y-56109466D01*
X43797008Y-56050741D01*
X43964279Y-56009841D01*
X44147315Y-55987438D01*
X44277690Y-55983112D01*
X44457927Y-55992701D01*
G37*
G36*
X48442108Y-6626810D02*
G01*
X48442108Y-5481995D01*
X48932450Y-5481995D01*
X48932450Y-6133049D01*
X49076889Y-6107613D01*
X49203295Y-6054209D01*
X49288752Y-5992170D01*
X49390250Y-5888850D01*
X49469898Y-5767786D01*
X49525678Y-5633615D01*
X49555570Y-5490977D01*
X49560252Y-5407452D01*
X49541448Y-5235177D01*
X49486885Y-5078410D01*
X49399335Y-4939450D01*
X49281571Y-4820598D01*
X49136367Y-4724153D01*
X49011124Y-4667909D01*
X48873175Y-4626533D01*
X48723690Y-4600996D01*
X48563839Y-4592267D01*
X48399107Y-4600052D01*
X48247699Y-4623093D01*
X48110243Y-4660925D01*
X47949759Y-4733570D01*
X47816687Y-4830573D01*
X47712519Y-4950830D01*
X47638745Y-5093234D01*
X47596855Y-5256680D01*
X47587258Y-5392407D01*
X47598094Y-5539174D01*
X47630343Y-5673054D01*
X47691741Y-5806909D01*
X47757545Y-5897794D01*
X47861738Y-5992364D01*
X47988497Y-6055294D01*
X48039987Y-6074235D01*
X48039987Y-6626810D01*
X47881009Y-6596413D01*
X47734247Y-6545489D01*
X47600448Y-6475005D01*
X47480358Y-6385927D01*
X47374726Y-6279223D01*
X47284298Y-6155860D01*
X47209821Y-6016804D01*
X47152044Y-5863023D01*
X47111712Y-5695484D01*
X47089573Y-5515153D01*
X47085290Y-5388304D01*
X47092318Y-5237068D01*
X47113074Y-5092424D01*
X47147073Y-4954809D01*
X47193824Y-4824658D01*
X47286798Y-4644386D01*
X47405723Y-4483367D01*
X47548953Y-4343076D01*
X47714841Y-4224987D01*
X47837208Y-4159323D01*
X47968425Y-4104618D01*
X48108006Y-4061310D01*
X48255461Y-4029835D01*
X48410304Y-4010630D01*
X48572046Y-4004131D01*
X48730550Y-4010663D01*
X48883053Y-4029911D01*
X49028973Y-4061351D01*
X49167726Y-4104458D01*
X49298730Y-4158709D01*
X49421400Y-4223580D01*
X49588507Y-4339653D01*
X49733585Y-4476673D01*
X49854667Y-4632872D01*
X49949786Y-4806482D01*
X50016973Y-4995735D01*
X50045275Y-5129721D01*
X50059705Y-5269350D01*
X50061536Y-5341116D01*
X50055031Y-5479515D01*
X50028014Y-5637475D01*
X49978988Y-5780580D01*
X49906859Y-5910819D01*
X49810531Y-6030179D01*
X49688908Y-6140648D01*
X49603337Y-6203489D01*
X49979471Y-6273928D01*
X49979471Y-6626810D01*
X48442108Y-6626810D01*
G37*
G36*
X47829352Y-7698450D02*
G01*
X47829352Y-7149979D01*
X50017768Y-7149979D01*
X50017768Y-7698450D01*
X47829352Y-7698450D01*
G37*
G36*
X47085290Y-7698450D02*
G01*
X47085290Y-7149979D01*
X47575632Y-7149979D01*
X47575632Y-7698450D01*
X47085290Y-7698450D01*
G37*
G36*
X47902527Y-9155799D02*
G01*
X47902527Y-8850104D01*
X47334223Y-8850104D01*
X47334223Y-8300949D01*
X47902527Y-8300949D01*
X47902527Y-8030816D01*
X48267035Y-8030816D01*
X48267035Y-8300949D01*
X49564355Y-8300949D01*
X49708119Y-8313903D01*
X49848127Y-8363829D01*
X49966888Y-8469890D01*
X50030687Y-8602155D01*
X50057205Y-8741784D01*
X50061536Y-8838478D01*
X50055230Y-8976854D01*
X50029335Y-9118041D01*
X50018452Y-9155799D01*
X49634795Y-9155799D01*
X49646421Y-9030648D01*
X49613205Y-8896721D01*
X49479656Y-8851887D01*
X49415953Y-8850104D01*
X48267035Y-8850104D01*
X48267035Y-9155799D01*
X47902527Y-9155799D01*
G37*
G36*
X48669840Y-11268304D02*
G01*
X50017768Y-11268304D01*
X50017768Y-11856441D01*
X47085290Y-11856441D01*
X47085290Y-11264200D01*
X48179498Y-11264200D01*
X48179498Y-10135115D01*
X47085290Y-10135115D01*
X47085290Y-9546978D01*
X50017768Y-9546978D01*
X50017768Y-10135115D01*
X48669840Y-10135115D01*
X48669840Y-11268304D01*
G37*
G36*
X50017768Y-14230188D02*
G01*
X47829352Y-14230188D01*
X47829352Y-13681032D01*
X49200531Y-13681032D01*
X49340133Y-13657066D01*
X49469740Y-13575038D01*
X49549478Y-13460663D01*
X49590818Y-13311388D01*
X49595130Y-13237878D01*
X49576827Y-13100462D01*
X49499216Y-12973558D01*
X49378746Y-12907628D01*
X49233272Y-12886023D01*
X49209422Y-12885680D01*
X47829352Y-12885680D01*
X47829352Y-12336524D01*
X49324997Y-12336524D01*
X49492715Y-12348373D01*
X49640020Y-12383488D01*
X49766312Y-12441218D01*
X49893712Y-12544196D01*
X49986165Y-12680230D01*
X50034177Y-12812004D01*
X50058471Y-12963474D01*
X50061536Y-13046392D01*
X50050559Y-13197691D01*
X50016709Y-13331526D01*
X49946466Y-13468661D01*
X49841022Y-13588806D01*
X49720964Y-13681032D01*
X50017768Y-13681032D01*
X50017768Y-14230188D01*
G37*
G36*
X50017768Y-15282679D02*
G01*
X49798926Y-15282679D01*
X49897143Y-15377872D01*
X49983349Y-15507121D01*
X50033824Y-15640234D01*
X50058983Y-15794013D01*
X50061536Y-15866713D01*
X50049112Y-16005619D01*
X49995858Y-16178598D01*
X49904199Y-16334779D01*
X49812566Y-16439040D01*
X49703118Y-16530823D01*
X49577477Y-16608829D01*
X49437267Y-16671761D01*
X49284109Y-16718320D01*
X49119627Y-16747207D01*
X48945444Y-16757124D01*
X48785954Y-16748239D01*
X48629115Y-16722395D01*
X48478442Y-16680809D01*
X48337453Y-16624697D01*
X48209664Y-16555279D01*
X48170608Y-16529392D01*
X48061914Y-16436610D01*
X47971270Y-16324345D01*
X47901003Y-16197058D01*
X47853437Y-16059214D01*
X47830900Y-15915275D01*
X47829352Y-15866713D01*
X47838333Y-15745666D01*
X48288235Y-15745666D01*
X48315919Y-15888640D01*
X48394877Y-16010652D01*
X48518968Y-16107185D01*
X48652426Y-16164907D01*
X48809409Y-16199184D01*
X48949547Y-16207969D01*
X49088184Y-16199352D01*
X49243430Y-16165607D01*
X49375363Y-16108510D01*
X49497994Y-16012455D01*
X49575996Y-15890164D01*
X49603337Y-15745666D01*
X49576622Y-15599581D01*
X49499544Y-15476857D01*
X49376701Y-15381091D01*
X49242690Y-15324473D01*
X49082752Y-15291157D01*
X48937921Y-15282679D01*
X48799461Y-15291297D01*
X48644830Y-15325057D01*
X48513775Y-15382195D01*
X48392280Y-15478360D01*
X48315198Y-15600851D01*
X48288235Y-15745666D01*
X47838333Y-15745666D01*
X47839833Y-15725456D01*
X47879073Y-15580765D01*
X47948263Y-15455931D01*
X48048304Y-15349062D01*
X48139150Y-15282679D01*
X47085290Y-15282679D01*
X47085290Y-14734207D01*
X50017768Y-14734207D01*
X50017768Y-15282679D01*
G37*
G36*
X49446044Y-17707718D02*
G01*
X49446044Y-17119581D01*
X50017768Y-17119581D01*
X50017768Y-17707718D01*
X49446044Y-17707718D01*
G37*
G36*
X48654111Y-20004187D02*
G01*
X48514774Y-19985344D01*
X48346715Y-19936365D01*
X48200036Y-19861305D01*
X48075963Y-19761456D01*
X47975723Y-19638107D01*
X47900541Y-19492549D01*
X47851643Y-19326072D01*
X47832957Y-19188261D01*
X47829352Y-19090523D01*
X47840220Y-18919214D01*
X47872444Y-18762587D01*
X47925452Y-18621116D01*
X47998672Y-18495275D01*
X48091534Y-18385536D01*
X48203466Y-18292373D01*
X48333897Y-18216259D01*
X48482254Y-18157668D01*
X48647968Y-18117073D01*
X48830466Y-18094947D01*
X48961173Y-18090690D01*
X49148395Y-18100234D01*
X49319972Y-18128526D01*
X49475301Y-18175055D01*
X49613775Y-18239310D01*
X49734790Y-18320781D01*
X49837740Y-18418958D01*
X49922020Y-18533330D01*
X49987025Y-18663386D01*
X50032150Y-18808617D01*
X50056790Y-18968510D01*
X50061536Y-19083000D01*
X50053278Y-19223179D01*
X50017365Y-19395920D01*
X49954410Y-19550885D01*
X49865959Y-19686343D01*
X49753561Y-19800564D01*
X49618760Y-19891816D01*
X49463104Y-19958368D01*
X49288141Y-19998489D01*
X49241564Y-20004187D01*
X49241564Y-19478967D01*
X49377474Y-19436350D01*
X49508142Y-19360986D01*
X49592704Y-19243603D01*
X49618755Y-19103260D01*
X49619066Y-19083000D01*
X49593690Y-18938746D01*
X49519637Y-18820466D01*
X49400018Y-18730191D01*
X49267771Y-18677816D01*
X49107840Y-18647472D01*
X48961173Y-18639846D01*
X48813669Y-18646984D01*
X48677192Y-18667714D01*
X48541308Y-18706005D01*
X48451683Y-18745847D01*
X48343599Y-18839662D01*
X48284057Y-18975887D01*
X48272506Y-19086420D01*
X48293279Y-19233251D01*
X48371520Y-19354412D01*
X48496654Y-19430712D01*
X48628708Y-19472940D01*
X48654111Y-19478967D01*
X48654111Y-20004187D01*
G37*
G36*
X49133054Y-20282592D02*
G01*
X49305695Y-20313101D01*
X49462604Y-20363098D01*
X49603023Y-20431887D01*
X49726189Y-20518770D01*
X49831342Y-20623053D01*
X49917722Y-20744037D01*
X49984568Y-20881028D01*
X50031118Y-21033327D01*
X50056613Y-21200239D01*
X50061536Y-21319288D01*
X50050514Y-21494590D01*
X50018007Y-21656086D01*
X49964853Y-21803026D01*
X49891891Y-21934659D01*
X49799960Y-22050235D01*
X49689897Y-22149003D01*
X49562541Y-22230212D01*
X49418732Y-22293111D01*
X49259306Y-22336951D01*
X49085104Y-22360981D01*
X48961173Y-22365624D01*
X48768751Y-22355493D01*
X48592360Y-22325471D01*
X48432634Y-22276117D01*
X48290203Y-22207988D01*
X48165700Y-22121643D01*
X48059759Y-22017638D01*
X47973009Y-21896533D01*
X47906085Y-21758884D01*
X47859619Y-21605249D01*
X47834241Y-21436188D01*
X47829518Y-21319288D01*
X48272506Y-21319288D01*
X48300027Y-21477225D01*
X48379292Y-21609350D01*
X48505349Y-21712065D01*
X48642570Y-21772599D01*
X48805985Y-21808130D01*
X48953651Y-21817152D01*
X49094947Y-21807821D01*
X49253054Y-21771316D01*
X49387319Y-21709635D01*
X49512028Y-21606044D01*
X49591297Y-21474432D01*
X49619066Y-21319288D01*
X49591594Y-21162620D01*
X49512677Y-21030728D01*
X49387562Y-20927615D01*
X49251795Y-20866559D01*
X49090627Y-20830586D01*
X48945444Y-20821423D01*
X48800487Y-20830586D01*
X48639523Y-20866559D01*
X48503888Y-20927615D01*
X48378859Y-21030728D01*
X48299973Y-21162620D01*
X48272506Y-21319288D01*
X47829518Y-21319288D01*
X47829352Y-21315184D01*
X47840485Y-21139967D01*
X47873336Y-20978701D01*
X47927085Y-20832105D01*
X48000908Y-20700895D01*
X48093985Y-20585787D01*
X48205495Y-20487498D01*
X48334615Y-20406745D01*
X48480523Y-20344246D01*
X48642399Y-20300716D01*
X48819421Y-20276872D01*
X48945444Y-20272267D01*
X49133054Y-20282592D01*
G37*
G36*
X47829352Y-22763642D02*
G01*
X50017768Y-22763642D01*
X50017768Y-23312798D01*
X48704718Y-23312798D01*
X48553578Y-23332535D01*
X48419540Y-23400873D01*
X48332120Y-23513866D01*
X48296897Y-23667155D01*
X48296442Y-23688932D01*
X48321110Y-23826907D01*
X48412381Y-23941446D01*
X48545283Y-23985783D01*
X48576833Y-23987103D01*
X50017768Y-23987103D01*
X50017768Y-24536259D01*
X48721131Y-24536259D01*
X48583660Y-24550811D01*
X48454095Y-24602893D01*
X48350921Y-24705131D01*
X48300616Y-24848754D01*
X48296442Y-24912393D01*
X48321110Y-25049938D01*
X48412381Y-25164260D01*
X48545283Y-25208561D01*
X48576833Y-25209881D01*
X50017768Y-25209881D01*
X50017768Y-25759036D01*
X48488612Y-25759036D01*
X48340905Y-25747425D01*
X48180261Y-25701226D01*
X48047791Y-25621503D01*
X47945125Y-25510054D01*
X47873890Y-25368680D01*
X47840625Y-25235245D01*
X47829352Y-25084731D01*
X47839508Y-24941364D01*
X47878142Y-24793430D01*
X47947461Y-24662382D01*
X48049399Y-24544096D01*
X48143253Y-24465136D01*
X48024777Y-24383166D01*
X47932648Y-24273431D01*
X47868671Y-24139582D01*
X47834649Y-23985270D01*
X47829352Y-23889309D01*
X47823047Y-23740846D01*
X47857955Y-23592782D01*
X47927279Y-23474323D01*
X48034596Y-23358933D01*
X48092646Y-23308695D01*
X47829352Y-23308695D01*
X47829352Y-22763642D01*
G37*
G36*
X47163937Y-26829309D02*
G01*
X50017768Y-26021646D01*
X50017768Y-26284256D01*
X47163937Y-27091919D01*
X47163937Y-26829309D01*
G37*
G36*
X50017768Y-29286489D02*
G01*
X50017768Y-29874626D01*
X47085290Y-29874626D01*
X47085290Y-29286489D01*
X49081536Y-29286489D01*
X47085290Y-28153300D01*
X47085290Y-27549434D01*
X50017768Y-27549434D01*
X50017768Y-28137571D01*
X47990064Y-28137571D01*
X50017768Y-29286489D01*
G37*
G36*
X47829352Y-30923014D02*
G01*
X47829352Y-30374542D01*
X50017768Y-30374542D01*
X50017768Y-30923014D01*
X47829352Y-30923014D01*
G37*
G36*
X47085290Y-30923014D02*
G01*
X47085290Y-30374542D01*
X47575632Y-30374542D01*
X47575632Y-30923014D01*
X47085290Y-30923014D01*
G37*
G36*
X48654111Y-33246838D02*
G01*
X48514774Y-33227995D01*
X48346715Y-33179016D01*
X48200036Y-33103957D01*
X48075963Y-33004108D01*
X47975723Y-32880759D01*
X47900541Y-32735201D01*
X47851643Y-32568723D01*
X47832957Y-32430913D01*
X47829352Y-32333175D01*
X47840220Y-32161865D01*
X47872444Y-32005239D01*
X47925452Y-31863768D01*
X47998672Y-31737927D01*
X48091534Y-31628188D01*
X48203466Y-31535025D01*
X48333897Y-31458911D01*
X48482254Y-31400320D01*
X48647968Y-31359724D01*
X48830466Y-31337598D01*
X48961173Y-31333342D01*
X49148395Y-31342886D01*
X49319972Y-31371178D01*
X49475301Y-31417707D01*
X49613775Y-31481962D01*
X49734790Y-31563433D01*
X49837740Y-31661610D01*
X49922020Y-31775982D01*
X49987025Y-31906038D01*
X50032150Y-32051268D01*
X50056790Y-32211162D01*
X50061536Y-32325652D01*
X50053278Y-32465831D01*
X50017365Y-32638572D01*
X49954410Y-32793537D01*
X49865959Y-32928995D01*
X49753561Y-33043216D01*
X49618760Y-33134467D01*
X49463104Y-33201020D01*
X49288141Y-33241141D01*
X49241564Y-33246838D01*
X49241564Y-32721618D01*
X49377474Y-32679001D01*
X49508142Y-32603638D01*
X49592704Y-32486254D01*
X49618755Y-32345912D01*
X49619066Y-32325652D01*
X49593690Y-32181398D01*
X49519637Y-32063118D01*
X49400018Y-31972843D01*
X49267771Y-31920468D01*
X49107840Y-31890123D01*
X48961173Y-31882498D01*
X48813669Y-31889636D01*
X48677192Y-31910366D01*
X48541308Y-31948657D01*
X48451683Y-31988499D01*
X48343599Y-32082314D01*
X48284057Y-32218539D01*
X48272506Y-32329071D01*
X48293279Y-32475903D01*
X48371520Y-32597063D01*
X48496654Y-32673364D01*
X48628708Y-32715592D01*
X48654111Y-32721618D01*
X48654111Y-33246838D01*
G37*
G36*
X47085290Y-33629811D02*
G01*
X50017768Y-33629811D01*
X50017768Y-34178283D01*
X48721131Y-34178283D01*
X48569622Y-34202502D01*
X48445301Y-34270722D01*
X48354739Y-34376285D01*
X48304508Y-34512533D01*
X48296442Y-34601605D01*
X48321632Y-34743598D01*
X48404790Y-34857595D01*
X48428431Y-34875840D01*
X48554776Y-34929734D01*
X48697196Y-34938757D01*
X50017768Y-34938757D01*
X50017768Y-35487913D01*
X48568626Y-35487913D01*
X48426121Y-35480452D01*
X48280401Y-35452716D01*
X48140050Y-35395553D01*
X48026587Y-35310796D01*
X47990748Y-35271807D01*
X47914915Y-35157761D01*
X47861864Y-35024818D01*
X47833602Y-34880373D01*
X47829352Y-34797878D01*
X47840685Y-34653262D01*
X47883394Y-34502866D01*
X47959249Y-34370239D01*
X48051756Y-34269140D01*
X48170608Y-34178283D01*
X47085290Y-34178283D01*
X47085290Y-33629811D01*
G37*
G36*
X49133054Y-35907882D02*
G01*
X49305695Y-35938391D01*
X49462604Y-35988388D01*
X49603023Y-36057176D01*
X49726189Y-36144060D01*
X49831342Y-36248342D01*
X49917722Y-36369327D01*
X49984568Y-36506317D01*
X50031118Y-36658616D01*
X50056613Y-36825528D01*
X50061536Y-36944577D01*
X50050514Y-37119879D01*
X50018007Y-37281376D01*
X49964853Y-37428316D01*
X49891891Y-37559949D01*
X49799960Y-37675525D01*
X49689897Y-37774292D01*
X49562541Y-37855501D01*
X49418732Y-37918401D01*
X49259306Y-37962241D01*
X49085104Y-37986270D01*
X48961173Y-37990914D01*
X48768751Y-37980783D01*
X48592360Y-37950761D01*
X48432634Y-37901407D01*
X48290203Y-37833278D01*
X48165700Y-37746932D01*
X48059759Y-37642928D01*
X47973009Y-37521822D01*
X47906085Y-37384173D01*
X47859619Y-37230539D01*
X47834241Y-37061477D01*
X47829518Y-36944577D01*
X48272506Y-36944577D01*
X48300027Y-37102515D01*
X48379292Y-37234640D01*
X48505349Y-37337355D01*
X48642570Y-37397889D01*
X48805985Y-37433419D01*
X48953651Y-37442442D01*
X49094947Y-37433111D01*
X49253054Y-37396606D01*
X49387319Y-37334925D01*
X49512028Y-37231334D01*
X49591297Y-37099722D01*
X49619066Y-36944577D01*
X49591594Y-36787909D01*
X49512677Y-36656017D01*
X49387562Y-36552904D01*
X49251795Y-36491849D01*
X49090627Y-36455876D01*
X48945444Y-36446713D01*
X48800487Y-36455876D01*
X48639523Y-36491849D01*
X48503888Y-36552904D01*
X48378859Y-36656017D01*
X48299973Y-36787909D01*
X48272506Y-36944577D01*
X47829518Y-36944577D01*
X47829352Y-36940474D01*
X47840485Y-36765256D01*
X47873336Y-36603991D01*
X47927085Y-36457395D01*
X48000908Y-36326184D01*
X48093985Y-36211076D01*
X48205495Y-36112788D01*
X48334615Y-36032035D01*
X48480523Y-35969535D01*
X48642399Y-35926005D01*
X48819421Y-35902162D01*
X48945444Y-35897557D01*
X49133054Y-35907882D01*
G37*
G36*
X47085290Y-38965443D02*
G01*
X47085290Y-38416971D01*
X50017768Y-38416971D01*
X50017768Y-38965443D01*
X47085290Y-38965443D01*
G37*
G36*
X49596247Y-39370735D02*
G01*
X49743023Y-39423515D01*
X49865620Y-39508059D01*
X49961062Y-39621563D01*
X50026375Y-39761226D01*
X50058587Y-39924246D01*
X50061536Y-39995366D01*
X50047411Y-40146485D01*
X50004693Y-40291359D01*
X49932867Y-40430415D01*
X49847742Y-40545302D01*
X49759945Y-40638213D01*
X49901724Y-40645849D01*
X50017768Y-40701130D01*
X50017768Y-41296789D01*
X49904928Y-41296789D01*
X49796533Y-41206978D01*
X49656233Y-41171733D01*
X49646421Y-41171639D01*
X48479038Y-41171639D01*
X48327815Y-41157886D01*
X48196339Y-41116747D01*
X48059959Y-41027096D01*
X47954884Y-40895304D01*
X47893532Y-40759771D01*
X47852505Y-40597683D01*
X47835149Y-40458801D01*
X47829352Y-40305163D01*
X47835772Y-40151396D01*
X47855034Y-40012035D01*
X47900699Y-39848540D01*
X47969209Y-39710434D01*
X48060572Y-39597588D01*
X48174795Y-39509875D01*
X48311886Y-39447167D01*
X48471854Y-39409334D01*
X48560420Y-39399706D01*
X48560420Y-39929030D01*
X48423686Y-39963170D01*
X48319368Y-40055727D01*
X48277957Y-40202892D01*
X48272506Y-40316789D01*
X48285692Y-40455916D01*
X48346718Y-40582311D01*
X48482457Y-40634794D01*
X48972115Y-40634794D01*
X49121201Y-40634794D01*
X49259760Y-40623411D01*
X49398174Y-40580507D01*
X49519059Y-40491940D01*
X49593606Y-40364066D01*
X49618538Y-40224901D01*
X49619066Y-40199162D01*
X49596594Y-40061617D01*
X49513512Y-39947295D01*
X49378489Y-39902006D01*
X49363979Y-39901674D01*
X49222524Y-39934443D01*
X49128979Y-40041637D01*
X49083235Y-40173957D01*
X49074013Y-40214891D01*
X49038452Y-40402958D01*
X49010271Y-40537141D01*
X48972115Y-40634794D01*
X48482457Y-40634794D01*
X48611202Y-40584251D01*
X48645905Y-40540418D01*
X48693349Y-40403689D01*
X48716921Y-40264370D01*
X48727970Y-40195059D01*
X48766951Y-39975533D01*
X48799911Y-39828402D01*
X48860477Y-39672680D01*
X48942968Y-39548035D01*
X49047825Y-39454201D01*
X49175484Y-39390912D01*
X49326385Y-39357902D01*
X49428263Y-39352519D01*
X49596247Y-39370735D01*
G37*
G36*
X48544690Y-43394249D02*
G01*
X48386327Y-43375817D01*
X48245386Y-43327058D01*
X48123006Y-43249320D01*
X48020325Y-43143949D01*
X47938482Y-43012292D01*
X47878613Y-42855694D01*
X47841857Y-42675502D01*
X47830142Y-42525685D01*
X47829352Y-42473063D01*
X47836403Y-42327555D01*
X47867091Y-42151367D01*
X47920937Y-41996935D01*
X47996669Y-41865775D01*
X48093011Y-41759400D01*
X48208690Y-41679326D01*
X48342430Y-41627068D01*
X48492959Y-41604139D01*
X48533064Y-41603168D01*
X48669860Y-41617969D01*
X48807247Y-41670968D01*
X48875688Y-41720795D01*
X48961112Y-41835215D01*
X49016301Y-41964373D01*
X49050762Y-42065471D01*
X49253190Y-42719944D01*
X49308295Y-42845666D01*
X49424160Y-42904591D01*
X49553963Y-42832229D01*
X49608686Y-42704263D01*
X49628659Y-42565838D01*
X49630692Y-42496999D01*
X49622282Y-42360044D01*
X49586160Y-42223342D01*
X49556833Y-42171472D01*
X49445829Y-42088513D01*
X49358508Y-42065471D01*
X49358508Y-41528625D01*
X49522036Y-41549707D01*
X49664255Y-41600988D01*
X49785012Y-41682209D01*
X49884155Y-41793115D01*
X49961531Y-41933450D01*
X50016988Y-42102956D01*
X50044105Y-42249075D01*
X50058742Y-42411351D01*
X50061536Y-42528457D01*
X50054963Y-42686147D01*
X50035209Y-42829231D01*
X49995431Y-42977846D01*
X49937552Y-43106900D01*
X49873469Y-43202079D01*
X49767340Y-43307653D01*
X49640437Y-43386556D01*
X49498404Y-43435966D01*
X49346882Y-43453063D01*
X49203681Y-43438606D01*
X49062468Y-43385022D01*
X48948855Y-43291610D01*
X48862584Y-43158069D01*
X48817558Y-43037948D01*
X48618549Y-42343810D01*
X48569118Y-42215987D01*
X48455102Y-42151639D01*
X48327824Y-42218913D01*
X48271657Y-42353678D01*
X48260880Y-42469644D01*
X48274282Y-42622916D01*
X48322682Y-42751808D01*
X48433465Y-42844539D01*
X48544690Y-42864926D01*
X48544690Y-43394249D01*
G37*
G36*
X48617182Y-44820823D02*
G01*
X48617182Y-43754654D01*
X49146505Y-43754654D01*
X49146505Y-44820823D01*
X48617182Y-44820823D01*
G37*
G36*
X47085290Y-45858953D02*
G01*
X47085290Y-45270816D01*
X50017768Y-45270816D01*
X50017768Y-47227397D01*
X49528110Y-47227397D01*
X49528110Y-45858953D01*
X47085290Y-45858953D01*
G37*
G36*
X48617182Y-48467271D02*
G01*
X48617182Y-47401102D01*
X49146505Y-47401102D01*
X49146505Y-48467271D01*
X48617182Y-48467271D01*
G37*
G36*
X47085290Y-50060711D02*
G01*
X49223099Y-50060711D01*
X49367815Y-50039682D01*
X49493584Y-49956685D01*
X49551612Y-49831581D01*
X49560252Y-49742707D01*
X49538689Y-49599071D01*
X49446894Y-49482442D01*
X49316742Y-49435566D01*
X49183434Y-49425387D01*
X48905779Y-49425387D01*
X48905779Y-48837250D01*
X49190957Y-48837250D01*
X49348917Y-48844864D01*
X49485816Y-48868445D01*
X49623531Y-48917617D01*
X49742789Y-48991793D01*
X49834488Y-49076608D01*
X49922044Y-49192579D01*
X49988750Y-49324000D01*
X50034177Y-49470613D01*
X50055852Y-49608179D01*
X50061536Y-49731081D01*
X50053639Y-49888655D01*
X50030165Y-50032588D01*
X49975204Y-50202578D01*
X49893912Y-50346633D01*
X49787067Y-50463793D01*
X49655446Y-50553096D01*
X49499826Y-50613579D01*
X49320985Y-50644281D01*
X49223099Y-50648164D01*
X47085290Y-50648164D01*
X47085290Y-50060711D01*
G37*
G36*
X49133054Y-51068133D02*
G01*
X49305695Y-51098642D01*
X49462604Y-51148639D01*
X49603023Y-51217427D01*
X49726189Y-51304311D01*
X49831342Y-51408594D01*
X49917722Y-51529578D01*
X49984568Y-51666568D01*
X50031118Y-51818868D01*
X50056613Y-51985780D01*
X50061536Y-52104829D01*
X50050514Y-52280131D01*
X50018007Y-52441627D01*
X49964853Y-52588567D01*
X49891891Y-52720200D01*
X49799960Y-52835776D01*
X49689897Y-52934544D01*
X49562541Y-53015753D01*
X49418732Y-53078652D01*
X49259306Y-53122492D01*
X49085104Y-53146522D01*
X48961173Y-53151165D01*
X48768751Y-53141034D01*
X48592360Y-53111012D01*
X48432634Y-53061658D01*
X48290203Y-52993529D01*
X48165700Y-52907184D01*
X48059759Y-52803179D01*
X47973009Y-52682073D01*
X47906085Y-52544424D01*
X47859619Y-52390790D01*
X47834241Y-52221728D01*
X47829518Y-52104829D01*
X48272506Y-52104829D01*
X48300027Y-52262766D01*
X48379292Y-52394891D01*
X48505349Y-52497606D01*
X48642570Y-52558140D01*
X48805985Y-52593670D01*
X48953651Y-52602693D01*
X49094947Y-52593362D01*
X49253054Y-52556857D01*
X49387319Y-52495176D01*
X49512028Y-52391585D01*
X49591297Y-52259973D01*
X49619066Y-52104829D01*
X49591594Y-51948161D01*
X49512677Y-51816269D01*
X49387562Y-51713156D01*
X49251795Y-51652100D01*
X49090627Y-51616127D01*
X48945444Y-51606964D01*
X48800487Y-51616127D01*
X48639523Y-51652100D01*
X48503888Y-51713156D01*
X48378859Y-51816269D01*
X48299973Y-51948161D01*
X48272506Y-52104829D01*
X47829518Y-52104829D01*
X47829352Y-52100725D01*
X47840485Y-51925508D01*
X47873336Y-51764242D01*
X47927085Y-51617646D01*
X48000908Y-51486435D01*
X48093985Y-51371327D01*
X48205495Y-51273039D01*
X48334615Y-51192286D01*
X48480523Y-51129787D01*
X48642399Y-51086257D01*
X48819421Y-51062413D01*
X48945444Y-51057808D01*
X49133054Y-51068133D01*
G37*
G36*
X47085290Y-53577222D02*
G01*
X50017768Y-53577222D01*
X50017768Y-54125694D01*
X48721131Y-54125694D01*
X48569622Y-54149913D01*
X48445301Y-54218133D01*
X48354739Y-54323696D01*
X48304508Y-54459944D01*
X48296442Y-54549016D01*
X48321632Y-54691009D01*
X48404790Y-54805006D01*
X48428431Y-54823251D01*
X48554776Y-54877145D01*
X48697196Y-54886168D01*
X50017768Y-54886168D01*
X50017768Y-55435324D01*
X48568626Y-55435324D01*
X48426121Y-55427863D01*
X48280401Y-55400127D01*
X48140050Y-55342964D01*
X48026587Y-55258207D01*
X47990748Y-55219218D01*
X47914915Y-55105172D01*
X47861864Y-54972229D01*
X47833602Y-54827785D01*
X47829352Y-54745289D01*
X47840685Y-54600673D01*
X47883394Y-54450277D01*
X47959249Y-54317650D01*
X48051756Y-54216551D01*
X48170608Y-54125694D01*
X47085290Y-54125694D01*
X47085290Y-53577222D01*
G37*
G36*
X47829352Y-55955073D02*
G01*
X50017768Y-55955073D01*
X50017768Y-56503545D01*
X48704718Y-56503545D01*
X48558508Y-56527511D01*
X48438971Y-56596319D01*
X48352163Y-56705329D01*
X48304140Y-56849903D01*
X48296442Y-56946699D01*
X48315311Y-57084199D01*
X48394493Y-57211360D01*
X48515999Y-57277526D01*
X48661208Y-57299236D01*
X48684886Y-57299581D01*
X50017768Y-57299581D01*
X50017768Y-57848053D01*
X48568626Y-57848053D01*
X48400202Y-57836233D01*
X48252310Y-57801196D01*
X48125544Y-57743575D01*
X47997697Y-57640755D01*
X47904944Y-57504873D01*
X47856788Y-57373193D01*
X47832425Y-57221779D01*
X47829352Y-57138869D01*
X47840392Y-56987253D01*
X47874396Y-56853218D01*
X47944859Y-56715962D01*
X48050486Y-56595775D01*
X48170608Y-56503545D01*
X47829352Y-56503545D01*
X47829352Y-55955073D01*
G37*
G36*
X48544690Y-60080921D02*
G01*
X48386327Y-60062488D01*
X48245386Y-60013729D01*
X48123006Y-59935992D01*
X48020325Y-59830621D01*
X47938482Y-59698963D01*
X47878613Y-59542365D01*
X47841857Y-59362173D01*
X47830142Y-59212356D01*
X47829352Y-59159734D01*
X47836403Y-59014226D01*
X47867091Y-58838038D01*
X47920937Y-58683606D01*
X47996669Y-58552446D01*
X48093011Y-58446071D01*
X48208690Y-58365998D01*
X48342430Y-58313739D01*
X48492959Y-58290811D01*
X48533064Y-58289839D01*
X48669860Y-58304640D01*
X48807247Y-58357639D01*
X48875688Y-58407466D01*
X48961112Y-58521886D01*
X49016301Y-58651044D01*
X49050762Y-58752142D01*
X49253190Y-59406615D01*
X49308295Y-59532338D01*
X49424160Y-59591263D01*
X49553963Y-59518901D01*
X49608686Y-59390935D01*
X49628659Y-59252510D01*
X49630692Y-59183670D01*
X49622282Y-59046715D01*
X49586160Y-58910013D01*
X49556833Y-58858143D01*
X49445829Y-58775184D01*
X49358508Y-58752142D01*
X49358508Y-58215296D01*
X49522036Y-58236379D01*
X49664255Y-58287659D01*
X49785012Y-58368881D01*
X49884155Y-58479787D01*
X49961531Y-58620121D01*
X50016988Y-58789627D01*
X50044105Y-58935746D01*
X50058742Y-59098022D01*
X50061536Y-59215129D01*
X50054963Y-59372818D01*
X50035209Y-59515902D01*
X49995431Y-59664517D01*
X49937552Y-59793572D01*
X49873469Y-59888750D01*
X49767340Y-59994324D01*
X49640437Y-60073227D01*
X49498404Y-60122637D01*
X49346882Y-60139734D01*
X49203681Y-60125277D01*
X49062468Y-60071693D01*
X48948855Y-59978281D01*
X48862584Y-59844741D01*
X48817558Y-59724619D01*
X48618549Y-59030481D01*
X48569118Y-58902658D01*
X48455102Y-58838311D01*
X48327824Y-58905585D01*
X48271657Y-59040349D01*
X48260880Y-59156315D01*
X48274282Y-59309587D01*
X48322682Y-59438479D01*
X48433465Y-59531211D01*
X48544690Y-59551598D01*
X48544690Y-60080921D01*
G37*
G36*
X49133054Y-60426346D02*
G01*
X49305695Y-60456855D01*
X49462604Y-60506852D01*
X49603023Y-60575641D01*
X49726189Y-60662525D01*
X49831342Y-60766807D01*
X49917722Y-60887792D01*
X49984568Y-61024782D01*
X50031118Y-61177081D01*
X50056613Y-61343993D01*
X50061536Y-61463042D01*
X50050514Y-61638344D01*
X50018007Y-61799841D01*
X49964853Y-61946781D01*
X49891891Y-62078414D01*
X49799960Y-62193990D01*
X49689897Y-62292757D01*
X49562541Y-62373966D01*
X49418732Y-62436866D01*
X49259306Y-62480706D01*
X49085104Y-62504735D01*
X48961173Y-62509378D01*
X48768751Y-62499247D01*
X48592360Y-62469226D01*
X48432634Y-62419872D01*
X48290203Y-62351743D01*
X48165700Y-62265397D01*
X48059759Y-62161393D01*
X47973009Y-62040287D01*
X47906085Y-61902638D01*
X47859619Y-61749004D01*
X47834241Y-61579942D01*
X47829518Y-61463042D01*
X48272506Y-61463042D01*
X48300027Y-61620980D01*
X48379292Y-61753105D01*
X48505349Y-61855819D01*
X48642570Y-61916354D01*
X48805985Y-61951884D01*
X48953651Y-61960907D01*
X49094947Y-61951575D01*
X49253054Y-61915070D01*
X49387319Y-61853390D01*
X49512028Y-61749799D01*
X49591297Y-61618186D01*
X49619066Y-61463042D01*
X49591594Y-61306374D01*
X49512677Y-61174482D01*
X49387562Y-61071369D01*
X49251795Y-61010314D01*
X49090627Y-60974340D01*
X48945444Y-60965177D01*
X48800487Y-60974340D01*
X48639523Y-61010314D01*
X48503888Y-61071369D01*
X48378859Y-61174482D01*
X48299973Y-61306374D01*
X48272506Y-61463042D01*
X47829518Y-61463042D01*
X47829352Y-61458939D01*
X47840485Y-61283721D01*
X47873336Y-61122456D01*
X47927085Y-60975859D01*
X48000908Y-60844649D01*
X48093985Y-60729541D01*
X48205495Y-60631252D01*
X48334615Y-60550500D01*
X48480523Y-60488000D01*
X48642399Y-60444470D01*
X48819421Y-60420627D01*
X48945444Y-60416022D01*
X49133054Y-60426346D01*
G37*
G36*
X47829352Y-62919706D02*
G01*
X50017768Y-62919706D01*
X50017768Y-63468178D01*
X48704718Y-63468178D01*
X48558508Y-63492145D01*
X48438971Y-63560953D01*
X48352163Y-63669963D01*
X48304140Y-63814537D01*
X48296442Y-63911332D01*
X48315311Y-64048832D01*
X48394493Y-64175994D01*
X48515999Y-64242159D01*
X48661208Y-64263870D01*
X48684886Y-64264214D01*
X50017768Y-64264214D01*
X50017768Y-64812686D01*
X48568626Y-64812686D01*
X48400202Y-64800867D01*
X48252310Y-64765830D01*
X48125544Y-64708209D01*
X47997697Y-64605388D01*
X47904944Y-64469506D01*
X47856788Y-64337827D01*
X47832425Y-64186413D01*
X47829352Y-64103503D01*
X47840392Y-63951887D01*
X47874396Y-63817852D01*
X47944859Y-63680595D01*
X48050486Y-63560409D01*
X48170608Y-63468178D01*
X47829352Y-63468178D01*
X47829352Y-62919706D01*
G37*
G36*
X47163937Y-65881591D02*
G01*
X50017768Y-65073928D01*
X50017768Y-65336538D01*
X47163937Y-66144200D01*
X47163937Y-65881591D01*
G37*
G36*
X47873120Y-67546154D02*
G01*
X47873120Y-67220628D01*
X47663853Y-67220628D01*
X47529073Y-67266758D01*
X47496986Y-67369713D01*
X47507096Y-67511023D01*
X47509296Y-67526322D01*
X47097600Y-67526322D01*
X47089630Y-67386783D01*
X47085483Y-67244843D01*
X47085290Y-67212421D01*
X47098007Y-67055288D01*
X47147098Y-66902718D01*
X47233528Y-66788976D01*
X47357757Y-66713601D01*
X47490488Y-66679765D01*
X47615981Y-66671472D01*
X47873120Y-66671472D01*
X47873120Y-66373984D01*
X48238312Y-66373984D01*
X48238312Y-66671472D01*
X50017768Y-66671472D01*
X50017768Y-67220628D01*
X48238312Y-67220628D01*
X48238312Y-67546154D01*
X47873120Y-67546154D01*
G37*
G36*
X47085290Y-68435882D02*
G01*
X47085290Y-67886727D01*
X50017768Y-67886727D01*
X50017768Y-68435882D01*
X47085290Y-68435882D01*
G37*
G36*
X47829352Y-69523935D02*
G01*
X47829352Y-68975464D01*
X50017768Y-68975464D01*
X50017768Y-69523935D01*
X47829352Y-69523935D01*
G37*
G36*
X47085290Y-69523935D02*
G01*
X47085290Y-68975464D01*
X47575632Y-68975464D01*
X47575632Y-69523935D01*
X47085290Y-69523935D01*
G37*
G36*
X50822695Y-70577794D02*
G01*
X49716861Y-70577794D01*
X49836028Y-70658477D01*
X49942375Y-70768676D01*
X50014509Y-70897448D01*
X50053459Y-71046125D01*
X50061536Y-71165247D01*
X50049183Y-71305000D01*
X49996105Y-71478273D01*
X49904467Y-71634015D01*
X49812583Y-71737610D01*
X49702527Y-71828551D01*
X49575808Y-71905641D01*
X49433932Y-71967683D01*
X49278409Y-72013481D01*
X49110746Y-72041838D01*
X48932450Y-72051556D01*
X48791471Y-72045362D01*
X48652839Y-72027250D01*
X48518903Y-71997925D01*
X48367685Y-71948924D01*
X48230667Y-71886007D01*
X48130259Y-71823824D01*
X48026251Y-71715250D01*
X47949635Y-71600522D01*
X47888730Y-71471193D01*
X47847458Y-71332375D01*
X47829740Y-71189180D01*
X47829352Y-71165247D01*
X47840035Y-71040097D01*
X48288235Y-71040097D01*
X48315256Y-71186119D01*
X48393037Y-71308690D01*
X48516656Y-71404267D01*
X48651134Y-71460738D01*
X48811176Y-71493952D01*
X48955702Y-71502400D01*
X49093682Y-71493783D01*
X49247802Y-71460038D01*
X49378446Y-71402941D01*
X49499580Y-71306887D01*
X49576446Y-71184595D01*
X49603337Y-71040097D01*
X49576392Y-70894076D01*
X49499148Y-70771505D01*
X49376985Y-70675928D01*
X49244755Y-70619457D01*
X49088184Y-70586243D01*
X48947496Y-70577794D01*
X48805679Y-70586243D01*
X48648087Y-70619457D01*
X48515195Y-70675928D01*
X48392605Y-70771505D01*
X48315202Y-70894076D01*
X48288235Y-71040097D01*
X47840035Y-71040097D01*
X47841442Y-71023616D01*
X47886357Y-70877864D01*
X47964859Y-70751827D01*
X48077379Y-70644173D01*
X48178815Y-70577794D01*
X47829352Y-70577794D01*
X47829352Y-70028639D01*
X50822695Y-70028639D01*
X50822695Y-70577794D01*
G37*
G36*
X48617182Y-73363237D02*
G01*
X48617182Y-72297069D01*
X49146505Y-72297069D01*
X49146505Y-73363237D01*
X48617182Y-73363237D01*
G37*
G36*
X48654111Y-75546182D02*
G01*
X48514774Y-75527339D01*
X48346715Y-75478360D01*
X48200036Y-75403301D01*
X48075963Y-75303452D01*
X47975723Y-75180103D01*
X47900541Y-75034545D01*
X47851643Y-74868067D01*
X47832957Y-74730257D01*
X47829352Y-74632519D01*
X47840220Y-74461210D01*
X47872444Y-74304583D01*
X47925452Y-74163112D01*
X47998672Y-74037271D01*
X48091534Y-73927532D01*
X48203466Y-73834369D01*
X48333897Y-73758255D01*
X48482254Y-73699664D01*
X48647968Y-73659068D01*
X48830466Y-73636942D01*
X48961173Y-73632686D01*
X49148395Y-73642230D01*
X49319972Y-73670522D01*
X49475301Y-73717051D01*
X49613775Y-73781306D01*
X49734790Y-73862777D01*
X49837740Y-73960954D01*
X49922020Y-74075326D01*
X49987025Y-74205382D01*
X50032150Y-74350612D01*
X50056790Y-74510506D01*
X50061536Y-74624996D01*
X50053278Y-74765175D01*
X50017365Y-74937916D01*
X49954410Y-75092881D01*
X49865959Y-75228339D01*
X49753561Y-75342560D01*
X49618760Y-75433811D01*
X49463104Y-75500364D01*
X49288141Y-75540485D01*
X49241564Y-75546182D01*
X49241564Y-75020963D01*
X49377474Y-74978345D01*
X49508142Y-74902982D01*
X49592704Y-74785599D01*
X49618755Y-74645256D01*
X49619066Y-74624996D01*
X49593690Y-74480742D01*
X49519637Y-74362462D01*
X49400018Y-74272187D01*
X49267771Y-74219812D01*
X49107840Y-74189467D01*
X48961173Y-74181842D01*
X48813669Y-74188980D01*
X48677192Y-74209710D01*
X48541308Y-74248001D01*
X48451683Y-74287843D01*
X48343599Y-74381658D01*
X48284057Y-74517883D01*
X48272506Y-74628415D01*
X48293279Y-74775247D01*
X48371520Y-74896407D01*
X48496654Y-74972708D01*
X48628708Y-75014936D01*
X48654111Y-75020963D01*
X48654111Y-75546182D01*
G37*
G36*
X49596247Y-75827008D02*
G01*
X49743023Y-75879789D01*
X49865620Y-75964332D01*
X49961062Y-76077836D01*
X50026375Y-76217499D01*
X50058587Y-76380519D01*
X50061536Y-76451639D01*
X50047411Y-76602759D01*
X50004693Y-76747632D01*
X49932867Y-76886689D01*
X49847742Y-77001576D01*
X49759945Y-77094487D01*
X49901724Y-77102123D01*
X50017768Y-77157404D01*
X50017768Y-77753063D01*
X49904928Y-77753063D01*
X49796533Y-77663251D01*
X49656233Y-77628006D01*
X49646421Y-77627913D01*
X48479038Y-77627913D01*
X48327815Y-77614159D01*
X48196339Y-77573021D01*
X48059959Y-77483369D01*
X47954884Y-77351577D01*
X47893532Y-77216044D01*
X47852505Y-77053957D01*
X47835149Y-76915075D01*
X47829352Y-76761437D01*
X47835772Y-76607669D01*
X47855034Y-76468309D01*
X47900699Y-76304814D01*
X47969209Y-76166707D01*
X48060572Y-76053862D01*
X48174795Y-75966149D01*
X48311886Y-75903440D01*
X48471854Y-75865608D01*
X48560420Y-75855980D01*
X48560420Y-76385303D01*
X48423686Y-76419444D01*
X48319368Y-76512000D01*
X48277957Y-76659166D01*
X48272506Y-76773063D01*
X48285692Y-76912190D01*
X48346718Y-77038584D01*
X48482457Y-77091067D01*
X48972115Y-77091067D01*
X49121201Y-77091067D01*
X49259760Y-77079685D01*
X49398174Y-77036781D01*
X49519059Y-76948213D01*
X49593606Y-76820339D01*
X49618538Y-76681174D01*
X49619066Y-76655436D01*
X49596594Y-76517890D01*
X49513512Y-76403569D01*
X49378489Y-76358279D01*
X49363979Y-76357948D01*
X49222524Y-76390716D01*
X49128979Y-76497911D01*
X49083235Y-76630231D01*
X49074013Y-76671165D01*
X49038452Y-76859232D01*
X49010271Y-76993415D01*
X48972115Y-77091067D01*
X48482457Y-77091067D01*
X48611202Y-77040524D01*
X48645905Y-76996692D01*
X48693349Y-76859963D01*
X48716921Y-76720643D01*
X48727970Y-76651332D01*
X48766951Y-76431807D01*
X48799911Y-76284675D01*
X48860477Y-76128953D01*
X48942968Y-76004309D01*
X49047825Y-75910475D01*
X49175484Y-75847186D01*
X49326385Y-75814175D01*
X49428263Y-75808792D01*
X49596247Y-75827008D01*
G37*
G36*
X47829352Y-78123726D02*
G01*
X50017768Y-78123726D01*
X50017768Y-78672198D01*
X48854488Y-78672198D01*
X48716411Y-78683969D01*
X48581463Y-78729169D01*
X48466516Y-78824748D01*
X48397454Y-78966470D01*
X48374875Y-79124670D01*
X48374404Y-79154333D01*
X48385222Y-79294350D01*
X48390133Y-79326671D01*
X47833455Y-79326671D01*
X47829352Y-79260334D01*
X47846451Y-79123290D01*
X47908066Y-78975952D01*
X47994645Y-78863048D01*
X48110593Y-78764925D01*
X48254207Y-78683883D01*
X48280713Y-78672198D01*
X47829352Y-78672198D01*
X47829352Y-78123726D01*
G37*
G36*
X49106942Y-79520245D02*
G01*
X49269125Y-79543322D01*
X49425574Y-79582295D01*
X49572610Y-79635918D01*
X49706554Y-79702948D01*
X49767468Y-79741102D01*
X49869542Y-79851439D01*
X49944447Y-79966643D01*
X50003822Y-80096091D01*
X50043962Y-80235241D01*
X50061160Y-80379548D01*
X50061536Y-80403782D01*
X50051492Y-80544941D01*
X50013497Y-80688817D01*
X49945731Y-80812941D01*
X49846647Y-80920106D01*
X49755842Y-80987815D01*
X50017768Y-80987815D01*
X50017768Y-81536971D01*
X47085290Y-81536971D01*
X47085290Y-80987815D01*
X48139150Y-80987815D01*
X48016520Y-80891055D01*
X47925386Y-80779330D01*
X47864845Y-80649847D01*
X47839280Y-80525512D01*
X48288235Y-80525512D01*
X48316162Y-80671534D01*
X48396536Y-80794105D01*
X48524243Y-80889682D01*
X48663135Y-80946153D01*
X48828390Y-80979367D01*
X48977586Y-80987815D01*
X49139142Y-80974430D01*
X49282723Y-80935827D01*
X49425870Y-80859502D01*
X49530933Y-80754254D01*
X49591259Y-80624113D01*
X49603337Y-80525512D01*
X49575996Y-80380697D01*
X49497994Y-80258206D01*
X49375363Y-80162042D01*
X49243430Y-80104903D01*
X49088184Y-80071144D01*
X48949547Y-80062526D01*
X48808428Y-80071144D01*
X48650935Y-80104903D01*
X48517548Y-80162042D01*
X48393975Y-80258206D01*
X48315626Y-80380697D01*
X48288235Y-80525512D01*
X47839280Y-80525512D01*
X47833996Y-80499815D01*
X47829352Y-80403782D01*
X47841927Y-80265050D01*
X47895902Y-80092254D01*
X47988962Y-79936206D01*
X48082150Y-79832017D01*
X48193632Y-79740285D01*
X48321826Y-79662313D01*
X48465148Y-79599402D01*
X48622016Y-79552854D01*
X48790849Y-79523971D01*
X48970064Y-79514054D01*
X49106942Y-79520245D01*
G37*
D12*
G36*
X11339420Y-8347711D02*
G01*
X11339420Y-9818053D01*
X4008227Y-9818053D01*
X4008227Y-8347711D01*
X8998841Y-8347711D01*
X4008227Y-5514738D01*
X4008227Y-4005073D01*
X11339420Y-4005073D01*
X11339420Y-5475415D01*
X6270160Y-5475415D01*
X11339420Y-8347711D01*
G37*
G36*
X5868381Y-12439023D02*
G01*
X5868381Y-11067843D01*
X11339420Y-11067843D01*
X11339420Y-12439023D01*
X5868381Y-12439023D01*
G37*
G36*
X4008227Y-12439023D02*
G01*
X4008227Y-11067843D01*
X5234082Y-11067843D01*
X5234082Y-12439023D01*
X4008227Y-12439023D01*
G37*
G36*
X7930279Y-18248583D02*
G01*
X7581936Y-18201476D01*
X7161788Y-18079028D01*
X6795091Y-17891380D01*
X6484909Y-17641757D01*
X6234307Y-17333385D01*
X6046352Y-16969489D01*
X5924108Y-16553295D01*
X5877393Y-16208770D01*
X5868381Y-15964424D01*
X5895551Y-15536151D01*
X5976110Y-15144584D01*
X6108630Y-14790907D01*
X6291682Y-14476304D01*
X6523836Y-14201956D01*
X6803666Y-13969049D01*
X7129742Y-13778764D01*
X7500636Y-13632286D01*
X7914920Y-13530798D01*
X8371165Y-13475483D01*
X8697934Y-13464842D01*
X9165988Y-13488702D01*
X9594932Y-13559432D01*
X9983253Y-13675753D01*
X10329438Y-13836392D01*
X10631975Y-14040070D01*
X10889351Y-14285512D01*
X11100051Y-14571442D01*
X11262564Y-14896583D01*
X11375376Y-15259658D01*
X11436975Y-15659392D01*
X11448841Y-15945617D01*
X11428196Y-16296065D01*
X11338413Y-16727916D01*
X11181025Y-17115329D01*
X10959899Y-17453974D01*
X10678902Y-17739526D01*
X10341901Y-17967656D01*
X9952762Y-18134036D01*
X9515352Y-18234339D01*
X9398911Y-18248583D01*
X9398911Y-16935533D01*
X9738686Y-16828991D01*
X10065356Y-16640581D01*
X10276761Y-16347123D01*
X10341889Y-15996267D01*
X10342665Y-15945617D01*
X10279226Y-15584981D01*
X10094094Y-15289283D01*
X9795045Y-15063593D01*
X9464427Y-14932657D01*
X9064601Y-14856795D01*
X8697934Y-14837732D01*
X8329173Y-14855577D01*
X7987981Y-14907402D01*
X7648270Y-15003129D01*
X7424207Y-15102735D01*
X7153998Y-15337271D01*
X7005144Y-15677835D01*
X6976266Y-15954166D01*
X7028198Y-16321244D01*
X7223800Y-16624146D01*
X7536635Y-16814897D01*
X7866771Y-16920466D01*
X7930279Y-16935533D01*
X7930279Y-18248583D01*
G37*
G36*
X7995247Y-20525903D02*
G01*
X4008227Y-20525903D01*
X4008227Y-19154724D01*
X11339420Y-19154724D01*
X11339420Y-20525903D01*
X9549364Y-20525903D01*
X8930453Y-21074717D01*
X11339420Y-22339895D01*
X11339420Y-23947013D01*
X7933698Y-22016762D01*
X5868381Y-23818785D01*
X5868381Y-22261249D01*
X7995247Y-20525903D01*
G37*
G36*
X4008227Y-30035254D02*
G01*
X9352749Y-30035254D01*
X9714538Y-29982681D01*
X10028960Y-29775188D01*
X10174032Y-29462429D01*
X10195631Y-29240244D01*
X10141722Y-28881153D01*
X9912236Y-28589582D01*
X9586855Y-28472391D01*
X9253586Y-28446943D01*
X8559448Y-28446943D01*
X8559448Y-26976601D01*
X9272393Y-26976601D01*
X9667294Y-26995636D01*
X10009541Y-27054589D01*
X10353828Y-27177519D01*
X10651974Y-27362959D01*
X10881221Y-27574996D01*
X11100110Y-27864923D01*
X11266876Y-28193476D01*
X11380443Y-28560010D01*
X11434631Y-28903923D01*
X11448841Y-29211179D01*
X11429097Y-29605114D01*
X11370413Y-29964946D01*
X11233010Y-30389920D01*
X11029781Y-30750059D01*
X10762667Y-31042959D01*
X10433615Y-31266215D01*
X10044565Y-31417423D01*
X9597463Y-31494179D01*
X9352749Y-31503886D01*
X4008227Y-31503886D01*
X4008227Y-30035254D01*
G37*
G36*
X9127637Y-32553808D02*
G01*
X9559237Y-32630080D01*
X9951512Y-32755073D01*
X10302557Y-32927045D01*
X10610473Y-33144254D01*
X10873356Y-33404960D01*
X11089306Y-33707421D01*
X11256420Y-34049897D01*
X11372796Y-34430645D01*
X11436533Y-34847925D01*
X11448841Y-35145547D01*
X11421286Y-35583803D01*
X11340018Y-35987544D01*
X11207134Y-36354894D01*
X11024729Y-36683977D01*
X10794900Y-36972916D01*
X10519743Y-37219835D01*
X10201354Y-37422857D01*
X9841830Y-37580107D01*
X9443267Y-37689706D01*
X9007760Y-37749780D01*
X8697934Y-37761388D01*
X8216878Y-37736060D01*
X7775902Y-37661006D01*
X7376585Y-37537621D01*
X7020508Y-37367299D01*
X6709252Y-37151435D01*
X6444397Y-36891423D01*
X6227524Y-36588659D01*
X6060214Y-36244537D01*
X5944047Y-35860451D01*
X5880604Y-35437797D01*
X5868795Y-35145547D01*
X6976266Y-35145547D01*
X7045069Y-35540392D01*
X7243230Y-35870704D01*
X7558373Y-36127491D01*
X7901426Y-36278826D01*
X8309962Y-36367652D01*
X8679127Y-36390209D01*
X9032367Y-36366881D01*
X9427635Y-36275618D01*
X9763297Y-36121416D01*
X10075070Y-35862439D01*
X10273242Y-35533408D01*
X10342665Y-35145547D01*
X10273986Y-34753877D01*
X10076693Y-34424147D01*
X9763906Y-34166365D01*
X9424489Y-34013727D01*
X9021568Y-33923793D01*
X8658611Y-33900886D01*
X8296218Y-33923793D01*
X7893808Y-34013727D01*
X7554721Y-34166365D01*
X7242148Y-34424147D01*
X7044934Y-34753877D01*
X6976266Y-35145547D01*
X5868795Y-35145547D01*
X5868381Y-35135289D01*
X5896213Y-34697245D01*
X5978342Y-34294082D01*
X6112713Y-33927591D01*
X6297271Y-33599564D01*
X6529964Y-33311795D01*
X6808738Y-33066073D01*
X7131537Y-32864192D01*
X7496309Y-32707943D01*
X7900999Y-32599118D01*
X8343553Y-32539509D01*
X8658611Y-32527997D01*
X9127637Y-32553808D01*
G37*
G36*
X4008227Y-38826531D02*
G01*
X11339420Y-38826531D01*
X11339420Y-40197711D01*
X8097829Y-40197711D01*
X7719056Y-40258259D01*
X7408252Y-40428809D01*
X7181848Y-40692716D01*
X7056271Y-41033336D01*
X7036106Y-41256015D01*
X7099080Y-41610999D01*
X7306976Y-41895992D01*
X7366078Y-41941605D01*
X7681942Y-42076337D01*
X8037990Y-42098897D01*
X11339420Y-42098897D01*
X11339420Y-43471786D01*
X7716566Y-43471786D01*
X7360303Y-43453134D01*
X6996002Y-43383794D01*
X6645125Y-43240885D01*
X6361468Y-43028994D01*
X6271870Y-42931521D01*
X6082289Y-42646405D01*
X5949661Y-42314049D01*
X5879006Y-41952937D01*
X5868381Y-41746699D01*
X5896713Y-41385157D01*
X6003486Y-41009168D01*
X6193123Y-40677602D01*
X6424391Y-40424854D01*
X6721521Y-40197711D01*
X4008227Y-40197711D01*
X4008227Y-38826531D01*
G37*
G36*
X5868381Y-44771158D02*
G01*
X11339420Y-44771158D01*
X11339420Y-46142337D01*
X8056796Y-46142337D01*
X7691272Y-46202254D01*
X7392429Y-46374274D01*
X7175408Y-46646799D01*
X7055350Y-47008233D01*
X7036106Y-47250223D01*
X7083278Y-47593973D01*
X7281234Y-47911877D01*
X7584999Y-48077290D01*
X7948021Y-48131566D01*
X8007215Y-48132428D01*
X11339420Y-48132428D01*
X11339420Y-49503607D01*
X7716566Y-49503607D01*
X7295506Y-49474058D01*
X6925776Y-49386466D01*
X6608861Y-49242414D01*
X6289244Y-48985363D01*
X6057362Y-48645657D01*
X5936970Y-48316459D01*
X5876063Y-47937923D01*
X5868381Y-47730648D01*
X5895981Y-47351609D01*
X5980990Y-47016522D01*
X6157148Y-46673380D01*
X6421217Y-46372914D01*
X6721521Y-46142337D01*
X5868381Y-46142337D01*
X5868381Y-44771158D01*
G37*
G36*
X7656727Y-55085778D02*
G01*
X7260818Y-55039696D01*
X6908466Y-54917800D01*
X6602516Y-54723455D01*
X6345814Y-54460027D01*
X6141205Y-54130883D01*
X5991532Y-53739389D01*
X5899643Y-53288910D01*
X5870357Y-52914366D01*
X5868381Y-52782812D01*
X5886008Y-52419042D01*
X5962727Y-51978571D01*
X6097344Y-51592492D01*
X6286673Y-51264591D01*
X6527529Y-50998655D01*
X6816725Y-50798470D01*
X7151076Y-50667824D01*
X7527397Y-50610503D01*
X7627662Y-50608073D01*
X7969652Y-50645076D01*
X8313118Y-50777574D01*
X8484221Y-50902142D01*
X8697781Y-51188191D01*
X8835753Y-51511086D01*
X8921905Y-51763831D01*
X9427976Y-53400013D01*
X9565739Y-53714320D01*
X9855401Y-53861632D01*
X10179909Y-53680728D01*
X10316716Y-53360812D01*
X10366647Y-53014750D01*
X10371730Y-52842651D01*
X10350707Y-52500264D01*
X10260400Y-52158509D01*
X10187083Y-52028834D01*
X9909574Y-51821437D01*
X9691270Y-51763831D01*
X9691270Y-50421716D01*
X10100092Y-50474423D01*
X10455639Y-50602624D01*
X10757531Y-50805677D01*
X11005388Y-51082943D01*
X11198828Y-51433778D01*
X11337470Y-51857544D01*
X11405262Y-52222842D01*
X11441857Y-52628531D01*
X11448841Y-52921297D01*
X11432409Y-53315522D01*
X11383024Y-53673232D01*
X11283578Y-54044770D01*
X11138880Y-54367405D01*
X10978674Y-54605352D01*
X10713350Y-54869287D01*
X10396093Y-55066543D01*
X10041010Y-55190069D01*
X9662205Y-55232812D01*
X9304202Y-55196669D01*
X8951172Y-55062709D01*
X8667139Y-54829179D01*
X8451461Y-54495327D01*
X8338897Y-54195024D01*
X7841374Y-52459678D01*
X7717795Y-52140122D01*
X7432756Y-51979253D01*
X7114561Y-52147437D01*
X6974143Y-52484348D01*
X6947201Y-52774263D01*
X6980706Y-53157445D01*
X7101706Y-53479673D01*
X7378663Y-53711503D01*
X7656727Y-53762470D01*
X7656727Y-55085778D01*
G37*
G36*
X9127637Y-55949342D02*
G01*
X9559237Y-56025614D01*
X9951512Y-56150607D01*
X10302557Y-56322579D01*
X10610473Y-56539788D01*
X10873356Y-56800494D01*
X11089306Y-57102955D01*
X11256420Y-57445431D01*
X11372796Y-57826179D01*
X11436533Y-58243459D01*
X11448841Y-58541081D01*
X11421286Y-58979336D01*
X11340018Y-59383077D01*
X11207134Y-59750428D01*
X11024729Y-60079511D01*
X10794900Y-60368450D01*
X10519743Y-60615369D01*
X10201354Y-60818391D01*
X9841830Y-60975640D01*
X9443267Y-61085240D01*
X9007760Y-61145314D01*
X8697934Y-61156922D01*
X8216878Y-61131594D01*
X7775902Y-61056540D01*
X7376585Y-60933155D01*
X7020508Y-60762833D01*
X6709252Y-60546969D01*
X6444397Y-60286957D01*
X6227524Y-59984193D01*
X6060214Y-59640071D01*
X5944047Y-59255985D01*
X5880604Y-58833331D01*
X5868795Y-58541081D01*
X6976266Y-58541081D01*
X7045069Y-58935925D01*
X7243230Y-59266238D01*
X7558373Y-59523025D01*
X7901426Y-59674360D01*
X8309962Y-59763186D01*
X8679127Y-59785743D01*
X9032367Y-59762415D01*
X9427635Y-59671152D01*
X9763297Y-59516950D01*
X10075070Y-59257973D01*
X10273242Y-58928942D01*
X10342665Y-58541081D01*
X10273986Y-58149411D01*
X10076693Y-57819681D01*
X9763906Y-57561899D01*
X9424489Y-57409260D01*
X9021568Y-57319327D01*
X8658611Y-57296420D01*
X8296218Y-57319327D01*
X7893808Y-57409260D01*
X7554721Y-57561899D01*
X7242148Y-57819681D01*
X7044934Y-58149411D01*
X6976266Y-58541081D01*
X5868795Y-58541081D01*
X5868381Y-58530823D01*
X5896213Y-58092779D01*
X5978342Y-57689616D01*
X6112713Y-57323125D01*
X6297271Y-56995098D01*
X6529964Y-56707328D01*
X6808738Y-56461607D01*
X7131537Y-56259726D01*
X7496309Y-56103476D01*
X7900999Y-55994652D01*
X8343553Y-55935043D01*
X8658611Y-55923531D01*
X9127637Y-55949342D01*
G37*
G36*
X5868381Y-62182742D02*
G01*
X11339420Y-62182742D01*
X11339420Y-63553921D01*
X8056796Y-63553921D01*
X7691272Y-63613838D01*
X7392429Y-63785858D01*
X7175408Y-64058383D01*
X7055350Y-64419818D01*
X7036106Y-64661807D01*
X7083278Y-65005557D01*
X7281234Y-65323461D01*
X7584999Y-65488874D01*
X7948021Y-65543151D01*
X8007215Y-65544012D01*
X11339420Y-65544012D01*
X11339420Y-66915191D01*
X7716566Y-66915191D01*
X7295506Y-66885642D01*
X6925776Y-66798050D01*
X6608861Y-66653998D01*
X6289244Y-66396947D01*
X6057362Y-66057241D01*
X5936970Y-65728043D01*
X5876063Y-65349507D01*
X5868381Y-65142233D01*
X5895981Y-64763193D01*
X5980990Y-64428106D01*
X6157148Y-64084964D01*
X6421217Y-63784498D01*
X6721521Y-63553921D01*
X5868381Y-63553921D01*
X5868381Y-62182742D01*
G37*
M02*
